<svg width="600" height="600" viewBox="0 0 600 600" fill="none" xmlns="http://www.w3.org/2000/svg">
<path d="M407.575 113.909C447.754 148.403 484.77 182.265 508.814 227.202C533.174 272.14 544.247 328.154 534.44 382.902C524.316 437.65 493.312 491.449 447.122 525.627C401.248 559.805 340.821 574.362 293.682 556.007C246.226 537.336 212.691 485.752 170.93 449.992C128.853 414.548 78.8661 395.244 65.8949 362.332C52.6073 329.42 76.3351 282.9 91.8373 232.899C107.339 183.214 114.932 130.365 144.988 92.7057C175.043 54.7302 227.56 31.9449 275.649 37.9576C323.737 44.2869 367.08 79.4143 407.575 113.909Z" fill="#7F00FF"/>
<path d="M407.575 113.909C447.754 148.403 484.77 182.265 508.814 227.202C533.174 272.14 544.247 328.154 534.44 382.902C524.316 437.65 493.312 491.449 447.122 525.627C401.248 559.805 340.821 574.362 293.682 556.007C246.226 537.336 212.691 485.752 170.93 449.992C128.853 414.548 78.8661 395.244 65.8949 362.332C52.6073 329.42 76.3351 282.9 91.8373 232.899C107.339 183.214 114.932 130.365 144.988 92.7057C175.043 54.7302 227.56 31.9449 275.649 37.9576C323.737 44.2869 367.08 79.4143 407.575 113.909Z" fill="url(#paint0_linear)"/>
<path d="M85.3324 532.156H494.705C494.852 532.156 495 531.781 495 531.156C495 530.531 494.852 530.156 494.705 530.156H85.2954C85.1477 530.156 85 530.531 85 531.156C85 531.781 85.1477 532.156 85.3324 532.156Z" fill="#413A51"/>
<path opacity="0.15" d="M114.73 473.124V464.589V464.254H139.215C141.227 463.35 142.216 460.84 140.92 458.798C137.578 453.577 136.828 447.084 143.001 443.536C148.014 440.657 154.868 442.498 157.631 447.519C159.916 451.636 158.04 455.251 155.892 458.932C154.698 460.974 155.687 463.384 157.665 464.254H181.844V464.589V473.827V487.75C181.23 490.127 178.365 491.432 176.08 490.026C170.76 486.78 164.144 486.01 160.53 492.068C157.597 496.988 159.779 503.582 164.861 506.293C169.055 508.535 172.431 506.728 176.217 504.72C178.706 503.381 181.298 504.385 181.844 507.029V530.09H164.895V530.157H128.439V530.09H114.764V506.627C114.695 506.56 114.73 473.124 114.73 473.124Z" fill="black"/>
<path d="M114.73 473.124V464.589V464.254H139.215C141.227 463.35 142.216 460.84 140.92 458.798C137.578 453.577 136.828 447.084 143.001 443.536C148.014 440.657 154.868 442.498 157.631 447.519C159.916 451.636 158.04 455.251 155.892 458.932C154.698 460.974 155.687 463.384 157.665 464.254H181.844V464.589V473.827V487.75C181.23 490.127 178.365 491.432 176.08 490.026C170.76 486.78 164.144 486.01 160.53 492.068C157.597 496.988 159.779 503.582 164.861 506.293C169.055 508.535 172.431 506.728 176.217 504.72C178.706 503.381 181.298 504.385 181.844 507.029V530.09H164.895V530.157H128.439V530.09H114.764V506.628C114.695 506.561 114.73 473.124 114.73 473.124Z" fill="#EDA05A"/>
<path d="M159.65 492.339C163.225 486.33 169.766 487.093 175.026 490.314C177.555 491.874 180.86 490.081 180.86 487.126V465.412H204.396C206.52 466.176 207.633 468.699 206.386 470.791C204.261 474.443 202.407 478.029 204.666 482.113C207.397 487.093 214.175 488.919 219.131 486.064C225.235 482.544 224.493 476.103 221.188 470.924C219.84 468.799 220.952 466.176 223.144 465.412H238.116H246.714V465.246H247.051V464.848H247.152V467.039V488.687V506.649V529.193V530.156H246.815H242.398H237.509H223.481H204.059H191.009H180.826V508.143C180.826 505.255 177.657 503.462 175.128 504.89C171.418 506.981 167.777 508.807 163.629 506.583C158.605 503.894 156.717 497.187 159.65 492.339Z" fill="#EDA05A"/>
<path d="M114.822 464.408L114.722 399.539H115.056H180.383V422.127C180.383 425.123 186.425 431.788 188.929 430.206C194.137 426.907 197.808 421.319 201.347 427.412C204.217 432.361 202.381 439.127 197.374 441.854C193.268 444.109 189.797 438.487 186.125 436.367C183.621 434.919 180.35 440.507 180.35 443.436V465.755H157.35C155.047 465.149 153.812 462.422 155.08 460.2C157.183 456.497 159.019 452.862 156.783 448.721C154.079 443.672 147.369 441.82 142.462 444.715C136.42 448.283 137.154 454.814 140.426 460.066C141.828 462.321 140.526 465.149 138.156 465.755H124.269H115.056H114.822V464.408Z" fill="#EDA05A"/>
<path opacity="0.15" d="M114.72 464.342V399.539H115.055H180.506V422.116C180.506 425.11 171.075 423.293 174.653 429.383C177.53 434.329 183.349 432.209 178.332 434.968C174.219 437.223 185.69 439.275 182.011 437.189C179.503 435.742 180.473 440.52 180.473 443.447V465.755H157.429C155.122 465.149 153.884 462.424 155.155 460.203C157.262 456.502 159.102 452.868 156.861 448.73C154.152 443.683 147.429 441.832 142.513 444.726C136.459 448.292 137.195 454.82 140.473 460.069C141.877 462.323 140.573 465.149 138.198 465.755H124.285H115.055H114.72V464.342Z" fill="black"/>
<path opacity="0.5" d="M114.721 473.124V464.589V464.254H139.21C141.222 463.35 142.211 460.84 140.915 458.798C137.573 453.577 136.822 447.084 142.996 443.536C148.01 440.657 154.865 442.498 157.628 447.519C159.913 451.636 158.037 455.251 155.888 458.932C154.695 460.974 155.684 463.384 157.662 464.254H181.844V464.589V473.827V487.75C181.23 490.127 178.365 491.432 176.08 490.026C170.759 486.78 164.142 486.01 160.527 492.068C157.594 496.988 159.776 503.582 164.858 506.293C169.054 508.535 172.43 506.728 176.216 504.72C178.706 503.381 181.298 504.385 181.844 507.029V530.09H164.893V530.157H128.432V530.09H114.755L114.721 473.124Z" fill="white"/>
<path d="M212.234 402.125C212.467 399.699 214.66 398.536 217.052 399.5C220.64 400.995 223.796 402.291 227.351 399.865C231.637 396.908 232.966 390.695 229.876 386.509C226.055 381.359 220.241 382.622 215.789 386.11C213.895 387.606 211.204 386.708 210.407 384.582L209.078 371.924L208.181 363.518L208.148 363.219L214.959 362.488L265.459 357.172L268.051 356.906L268.084 357.205L268.915 364.98L270.343 378.502C270.376 378.568 270.41 378.635 270.443 378.701L272.17 395.214C272.137 395.28 272.104 395.347 272.104 395.446L274.363 416.776L274.064 416.81V416.976L266.29 417.806L252.768 419.235C250.874 420.132 250.11 422.657 251.538 424.484C254.994 428.937 256.289 434.751 251.14 438.572C246.953 441.661 240.641 440.631 237.684 436.312C235.259 432.791 236.587 429.302 238.149 425.747C239.046 423.687 237.817 421.494 235.823 420.996L214.493 423.255L213.563 414.484L212.234 402.125Z" fill="#EDA05A"/>
<path opacity="0.5" d="M212.234 402.125C212.467 399.699 214.66 398.536 217.052 399.5C220.64 400.995 223.796 402.291 227.351 399.865C231.637 396.908 232.966 390.695 229.876 386.509C226.055 381.359 220.241 382.622 215.789 386.11C213.895 387.606 211.204 386.708 210.407 384.582L209.078 371.924L208.181 363.518L208.148 363.219L214.959 362.488L265.459 357.172L268.051 356.906L268.084 357.205L268.915 364.98L270.343 378.502C270.376 378.568 270.41 378.635 270.443 378.701L272.17 395.214C272.137 395.28 272.104 395.347 272.104 395.446L274.363 416.776L274.064 416.81V416.976L266.29 417.806L252.768 419.235C250.874 420.132 250.11 422.657 251.538 424.484C254.994 428.937 256.289 434.751 251.14 438.572C246.953 441.661 240.641 440.631 237.684 436.312C235.259 432.791 236.587 429.302 238.149 425.747C239.046 423.687 237.817 421.494 235.823 420.996L214.493 423.255L213.563 414.484L212.234 402.125Z" fill="white"/>
<path d="M118.352 464.589V464.254H142.179C144.136 463.35 145.099 460.84 143.838 458.798C140.586 453.577 139.856 447.084 145.862 443.536C150.74 440.657 157.411 442.498 160.099 447.519C162.322 451.636 160.497 455.251 158.406 458.932C157.245 460.974 158.207 463.384 160.132 464.254H183.66V464.589V473.827V487.75C183.063 490.127 180.275 491.432 178.052 490.026C172.875 486.78 166.437 486.01 162.919 492.068C160.065 496.988 162.189 503.582 167.134 506.293C171.216 508.535 174.501 506.728 178.185 504.72C180.607 503.381 183.129 504.385 183.66 507.029V530.09H167.167V530.157H131.659V530.09H118.352V506.627C118.352 506.56 118.352 464.589 118.352 464.589Z" fill="#EDA05A"/>
<path d="M163.265 492.339C166.839 486.33 173.382 487.093 178.643 490.314C181.173 491.874 184.478 490.081 184.478 487.126V465.412H208.018C210.142 466.176 211.255 468.699 210.008 470.791C207.883 474.443 206.028 478.029 208.288 482.113C211.019 487.093 217.798 488.919 222.756 486.064C228.86 482.544 228.118 476.103 224.813 470.924C223.464 468.799 224.577 466.176 226.769 465.412H241.743H250.343V465.246H250.68V464.848H250.781V467.039V488.687V506.649V529.193V530.156H250.444H246.026H241.136H227.106H207.681H194.629H184.444V508.143C184.444 505.255 181.274 503.462 178.744 504.89C175.035 506.981 171.392 508.807 167.244 506.583C162.219 503.894 160.364 497.187 163.265 492.339Z" fill="#EDA05A"/>
<path d="M118.351 464.375V399.539H118.684H183.987V422.127C183.987 425.123 187.224 426.941 189.76 425.359C194.965 422.06 201.439 421.319 204.976 427.412C207.846 432.361 206.01 439.127 201.005 441.854C196.901 444.109 193.297 442.258 189.627 440.137C187.124 438.689 183.987 440.507 183.987 443.436V465.755H160.996C158.694 465.149 157.459 462.422 158.727 460.2C160.829 456.497 162.665 452.862 160.429 448.721C157.726 443.672 151.019 441.82 146.114 444.715C140.074 448.283 140.808 454.814 144.078 460.066C145.48 462.321 144.178 465.149 141.809 465.755H127.928H118.718H118.384V464.375H118.351Z" fill="#EDA05A"/>
<path d="M214.106 401.71C214.342 399.258 216.564 398.083 218.989 399.057C222.627 400.568 225.826 401.878 229.43 399.426C233.774 396.437 235.122 390.156 231.989 385.925C228.116 380.719 222.222 381.995 217.709 385.522C215.79 387.033 213.062 386.126 212.253 383.977L210.906 371.181L209.997 362.683L209.963 362.381L216.867 361.642L268.06 356.269L270.687 356L270.721 356.302L271.563 364.161L273.011 377.831C273.044 377.898 273.078 377.965 273.112 378.032L274.863 394.724C274.829 394.791 274.796 394.858 274.796 394.959L277.086 416.521L276.783 416.555V416.722L268.902 417.562L255.194 419.006C253.275 419.913 252.5 422.466 253.948 424.313C257.451 428.813 258.764 434.691 253.544 438.553C249.301 441.676 242.902 440.635 239.904 436.269C237.445 432.709 238.793 429.183 240.376 425.589C241.285 423.507 240.039 421.29 238.018 420.786L216.396 423.07L215.453 414.204L214.106 401.71Z" fill="#EDA05A"/>
<path opacity="0.7" d="M118.352 464.254H142.179C144.136 463.35 145.099 460.84 143.838 458.798C140.586 453.577 139.856 447.084 145.862 443.536C150.74 440.657 157.411 442.498 160.099 447.519C162.322 451.636 160.497 455.251 158.406 458.932C157.245 460.974 158.207 463.384 160.132 464.254H183.66V464.589V473.827V487.75C183.063 490.127 180.275 491.432 178.052 490.026C172.875 486.78 166.437 486.01 162.919 492.068C160.065 496.988 162.189 503.582 167.134 506.293C171.216 508.535 174.501 506.728 178.185 504.72C180.607 503.381 183.129 504.385 183.66 507.029V530.09H167.167V530.157H131.659V530.09H118.352V464.254Z" fill="white"/>
<path opacity="0.7" d="M214.106 401.71C214.342 399.258 216.564 398.083 218.989 399.057C222.627 400.568 225.826 401.878 229.43 399.426C233.774 396.437 235.122 390.156 231.989 385.925C228.116 380.719 222.222 381.995 217.709 385.522C215.79 387.033 213.062 386.126 212.253 383.977L210.906 371.181L209.997 362.683L209.963 362.381L216.867 361.642L268.06 356.269L270.687 356L270.721 356.302L271.563 364.161L273.011 377.831C273.044 377.898 273.078 377.965 273.112 378.032L274.863 394.724C274.829 394.791 274.796 394.858 274.796 394.959L277.086 416.521L276.783 416.555V416.722L268.902 417.562L255.194 419.006C253.275 419.913 252.5 422.466 253.948 424.313C257.451 428.813 258.764 434.691 253.544 438.553C249.301 441.676 242.902 440.635 239.904 436.269C237.445 432.709 238.793 429.183 240.376 425.589C241.285 423.507 240.039 421.29 238.018 420.786L216.396 423.07L215.453 414.204L214.106 401.71Z" fill="white"/>
<path fill-rule="evenodd" clip-rule="evenodd" d="M342.316 249.433C336.583 253.27 330.865 255.263 328.11 254.69C321.201 253.253 319.392 228.312 324.207 218.218C329.023 208.123 355.972 202.548 358.263 221.988C359.058 228.735 356.501 234.911 352.535 240.039L361.726 274.782L339.852 275.817L342.316 249.433Z" fill="#B28B67"/>
<path fill-rule="evenodd" clip-rule="evenodd" d="M321.167 209.106C321.398 213.974 325.402 217.77 330.218 217.799C333.007 218.517 336.567 218.973 340.495 219.05C340.183 220.498 340.053 222.132 340.14 223.967C340.216 225.588 340.477 227.298 340.889 229.028C341.69 227.978 342.795 227.266 343.947 227.211C347.171 227.059 349.541 229.605 349.674 232.421C349.843 235.995 347.902 238.678 344.9 239.028C347.859 244.106 351.796 247.849 355.544 247.672C362.663 247.335 367.274 237.578 366.79 227.345C366.773 226.985 366.749 226.629 366.718 226.275C369.206 227.814 371.542 229.877 373.894 231.953C378.893 236.366 383.967 240.847 390.743 240.526C404.299 239.885 408.389 212.287 389.449 213.183C376.569 213.793 370.322 215.97 364.993 219.006C363.772 216.021 362.009 213.546 359.917 211.858C359.408 211.337 358.643 210.852 357.665 210.415C357.065 210.123 356.449 209.891 355.818 209.725C352.468 208.671 347.658 208.043 342.321 208.109C341.325 208.121 340.347 208.157 339.394 208.215C339.141 203.195 334.874 199.323 329.85 199.561C324.817 199.799 320.929 204.073 321.167 209.106Z" fill="#191847"/>
<path fill-rule="evenodd" clip-rule="evenodd" d="M429.411 371.035C426.382 366.914 408.148 322.597 408.148 322.597L394.53 325.058C394.53 325.058 418.227 371.966 419.914 374.662C422.106 378.165 420.482 384.1 419.38 388.125C419.21 388.747 419.052 389.324 418.922 389.839C421.553 390.498 422.493 388.977 423.483 387.372C424.601 385.561 425.785 383.643 429.545 384.644C430.997 385.03 432.398 385.543 433.766 386.044C438.492 387.774 442.834 389.363 447.61 385.123C448.367 384.451 448.95 382.32 446.43 381.178C440.15 378.334 430.891 373.05 429.411 371.035ZM271.821 348.181L296.492 330.113L301.942 343.553L277.513 353.66C270.602 361.754 266.738 365.128 265.921 363.783C265.232 362.648 265.771 361.586 266.268 360.608C266.654 359.846 267.016 359.135 266.75 358.48C266.144 356.985 261.503 357.143 257.105 357.481C252.708 357.819 253.99 355.868 255.05 354.904C259.54 352.224 265.13 349.983 271.821 348.181Z" fill="#B28B67"/>
<path fill-rule="evenodd" clip-rule="evenodd" d="M341.06 266.064L349.332 269.446C349.245 271.599 349.254 274.663 349.264 278.173C349.294 289.188 349.337 304.6 346.482 310.07C336.591 329.019 316.28 338.89 293.659 349.884C290.626 351.357 287.553 352.851 284.457 354.39L278.233 341.725C278.954 341.215 279.669 340.703 280.377 340.188C279.399 339.846 278.584 339.075 278.227 338.02C277.614 336.205 278.593 334.237 280.414 333.625C284.116 332.382 287.569 331.858 290.743 332.085C313.924 312.615 329.529 289.822 341.06 266.064Z" fill="#D1D1D1"/>
<path fill-rule="evenodd" clip-rule="evenodd" d="M378.391 352.308C378.391 352.308 341.917 356.302 320.974 352.308C319.244 351.978 319.32 344.545 320.122 342.515C332.614 310.902 340.832 287.76 340.832 265.803C344.271 267.593 352.867 266.339 352.867 266.339C368.269 288.967 375.349 314.93 378.391 352.308Z" fill="#FF416C"/>
<path fill-rule="evenodd" clip-rule="evenodd" d="M357.508 346.209L319.546 441.981L294.085 522.947H284.031L322.956 346.209L357.508 346.209Z" fill="#997659"/>
<path fill-rule="evenodd" clip-rule="evenodd" d="M365.151 346.209C365.556 379.864 371.451 425.174 372.393 427.272C373.334 429.37 437.422 480.628 437.422 480.628L430.497 488.015C430.497 488.015 354.88 444.067 351.381 438.206C347.882 432.344 336.489 378.406 327.343 346.209H365.151Z" fill="#B28B67"/>
<path fill-rule="evenodd" clip-rule="evenodd" d="M436.166 478.81C436.512 477.692 437.698 477.022 438.795 477.434C440.306 478.002 442.247 478.822 443.156 479.582C444.758 480.923 447.385 484.027 447.385 484.027C445.825 485.88 419.344 517.336 419.344 517.336C419.344 517.336 413.945 515.033 415.956 511.948C417.968 508.864 419.249 506.782 419.249 506.782L425.293 485.734C425.448 485.193 426.021 484.887 426.559 485.057L429.595 486.016C429.595 486.016 432.987 484.44 434.35 482.821C435.092 481.939 435.735 480.206 436.166 478.81Z" fill="#F2F2F2"/>
<path fill-rule="evenodd" clip-rule="evenodd" d="M295.609 517.628C296.687 517.175 297.959 517.649 298.347 518.752C298.882 520.27 299.5 522.282 299.5 523.465C299.5 525.55 298.803 529.551 298.803 529.551C296.376 529.551 255.18 529.551 255.18 529.551C255.18 529.551 253.479 523.948 257.143 523.501C260.806 523.054 263.23 522.694 263.23 522.694L283.294 513.778C283.808 513.55 284.409 513.79 284.624 514.31L285.839 517.246C285.839 517.246 289.23 518.823 291.351 518.823C292.508 518.823 294.258 518.197 295.609 517.628Z" fill="#F2F2F2"/>
<path fill-rule="evenodd" clip-rule="evenodd" d="M427.535 468.712L396.18 505.706C396.18 505.706 346.641 451.775 338.418 435.327C330.194 418.878 323.632 346.209 323.632 346.209H371.834C371.834 346.209 375.418 410.14 376.666 413.115C377.914 416.09 427.535 468.712 427.535 468.712Z" fill="#8E95D2"/>
<path fill-rule="evenodd" clip-rule="evenodd" d="M331.983 514.608L284.181 509.437L319.608 346.209H362.422L331.983 514.608Z" fill="#BCBFDC"/>
<path fill-rule="evenodd" clip-rule="evenodd" d="M417.152 438.723C398.307 431.219 379.157 433.696 361.906 435.927C349.953 437.473 338.912 438.901 329.516 436.809C321.874 397.646 332.475 354.364 341.161 318.906C346.591 296.736 351.273 277.624 350.276 264.49H357.869L359.073 264.49C359.073 264.49 403.155 291.458 424.647 352.69C426.331 353 427.927 353.54 429.432 354.317C430.856 355.053 428.862 359.463 427.172 360.392C427.782 362.393 428.367 364.428 428.926 366.496L414.318 370.781C403.737 342.982 391.198 326.944 380.839 317.746C380.773 320.834 380.448 323.94 380.12 327.067C379.524 332.761 378.921 338.52 379.866 344.347C380.05 345.487 380.274 346.636 380.534 347.793C382.019 347.97 383.277 349.098 383.551 350.646L383.95 352.903C384.163 354.103 383.733 355.267 382.907 356.044C386.506 366.493 392.289 377.42 398.088 388.38C407.236 405.668 416.426 423.034 417.152 438.723Z" fill="#F5F5F5"/>
<path fill-rule="evenodd" clip-rule="evenodd" d="M355.879 265.262L359.869 277.493L351.834 286.662L359.096 293.868L341.527 323.853L363.012 293.928L355.879 286.662L363.012 278.559L355.879 265.262Z" fill="black" fill-opacity="0.1"/>
<path fill-rule="evenodd" clip-rule="evenodd" d="M346.68 335.418C344.971 335.418 343.586 334.037 343.586 332.334C343.586 330.631 344.971 329.25 346.68 329.25C348.388 329.25 349.773 330.631 349.773 332.334C349.773 334.037 348.388 335.418 346.68 335.418ZM342.812 353.149C341.104 353.149 339.719 351.768 339.719 350.065C339.719 348.362 341.104 346.982 342.812 346.982C344.521 346.982 345.906 348.362 345.906 350.065C345.906 351.768 344.521 353.149 342.812 353.149ZM338.945 367.797C338.945 369.5 340.33 370.881 342.039 370.881C343.748 370.881 345.133 369.5 345.133 367.797C345.133 366.094 343.748 364.713 342.039 364.713C340.33 364.713 338.945 366.094 338.945 367.797Z" fill="black" fill-opacity="0.4"/>
<g opacity="0.7">
<path d="M150.113 236.229H250V241.312H150.113V236.229Z" fill="#AFB3B8"/>
<path d="M126.001 236.229H150.113V241.312H126.001V236.229Z" fill="#D7DADC"/>
<path d="M209.667 185H219.738V236.227H209.667V185Z" fill="#AFB3B8"/>
<path d="M182.747 185H209.668V236.227H182.747V185Z" fill="#D7DADC"/>
<path d="M200.71 189.795H206.375V236.228H200.71V189.795Z" fill="#AFB3B8"/>
<path d="M185.556 189.795H200.711V236.277H185.556V189.795Z" fill="#D7DADC"/>
<path d="M183.421 236.227H191.846L196.688 191.924H188.263L183.421 236.227Z" fill="#AFB3B8"/>
<path d="M183.424 236.227H160.958L165.799 191.924H188.266L183.424 236.227Z" fill="#D7DADC"/>
</g>
<defs>
<linearGradient id="paint0_linear" x1="325.5" y1="78.5" x2="300.093" y2="462.506" gradientUnits="userSpaceOnUse">
<stop stop-color="#E100FF"/>
<stop offset="1" stop-color="#E100FF" stop-opacity="0"/>
</linearGradient>
</defs>
</svg>
