<svg width="600" height="600" viewBox="0 0 600 600" fill="none" xmlns="http://www.w3.org/2000/svg">
<path d="M482.984 131.531C516.949 164.445 536.557 209.615 547.412 254.784C558.617 299.603 561.418 344.773 548.112 384.69C535.157 424.607 506.094 459.272 470.729 484.133C435.014 508.993 393.346 524.05 349.227 526.501C305.458 529.302 259.588 519.848 209.867 499.889C160.496 479.581 107.273 448.417 75.0589 399.046C43.1952 349.675 32.3406 281.746 55.1003 228.873C78.2103 176 134.584 138.534 189.908 111.923C244.882 85.6614 298.105 70.2548 349.227 73.4062C399.999 76.5575 448.669 98.2669 482.984 131.531Z" fill="#7F00FF"/>
<path d="M482.984 131.531C516.949 164.445 536.557 209.615 547.412 254.784C558.617 299.603 561.418 344.773 548.112 384.69C535.157 424.607 506.094 459.272 470.729 484.133C435.014 508.993 393.346 524.05 349.227 526.501C305.458 529.302 259.588 519.848 209.867 499.889C160.496 479.581 107.273 448.417 75.0589 399.046C43.1952 349.675 32.3406 281.746 55.1003 228.873C78.2103 176 134.584 138.534 189.908 111.923C244.882 85.6614 298.105 70.2548 349.227 73.4062C399.999 76.5575 448.669 98.2669 482.984 131.531Z" fill="url(#paint0_linear)"/>
<path fill-rule="evenodd" clip-rule="evenodd" d="M382.247 258.678C376.808 262.806 371.276 265.112 368.52 264.708C361.609 263.695 358.355 239.159 362.519 228.903C366.683 218.647 392.98 211.553 396.388 230.625C397.57 237.244 395.407 243.496 391.79 248.797L402.915 282.581L381.364 284.89L382.247 258.678Z" fill="#B28B67"/>
<path fill-rule="evenodd" clip-rule="evenodd" d="M362.589 223.372C362.081 222.296 359.064 219.114 363.422 215.307C364.205 214.623 365.667 215.064 366.839 214.56C367.721 214.181 367.892 212.875 368.914 212.542C369.973 212.195 371.267 213.112 372.482 212.889C373.227 212.752 374.261 211.458 375.036 211.311C376.42 211.049 377.829 212.23 379.201 212.169C379.996 212.134 380.777 210.764 381.554 210.612C383.445 210.244 385.279 210.948 386.99 211.037C388.567 211.12 389.629 214.22 390.851 214.848C394.687 216.821 397.565 217.179 400.732 219.285C404.497 221.79 405.388 223.857 407.025 225.62C408.663 227.382 410.271 234.036 409.899 238.451C409.68 241.056 409.143 248.161 406.564 251.167C403.034 255.28 395.165 257.23 394.404 256.813C390.876 254.883 382.164 243.051 376.466 239.15C372.276 236.282 365.736 230.044 362.589 223.372Z" fill="#FF9B21"/>
<mask id="mask0" mask-type="alpha" maskUnits="userSpaceOnUse" x="361" y="210" width="49" height="47">
<path fill-rule="evenodd" clip-rule="evenodd" d="M362.589 223.372C362.081 222.296 359.064 219.114 363.422 215.307C364.205 214.623 365.667 215.064 366.839 214.56C367.721 214.181 367.892 212.875 368.914 212.542C369.973 212.195 371.267 213.112 372.482 212.889C373.227 212.752 374.261 211.458 375.036 211.311C376.42 211.049 377.829 212.23 379.201 212.169C379.996 212.134 380.777 210.764 381.554 210.612C383.445 210.244 385.279 210.948 386.99 211.037C388.567 211.12 389.629 214.22 390.851 214.848C394.687 216.821 397.565 217.179 400.732 219.285C404.497 221.79 405.388 223.857 407.025 225.62C408.663 227.382 410.271 234.036 409.899 238.451C409.68 241.056 409.143 248.161 406.564 251.167C403.034 255.28 395.165 257.23 394.404 256.813C390.876 254.883 382.164 243.051 376.466 239.15C372.276 236.282 365.736 230.044 362.589 223.372Z" fill="white"/>
</mask>
<g mask="url(#mask0)">
<path fill-rule="evenodd" clip-rule="evenodd" d="M386.434 234.983C383.221 227.819 376.842 209.757 376.842 209.757L379.526 209.752C379.526 209.752 382.894 221.351 385.876 228.78C388.602 235.572 391.609 242.195 393.973 247.403C397.239 254.597 399.279 259.089 397.654 257.589C397.46 257.41 397.262 257.198 397.06 256.953C397.047 256.99 397.025 257.013 396.991 257.022C397.114 257.211 396.967 257.139 396.514 256.802L396.492 256.786L396.466 256.766C393.722 254.71 385.802 247.395 376.984 234.837C372.913 229.039 364.985 214.095 364.985 214.095L367.355 212.766C367.355 212.766 372.808 224.66 376.5 230.315C382.99 240.258 388.859 247.541 392.644 251.986C390.998 249.426 389.014 245.971 386.539 241.662C385.449 239.765 384.264 237.702 382.971 235.476C379.026 228.688 370.794 211.391 370.794 211.391L373.462 211.105C373.462 211.105 378.025 222.289 381.767 229.366C385.188 235.836 388.87 242.108 391.766 247.04C391.815 247.123 391.864 247.206 391.912 247.289C391.13 245.56 390.277 243.633 389.337 241.508C388.451 239.507 387.488 237.331 386.434 234.983Z" fill="black" fill-opacity="0.2"/>
</g>
<path fill-rule="evenodd" clip-rule="evenodd" d="M445.062 416.092C453.899 416.092 461.062 423.255 461.062 432.092V512.074C461.062 520.911 453.899 528.074 445.063 528.074H344.309C335.473 528.074 328.309 520.911 328.309 512.074V432.092C328.309 423.255 335.473 416.092 344.309 416.092H445.062ZM431.776 441.378C433.985 441.378 435.776 443.169 435.776 445.378V498.788C435.776 500.997 433.985 502.788 431.776 502.788H357.596C355.386 502.788 353.596 500.997 353.596 498.788V445.378C353.596 443.169 355.386 441.378 357.596 441.378H431.776Z" fill="#AFB3B8"/>
<path fill-rule="evenodd" clip-rule="evenodd" d="M238.761 523.559C256.566 501.817 268.613 485.698 274.903 475.203C285.672 457.232 294.486 441.241 297.268 435.133C303.901 420.567 281.998 413.747 277.041 420.541C269.538 430.824 253.514 463.182 228.97 517.615L238.761 523.559Z" fill="#B28B67"/>
<path fill-rule="evenodd" clip-rule="evenodd" d="M275.246 517.237L308.382 433.826C315.469 418.62 281.244 408.625 276.035 415.702C264.21 431.767 236.105 495.143 232.582 499.929L275.246 517.237Z" fill="#2F3676"/>
<path fill-rule="evenodd" clip-rule="evenodd" d="M363.5 500.509C357.045 491.093 333.567 459.416 320.779 446.31C317.104 442.543 313.518 438.928 310.127 435.56C300.047 425.547 279.973 442.376 290.035 451.497C315.093 474.209 351.653 504.871 354.708 507.605C358.989 511.436 367.557 506.426 363.5 500.509Z" fill="#B28B67"/>
<path fill-rule="evenodd" clip-rule="evenodd" d="M359.191 496.802C359.888 495.862 361.229 495.637 362.123 496.394C363.588 497.636 365.589 499.46 366.328 500.74C367.549 502.856 369.188 507.321 369.188 507.321C366.734 508.738 325.076 532.789 325.076 532.789C325.076 532.789 320.075 528.097 323.518 525.505C326.961 522.913 329.2 521.133 329.2 521.133L344.367 500.236C344.698 499.78 345.34 499.688 345.786 500.031L348.871 502.407C348.871 502.407 353.224 502.027 355.368 500.789C356.623 500.065 358.144 498.214 359.191 496.802Z" fill="#0B4870"/>
<path fill-rule="evenodd" clip-rule="evenodd" d="M243.722 519.384C244.796 518.918 246.07 519.394 246.465 520.496C247.113 522.304 247.934 524.885 247.934 526.363C247.934 528.806 247.12 533.492 247.12 533.492C244.286 533.492 196.184 533.492 196.184 533.492C196.184 533.492 194.199 526.928 198.476 526.405C202.754 525.882 205.583 525.46 205.583 525.46L229.167 514.946C229.681 514.717 230.284 514.958 230.498 515.478L231.982 519.078C231.982 519.078 235.942 520.925 238.418 520.925C239.866 520.925 242.109 520.083 243.722 519.384Z" fill="#0B4870"/>
<path fill-rule="evenodd" clip-rule="evenodd" d="M320.306 437.992C320.306 437.992 361.618 431.262 375.649 428.788C402.31 424.087 410.085 409.739 405.488 378.436L356.364 378.436C346.613 381.251 274.876 413.267 274.876 413.267C266.272 417.538 267.874 430.133 269.447 434.282C269.543 434.536 312.964 508.85 312.964 508.85L353.15 483.25L320.231 441.009C320.231 441.009 318.927 438.382 320.306 437.992Z" fill="#5C63AB"/>
<path fill-rule="evenodd" clip-rule="evenodd" d="M305.394 381.556L330.977 356.6L339.473 371.302L312.871 386.986C306.201 397.493 302.283 402.033 301.118 400.606C300.136 399.403 300.586 398.084 301.001 396.869C301.324 395.922 301.625 395.039 301.211 394.322C300.266 392.686 294.925 393.623 289.895 394.729C284.864 395.835 286.028 393.364 287.097 392.074C291.852 388.237 297.951 384.731 305.394 381.556ZM456.186 417.816C453.54 412.447 444.527 360.119 444.527 360.119L425.655 360.193C425.655 360.193 443.134 416.619 444.527 420.071C446.337 424.556 443.263 431.072 441.179 435.491C440.856 436.174 440.557 436.808 440.304 437.376C443.196 438.67 444.586 437.105 446.05 435.456C447.705 433.593 449.455 431.622 453.576 433.54C455.168 434.28 456.675 435.156 458.147 436.012C463.231 438.967 467.902 441.682 474.256 437.761C475.263 437.14 476.367 434.8 473.7 432.971C467.055 428.415 457.48 420.44 456.186 417.816Z" fill="#B28B67"/>
<path fill-rule="evenodd" clip-rule="evenodd" d="M390.894 280.931L383.085 279.592C369.641 313.178 346.168 343.695 312.666 371.143L337.982 401.899C371.479 362.816 392.127 322.494 390.894 280.931Z" fill="#191847"/>
<path fill-rule="evenodd" clip-rule="evenodd" d="M424.938 379.067H355.4C355.4 379.067 379.565 320.31 379.565 279.241L400.541 276.115C417.027 302.628 421.682 335.271 424.938 379.067Z" fill="#FFBE55"/>
<path fill-rule="evenodd" clip-rule="evenodd" d="M456.547 408.869C448.942 323.072 401.004 276.115 401.004 276.115L400.987 276.13C400.984 276.125 400.982 276.12 400.979 276.115H399.61C397.152 276.2 392.123 276.42 392.123 276.42L387.054 290.905C386.25 317.395 377.662 397.676 377.662 397.676H423.178C423.101 401.357 422.929 405.089 422.654 408.869H456.547Z" fill="#2F3676"/>
<path fill-rule="evenodd" clip-rule="evenodd" d="M423.17 398.031C423.534 382.002 422.111 366.951 419.739 353.33C418.498 369.492 415.905 388.94 410.49 398.031H423.17Z" fill="black" fill-opacity="0.1"/>
<path fill-rule="evenodd" clip-rule="evenodd" d="M413.098 370.035L390.621 359.586V370.035H413.098Z" fill="white" fill-opacity="0.2"/>
<path d="M371.386 409.18L328.96 411.275C328.616 411.292 328.33 411.608 328.347 411.952L328.4 413.027C328.417 413.372 328.733 413.658 329.077 413.641L371.503 411.547C371.847 411.53 372.133 411.214 372.116 410.869L372.063 409.794C372.046 409.45 371.773 409.161 371.386 409.18Z" fill="#F0F4F4"/>
<path opacity="0.6" d="M371.386 409.18L328.96 411.275C328.616 411.292 328.33 411.608 328.347 411.952L328.4 413.027C328.417 413.372 328.733 413.658 329.077 413.641L371.503 411.547C371.847 411.53 372.133 411.214 372.116 410.869L372.063 409.794C372.046 409.45 371.773 409.161 371.386 409.18Z" fill="#678E8E"/>
<path d="M342.773 410.592L268.808 414.244C268.463 414.261 268.177 414.577 268.194 414.921L268.247 415.997C268.264 416.341 268.58 416.627 268.925 416.61L342.889 412.959C343.234 412.942 343.52 412.626 343.503 412.282L343.45 411.206C343.39 410.864 343.117 410.575 342.773 410.592Z" fill="#F0F4F4"/>
<g opacity="0.6">
<path opacity="0.6" d="M269.777 414.627L345.076 410.91C345.205 410.903 345.287 410.813 345.28 410.684C345.274 410.555 345.183 410.473 345.054 410.479L269.756 414.197C269.627 414.203 269.545 414.293 269.551 414.422C269.557 414.551 269.691 414.631 269.777 414.627Z" fill="#678E8E"/>
</g>
<path d="M342.947 410.584L331.802 411.134C330.942 411.177 330.181 410.611 329.966 409.759L318.205 361.132C317.934 360.024 318.746 358.992 319.865 358.937L331.009 358.387C331.869 358.345 332.631 358.911 332.845 359.763L344.607 408.389C344.834 409.499 344.065 410.529 342.947 410.584Z" fill="#F0F4F4"/>
<path opacity="0.6" d="M342.947 410.584L331.802 411.134C330.942 411.177 330.181 410.611 329.966 409.759L318.205 361.132C317.934 360.024 318.746 358.992 319.865 358.937L331.009 358.387C331.869 358.345 332.631 358.911 332.845 359.763L344.607 408.389C344.834 409.499 344.065 410.529 342.947 410.584Z" fill="#678E8E"/>
<path d="M341.353 410.663L269.798 414.195C268.937 414.238 268.176 413.672 267.962 412.82L256.2 364.193C255.93 363.085 256.741 362.053 257.86 361.998L329.372 358.468C330.233 358.425 330.994 358.991 331.209 359.843L342.97 408.47C343.24 409.578 342.472 410.608 341.353 410.663Z" fill="#F0F4F4"/>
<path opacity="0.6" d="M302.01 385.733C301.438 387.066 302.067 388.225 303.382 388.225C303.439 388.225 303.554 388.225 303.611 388.225C302.067 389.964 299.723 391.181 297.665 391.123C294.864 391.065 293.549 388.747 294.807 385.907C296.007 383.067 299.323 380.865 302.124 380.923C303.897 380.981 305.097 381.908 305.383 383.357C304.068 383.415 302.582 384.4 302.01 385.733Z" fill="#678E8E"/>
<path d="M290.665 364.329C293.241 364.329 295.329 362.241 295.329 359.665C295.329 357.088 293.241 355 290.665 355C288.088 355 286 357.088 286 359.665C286 362.241 288.088 364.329 290.665 364.329Z" fill="#FFBE55"/>
<g opacity="0.7">
<path d="M96.1127 271H196V276.084H96.1127V271Z" fill="#AFB3B8"/>
<path d="M72.0009 271H96.1133V276.084H72.0009V271Z" fill="#D7DADC"/>
</g>
<g opacity="0.85">
<path d="M155.205 156.465L155.621 156.55L142.062 223.434L141.646 223.35L155.205 156.465Z" fill="#3F4249"/>
<path d="M138.326 133.906L140.098 220.817L139.682 220.826L137.91 133.915L138.326 133.906Z" fill="#3F4249"/>
<path d="M118.368 149.994L139.09 176.031L138.757 176.289L118.044 150.252L118.368 149.994Z" fill="#3F4249"/>
<path d="M131.485 240.058L133.565 236.981C135.644 233.88 136.742 230.23 136.726 226.499V219.096H144.703V226.499C144.687 230.23 145.793 233.88 147.864 236.981L149.944 240.058C152.082 243.282 153.513 246.915 154.162 250.726C154.802 254.537 154.644 258.441 153.687 262.186L151.358 271.336H130.063L127.733 262.186C126.802 258.438 126.652 254.539 127.293 250.731C127.941 246.924 129.364 243.29 131.477 240.058" fill="#6781B0"/>
<path d="M131.488 240.058L133.568 236.981C135.639 233.88 136.745 230.23 136.729 226.499V219.096H139.058V225.834C139.041 229.997 137.827 234.068 135.564 237.563C132.07 243.968 132.07 251.289 133.318 257.278C134.075 260.845 135.456 264.251 137.394 267.343L138.975 269.922C139.258 270.375 139.649 270.75 140.114 271.012C140.58 271.273 141.104 271.414 141.637 271.419H129.991L127.661 262.269C126.755 258.501 126.63 254.588 127.287 250.77C127.944 246.952 129.375 243.307 131.488 240.058Z" fill="#5C63AB"/>
<path d="M121.382 175.609L146.047 196.106L145.781 196.427L121.116 175.93L121.382 175.609Z" fill="#3F4249"/>
<path d="M144.049 213.438L165.844 192.808L165.594 192.559L143.716 213.105L144.049 213.438Z" fill="#3F4249"/>
<path d="M130.566 165.583L127.156 150.61C126.881 149.383 126.299 148.247 125.459 147.307C124.627 146.367 123.571 145.654 122.381 145.236C121.191 144.817 119.919 144.707 118.679 144.915C117.44 145.122 116.275 145.641 115.294 146.422C114.304 147.204 113.538 148.223 113.056 149.383C112.565 150.544 112.39 151.808 112.523 153.058C112.665 154.308 113.114 155.502 113.846 156.528C114.57 157.556 115.543 158.381 116.674 158.928L130.566 165.583Z" fill="#C8EF58"/>
<g opacity="0.3">
<g opacity="0.3">
<path opacity="0.3" d="M130.562 165.583L127.152 150.61C126.877 149.383 126.295 148.247 125.455 147.307C124.623 146.367 123.567 145.654 122.377 145.236C121.188 144.817 119.915 144.707 118.675 144.915C117.436 145.122 116.271 145.641 115.29 146.422C114.3 147.204 113.534 148.223 113.052 149.383C112.561 150.544 112.386 151.808 112.52 153.058C112.661 154.308 113.11 155.502 113.842 156.528C114.566 157.556 115.539 158.381 116.671 158.928L130.562 165.583Z" fill="white"/>
</g>
</g>
<path d="M112.522 152.381C112.522 153.768 112.921 155.127 113.67 156.293C114.427 157.458 115.5 158.383 116.764 158.952L130.656 165.607L115.35 146.475C114.435 147.154 113.695 148.048 113.204 149.077C112.713 150.106 112.472 151.24 112.522 152.381Z" fill="#C8EF58"/>
<path d="M138.474 158.927L148.29 138.63C149.089 136.969 149.455 135.131 149.355 133.29C149.255 131.448 148.681 129.663 147.7 128.102C146.718 126.54 145.362 125.253 143.748 124.36C142.135 123.468 140.321 123 138.474 123C136.628 123 134.814 123.468 133.2 124.36C131.587 125.253 130.222 126.54 129.249 128.102C128.268 129.663 127.694 131.448 127.594 133.29C127.494 135.131 127.86 136.969 128.658 138.63L138.474 158.927Z" fill="#C8EF58"/>
<g opacity="0.3">
<g opacity="0.3">
<path opacity="0.3" d="M138.478 158.927L148.294 138.63C149.093 136.969 149.459 135.131 149.359 133.29C149.259 131.448 148.685 129.663 147.704 128.102C146.722 126.54 145.366 125.253 143.752 124.36C142.138 123.468 140.325 123 138.478 123C136.632 123 134.818 123.468 133.204 124.36C131.591 125.253 130.226 126.54 129.253 128.102C128.271 129.663 127.697 131.448 127.598 133.29C127.498 135.131 127.864 136.969 128.662 138.63L138.478 158.927Z" fill="white"/>
</g>
</g>
<g opacity="0.3">
<g opacity="0.3">
<path opacity="0.3" d="M137.977 123.1L138.477 158.953L128.661 138.655C127.87 137.037 127.496 135.246 127.571 133.447C127.646 131.647 128.17 129.895 129.093 128.349C130.025 126.804 131.323 125.515 132.87 124.598C134.417 123.681 136.172 123.166 137.977 123.1Z" fill="white"/>
</g>
</g>
<path d="M149.374 185.987L163.682 169.017C164.855 167.626 165.653 165.96 166.003 164.176C166.352 162.392 166.244 160.548 165.686 158.817C165.129 157.085 164.148 155.524 162.817 154.28C161.494 153.035 159.872 152.148 158.108 151.702C156.345 151.255 154.498 151.264 152.743 151.727C150.979 152.19 149.374 153.093 148.059 154.349C146.745 155.606 145.772 157.177 145.231 158.913C144.69 160.649 144.599 162.494 144.965 164.275L149.374 185.987Z" fill="#C8EF58"/>
<g opacity="0.3">
<g opacity="0.3">
<path opacity="0.3" d="M144.884 164.276C144.526 162.498 144.618 160.658 145.167 158.926C145.708 157.195 146.681 155.631 147.995 154.377C149.309 153.123 150.915 152.222 152.67 151.757C154.425 151.291 156.264 151.277 158.027 151.715L149.293 185.904L144.884 164.276Z" fill="white"/>
</g>
</g>
<path d="M151.361 206.201L157.85 189.979C158.382 188.651 159.239 187.479 160.345 186.573C161.452 185.668 162.774 185.059 164.18 184.804C165.594 184.548 167.042 184.655 168.397 185.114C169.753 185.572 170.968 186.367 171.933 187.425C172.898 188.483 173.572 189.768 173.904 191.16C174.237 192.551 174.204 194.005 173.821 195.383C173.439 196.761 172.707 198.018 171.7 199.037C170.702 200.057 169.454 200.804 168.081 201.209L151.361 206.201Z" fill="#C8EF58"/>
<g opacity="0.3">
<g opacity="0.3">
<path opacity="0.3" d="M151.361 206.201L157.85 189.979C158.382 188.651 159.239 187.479 160.345 186.573C161.452 185.668 162.774 185.059 164.18 184.804C165.594 184.548 167.042 184.655 168.397 185.114C169.753 185.572 170.968 186.367 171.933 187.425C172.898 188.483 173.572 189.768 173.904 191.16C174.237 192.551 174.204 194.005 173.821 195.383C173.439 196.761 172.707 198.018 171.7 199.037C170.702 200.057 169.454 200.804 168.081 201.209L151.361 206.201Z" fill="white"/>
</g>
</g>
<g opacity="0.3">
<g opacity="0.3">
<path opacity="0.3" d="M171.664 187.07L151.367 206.203L157.855 189.982C158.379 188.689 159.211 187.544 160.276 186.649C161.349 185.753 162.622 185.135 163.986 184.847C165.35 184.56 166.764 184.611 168.104 184.999C169.443 185.387 170.666 186.098 171.664 187.07Z" fill="white"/>
</g>
</g>
<path d="M140.547 191.976L133.476 174.84C132.902 173.433 131.987 172.194 130.806 171.241C129.616 170.287 128.219 169.649 126.721 169.389C125.224 169.128 123.685 169.253 122.246 169.75C120.815 170.248 119.526 171.103 118.519 172.234C117.504 173.366 116.789 174.736 116.456 176.218C116.115 177.698 116.165 179.241 116.589 180.7C117.005 182.159 117.796 183.486 118.877 184.556C119.95 185.627 121.281 186.405 122.745 186.819L140.547 191.976Z" fill="#C8EF58"/>
<g opacity="0.3">
<g opacity="0.3">
<path opacity="0.3" d="M140.543 191.974L133.472 174.838C132.898 173.431 131.983 172.192 130.802 171.239C129.612 170.285 128.215 169.647 126.718 169.387C125.22 169.126 123.681 169.251 122.242 169.748C120.811 170.246 119.522 171.101 118.515 172.232C117.501 173.364 116.785 174.734 116.452 176.216C116.111 177.696 116.161 179.239 116.585 180.698C117.001 182.157 117.792 183.484 118.873 184.554C119.946 185.625 121.277 186.403 122.741 186.817L140.543 191.974Z" fill="white"/>
</g>
</g>
<path d="M139.724 213.023L139.891 212.69L106.2 194.223L106.034 194.555L139.724 213.023Z" fill="#3F4249"/>
<path d="M134.32 209.779L122.092 193.058C121.094 191.7 119.763 190.617 118.232 189.91C116.702 189.204 115.013 188.897 113.333 189.018C111.652 189.139 110.03 189.684 108.616 190.604C107.193 191.522 106.037 192.784 105.247 194.272C104.448 195.759 104.049 197.424 104.066 199.111C104.091 200.797 104.54 202.45 105.38 203.916C106.212 205.382 107.401 206.611 108.841 207.491C110.28 208.37 111.918 208.871 113.607 208.947L134.32 209.779Z" fill="#C8EF58"/>
<g opacity="0.3">
<g opacity="0.3">
<path opacity="0.3" d="M134.312 209.781L122.084 193.06C121.086 191.702 119.755 190.619 118.224 189.912C116.694 189.206 115.005 188.899 113.325 189.02C111.644 189.141 110.022 189.686 108.608 190.606C107.186 191.524 106.029 192.786 105.239 194.274C104.441 195.761 104.041 197.426 104.058 199.113C104.083 200.799 104.532 202.452 105.372 203.918C106.204 205.383 107.394 206.613 108.833 207.493C110.272 208.372 111.911 208.873 113.599 208.949L134.312 209.781Z" fill="white"/>
</g>
</g>
<path d="M104.873 203.017C105.63 204.719 106.852 206.174 108.391 207.218C109.939 208.262 111.744 208.852 113.607 208.923L134.32 209.755L105.205 194.199C104.473 195.545 104.066 197.041 104.007 198.57C103.949 200.099 104.249 201.62 104.873 203.017Z" fill="#C8EF58"/>
<g opacity="0.3">
<g opacity="0.3">
<path opacity="0.3" d="M133.484 174.839L140.555 191.976L118.51 172.261C119.534 171.147 120.815 170.307 122.246 169.818C123.676 169.33 125.207 169.209 126.696 169.465C128.185 169.722 129.591 170.348 130.772 171.287C131.962 172.227 132.893 173.448 133.484 174.839Z" fill="white"/>
</g>
</g>
</g>
<g opacity="0.95">
<path d="M331.123 63.3326C329.557 63.3326 327.992 63.4992 326.492 63.7991C325.326 58.0351 321.628 53.1373 316.397 50.4719C311.166 47.8065 305.002 47.7065 299.671 50.1721C294.84 36.9115 280.18 30.0481 266.92 34.8791C253.659 39.7102 246.796 54.3701 251.627 67.6306C239.999 67.9971 230.803 77.626 231.003 89.2539C231.17 100.882 240.632 110.211 252.293 110.244H331.19C344.151 110.244 354.646 99.7491 354.646 86.7884C354.646 73.8278 344.084 63.3326 331.123 63.3326Z" fill="#FFBE55"/>
<path d="M337.452 60.0006C335.886 60.0006 334.32 60.1672 332.82 60.467C331.654 54.703 327.956 49.8053 322.725 47.1399C317.494 44.4745 311.33 44.3745 305.999 46.84C301.168 33.5795 286.509 26.716 273.248 31.5471C259.987 36.3782 253.124 51.0381 257.955 64.2986C246.327 64.6651 237.131 74.294 237.331 85.9219C237.498 97.5498 246.96 106.879 258.621 106.912H337.518C350.479 106.912 360.974 96.417 360.974 83.4564C360.974 70.4957 350.412 60.0006 337.452 60.0006Z" stroke="#FF9B21" stroke-miterlimit="10"/>
</g>
<path d="M291 110L291 356" stroke="#FFBE55" stroke-width="4" stroke-miterlimit="10" stroke-dasharray="12 12"/>
<defs>
<linearGradient id="paint0_linear" x1="389.5" y1="73" x2="300" y2="421.5" gradientUnits="userSpaceOnUse">
<stop stop-color="#E100FF"/>
<stop offset="1" stop-color="#E100FF" stop-opacity="0"/>
</linearGradient>
</defs>
</svg>
