<svg width="600" height="600" viewBox="0 0 600 600" fill="none" xmlns="http://www.w3.org/2000/svg">
<g clip-path="url(#clip0)">
<path d="M459.595 116.514C513.435 172.078 560.71 245.581 556.77 324.771C552.831 404.399 498.115 490.152 414.072 540.029C330.029 589.906 216.658 603.906 147.935 558.405C79.2121 512.903 54.2618 407.899 45.945 315.146C37.6283 221.955 45.5073 141.452 87.9666 88.5129C129.988 35.5735 207.028 9.7601 275.751 15.8853C344.473 22.448 405.317 60.9494 459.595 116.514Z" fill="#7F00FF"/>
<path d="M459.595 116.514C513.435 172.078 560.71 245.581 556.77 324.771C552.831 404.399 498.115 490.152 414.072 540.029C330.029 589.906 216.658 603.906 147.935 558.405C79.2121 512.903 54.2618 407.899 45.945 315.146C37.6283 221.955 45.5073 141.452 87.9666 88.5129C129.988 35.5735 207.028 9.7601 275.751 15.8853C344.473 22.448 405.317 60.9494 459.595 116.514Z" fill="url(#paint0_linear)"/>
<path d="M503.811 544H95.1888C95.0755 544 95 543.8 95 543.5C95 543.2 95.0755 543 95.1888 543H503.811C503.924 543 504 543.2 504 543.5C504 543.8 503.924 544 503.811 544Z" fill="#413A51"/>
<g opacity="0.85">
<path fill-rule="evenodd" clip-rule="evenodd" d="M309.998 229.999C327.543 229.999 341.766 221.87 341.766 211.841C341.766 201.813 327.543 193.684 309.998 193.684C292.453 193.684 278.23 201.813 278.23 211.841C278.23 221.87 292.453 229.999 309.998 229.999Z" fill="#FCFBF6"/>
<path fill-rule="evenodd" clip-rule="evenodd" d="M347 224.351C347 202.066 330.435 184 310 184C289.565 184 273 202.066 273 224.351" fill="#DDE3E9"/>
<rect x="308" y="15" width="5" height="192" fill="#DDE3E9"/>
</g>
<path fill-rule="evenodd" clip-rule="evenodd" d="M456 575.266C498.526 575.266 533 542.359 533 501.766C533 461.173 498.526 428.266 456 428.266C413.474 428.266 379 461.173 379 501.766C379 542.359 413.474 575.266 456 575.266Z" fill="#FF8FBC"/>
<path fill-rule="evenodd" clip-rule="evenodd" d="M286.841 564.266C306.557 540.19 319.897 522.341 326.862 510.719C338.787 490.82 348.547 473.114 351.627 466.35C358.972 450.221 334.718 442.668 329.229 450.191C320.921 461.578 303.178 497.409 276 557.683L286.841 564.266Z" fill="#B28B67"/>
<path fill-rule="evenodd" clip-rule="evenodd" d="M327.242 557.266L363.935 464.902C371.783 448.065 333.884 436.998 328.117 444.833C315.023 462.623 283.901 532.8 280 538.1L327.242 557.266Z" fill="#2F3676"/>
<path fill-rule="evenodd" clip-rule="evenodd" d="M424.959 538.749C417.812 528.322 391.817 493.243 377.659 478.728C373.59 474.558 369.62 470.554 365.865 466.824C354.704 455.736 332.478 474.374 343.619 484.473C371.362 509.625 411.842 543.58 415.224 546.607C419.964 550.85 429.45 545.302 424.959 538.749Z" fill="#B28B67"/>
<path fill-rule="evenodd" clip-rule="evenodd" d="M420.335 534.451C421.028 533.507 422.369 533.284 423.266 534.037C424.9 535.412 427.251 537.531 428.1 539C429.452 541.343 431.266 546.288 431.266 546.288C428.549 547.856 382.421 574.488 382.421 574.488C382.421 574.488 376.883 569.293 380.695 566.423C384.508 563.553 386.987 561.582 386.987 561.582L403.847 538.353C404.178 537.897 404.82 537.804 405.266 538.148L408.769 540.846C408.769 540.846 413.59 540.425 415.964 539.054C417.41 538.22 419.175 536.034 420.335 534.451Z" fill="#FCFCFC"/>
<path fill-rule="evenodd" clip-rule="evenodd" d="M292.55 559.55C293.622 559.078 294.896 559.556 295.295 560.656C296.023 562.664 297 565.674 297 567.371C297 570.076 296.099 575.266 296.099 575.266C292.961 575.266 239.697 575.266 239.697 575.266C239.697 575.266 237.498 567.997 242.235 567.418C246.972 566.838 250.105 566.371 250.105 566.371L276.32 554.685C276.835 554.455 277.437 554.696 277.652 555.217L279.337 559.304C279.337 559.304 283.722 561.35 286.463 561.35C288.132 561.35 290.754 560.34 292.55 559.55Z" fill="#FCFCFC"/>
<path fill-rule="evenodd" clip-rule="evenodd" d="M377.137 469.516C377.137 469.516 422.882 462.064 438.419 459.324C467.942 454.119 476.551 438.231 471.461 403.568L417.065 403.568C406.267 406.687 326.832 442.138 326.832 442.138C317.304 446.868 319.078 460.814 320.82 465.408C320.926 465.689 369.007 547.979 369.007 547.979L413.505 519.632L377.053 472.857C377.053 472.857 375.609 469.948 377.137 469.516Z" fill="#5C63AB"/>
<path fill-rule="evenodd" clip-rule="evenodd" d="M442.317 287.85C436.11 292.168 429.885 294.466 426.854 293.893C419.254 292.456 416.776 265.162 421.852 254.005C426.928 242.848 456.347 236.202 459.244 257.459C460.25 264.836 457.571 271.655 453.327 277.353L464.09 315.24L440.141 316.81L442.317 287.85Z" fill="#B28B67"/>
<path fill-rule="evenodd" clip-rule="evenodd" d="M439.362 261.131C437.089 258.182 434.946 255.96 432.269 254.763C421.752 255.619 420.395 253.813 419.979 247.451C421.599 246.123 427.465 243.681 434.147 242.664C437.511 241.459 441.583 241.377 445.602 242.757C450.521 243.811 454.803 246.493 456.971 251.899C464.245 262.747 460.054 274.811 453.633 279.259C451.716 277.268 450.03 275.327 448.516 273.462C449.558 272.302 450.149 270.739 450.039 269.061C449.822 265.754 446.966 263.249 443.66 263.466C443.417 263.482 443.178 263.512 442.944 263.556C443.066 267.7 443.371 281.727 442.08 286.69C440.559 292.543 429.586 294.674 425.727 294.927C422.394 295.145 422.301 291.981 422.234 289.714C422.224 289.387 422.215 289.079 422.197 288.803C422.159 288.225 422.911 288.177 423.76 288.123C424.863 288.053 426.131 287.973 426.048 286.707C425.957 285.328 423.982 284.395 422.215 283.56C421.112 283.039 420.09 282.557 419.657 282.028C418.291 280.359 417.715 278.025 419.602 277.901C420.634 277.833 422.088 278.335 423.838 278.939C426.479 279.851 429.794 280.995 433.343 280.762C439.206 280.378 439.361 261.369 439.362 261.131Z" fill="#191847"/>
<path fill-rule="evenodd" clip-rule="evenodd" d="M363.5 405.45L393.654 383.279L400.32 399.778L370.459 412.176C362.014 422.109 357.292 426.25 356.293 424.598C355.45 423.206 356.109 421.903 356.715 420.702C357.188 419.767 357.629 418.894 357.305 418.09C356.563 416.254 350.89 416.448 345.515 416.861C340.139 417.275 341.706 414.88 343.002 413.698C348.489 410.409 355.322 407.66 363.5 405.45ZM521.633 444.516C518.863 438.889 509.429 384.045 509.429 384.045L489.675 384.122C489.675 384.122 507.971 443.262 509.429 446.88C511.324 451.581 508.106 458.41 505.924 463.042C505.586 463.758 505.273 464.422 505.008 465.017C508.036 466.373 509.49 464.734 511.023 463.005C512.755 461.053 514.588 458.987 518.901 460.997C520.568 461.773 522.145 462.691 523.686 463.587C529.008 466.685 533.897 469.531 540.548 465.421C541.602 464.77 542.758 462.317 539.966 460.4C533.011 455.625 522.987 447.267 521.633 444.516Z" fill="#B28B67"/>
<path fill-rule="evenodd" clip-rule="evenodd" d="M453.289 301.047L445.115 299.643C414.786 325.877 402.329 376.274 365.154 402.971L374.101 414.077C438.594 406.081 454.579 344.609 453.289 301.047Z" fill="#E87613"/>
<path fill-rule="evenodd" clip-rule="evenodd" d="M488.922 403.904C488.922 403.904 439.758 403.904 416.595 403.904C413.29 403.904 413.912 399.125 414.39 396.714C419.904 368.886 441.428 338.888 441.428 299.276L462.291 296C479.547 323.788 485.514 358.002 488.922 403.904Z" fill="#DDE3E9"/>
<path fill-rule="evenodd" clip-rule="evenodd" d="M486.152 322.987C489.948 322.716 493.375 321.125 495.541 317.212C503.166 303.435 500.412 295.85 492.263 293.357C487.782 291.986 483.568 292.922 478.523 294.042C474.393 294.959 469.707 295.999 463.863 295.999C463.297 295.999 462.782 296.037 462.314 296.11L455.392 296.505C455.392 296.505 427.284 391.887 439.888 423.78H497.056C500.307 431.597 503.494 438.418 506.498 443.657H522.01C523.678 389.628 503.249 348.055 486.152 322.987Z" fill="#FF9B21"/>
<path fill-rule="evenodd" clip-rule="evenodd" d="M497.055 423.781C492.79 413.524 488.416 401.553 484.207 389.189C482.641 402.805 480.032 416.48 475.688 423.781H497.055Z" fill="black" fill-opacity="0.1"/>
<path d="M438.985 428.723L392.006 431.042C391.625 431.061 391.308 431.411 391.327 431.792L391.386 432.983C391.404 433.364 391.754 433.681 392.136 433.662L439.114 431.343C439.495 431.324 439.812 430.974 439.793 430.593L439.735 429.402C439.716 429.021 439.413 428.702 438.985 428.723Z" fill="#21252B"/>
<path opacity="0.6" d="M438.985 428.723L392.006 431.042C391.625 431.061 391.308 431.411 391.327 431.792L391.386 432.983C391.404 433.364 391.754 433.681 392.136 433.662L439.114 431.343C439.495 431.324 439.812 430.974 439.793 430.593L439.735 429.402C439.716 429.021 439.413 428.702 438.985 428.723Z" fill="black"/>
<path d="M407.301 430.285L325.398 434.328C325.017 434.347 324.7 434.697 324.719 435.078L324.778 436.269C324.797 436.65 325.147 436.968 325.528 436.949L407.43 432.906C407.812 432.887 408.129 432.537 408.11 432.156L408.051 430.965C407.984 430.586 407.682 430.266 407.301 430.285Z" fill="#21252B"/>
<g opacity="0.6">
<path opacity="0.6" d="M326.468 434.755L409.848 430.639C409.991 430.632 410.081 430.532 410.074 430.389C410.067 430.246 409.967 430.155 409.824 430.162L326.445 434.278C326.302 434.285 326.211 434.385 326.218 434.528C326.225 434.671 326.373 434.76 326.468 434.755Z" fill="black"/>
</g>
<path d="M407.491 430.276L395.151 430.885C394.198 430.932 393.355 430.305 393.117 429.362L380.094 375.517C379.795 374.29 380.693 373.147 381.932 373.086L394.272 372.477C395.225 372.43 396.068 373.057 396.306 374L409.329 427.845C409.581 429.075 408.73 430.215 407.491 430.276Z" fill="#21252B"/>
<path opacity="0.6" d="M407.491 430.276L395.151 430.885C394.198 430.932 393.355 430.305 393.117 429.362L380.094 375.517C379.795 374.29 380.693 373.147 381.932 373.086L394.272 372.477C395.225 372.43 396.068 373.057 396.306 374L409.329 427.845C409.581 429.075 408.73 430.215 407.491 430.276Z" fill="black"/>
<path d="M405.729 430.365L326.495 434.276C325.542 434.323 324.699 433.696 324.461 432.752L311.438 378.907C311.138 377.68 312.037 376.538 313.276 376.476L392.462 372.568C393.415 372.521 394.258 373.148 394.496 374.091L407.519 427.936C407.819 429.163 406.968 430.304 405.729 430.365Z" fill="#21252B"/>
<path opacity="0.6" d="M362.166 402.759C361.533 404.235 362.23 405.519 363.686 405.519C363.749 405.519 363.876 405.519 363.939 405.519C362.23 407.444 359.634 408.791 357.355 408.727C354.253 408.663 352.797 406.096 354.19 402.952C355.519 399.807 359.191 397.369 362.293 397.433C364.255 397.497 365.585 398.524 365.901 400.128C364.445 400.192 362.799 401.283 362.166 402.759Z" fill="black"/>
<g opacity="0.85">
<path d="M211.361 436.684L176.162 474.873L176.392 404.629H175.472L175.395 438.678L145.641 408.387L145.027 409L175.395 439.981L175.165 503.631H176.085L176.162 476.177L211.974 437.297L211.361 436.684Z" fill="#21252B"/>
<path d="M149.094 474.796L148.48 475.41L163.971 489.98L166.425 503.707L167.269 503.554L157.529 448.646L156.609 448.8L163.741 488.523L149.094 474.796Z" fill="#21252B"/>
<path d="M160.521 543.201H182.376C186.441 543.201 189.815 539.903 189.815 535.762V506.852H153.082V535.762C153.082 539.827 156.38 543.201 160.521 543.201Z" fill="#61616D"/>
<path d="M175.935 404.705C188.557 404.705 198.787 394.474 198.787 381.853C198.787 369.232 188.557 359 175.935 359C163.312 359 153.082 369.232 153.082 381.853C153.082 394.474 163.312 404.705 175.935 404.705Z" fill="#E67E1D" fill-opacity="0.67"/>
<path d="M155.455 450.948C164.473 450.948 171.789 443.635 171.789 434.613C171.789 425.593 164.473 418.279 155.455 418.279C146.437 418.279 139.121 425.593 139.121 434.613C139.121 443.635 146.437 450.948 155.455 450.948Z" fill="#E67E1D" fill-opacity="0.67"/>
<g opacity="0.3">
<path opacity="0.3" d="M155.455 450.948C164.473 450.948 171.789 443.635 171.789 434.613C171.789 425.593 164.473 418.279 155.455 418.279C146.437 418.279 139.121 425.593 139.121 434.613C139.121 443.635 146.437 450.948 155.455 450.948Z" fill="white"/>
</g>
<g opacity="0.3">
<path opacity="0.3" d="M175.935 404.705C188.557 404.705 198.787 394.474 198.787 381.853C198.787 369.232 188.557 359 175.935 359C163.312 359 153.082 369.232 153.082 381.853C153.082 394.474 163.312 404.705 175.935 404.705Z" fill="white"/>
</g>
<path d="M140.888 413.984C146.263 413.984 150.627 409.624 150.627 404.245C150.627 398.866 146.263 394.506 140.888 394.506C135.512 394.506 131.148 398.866 131.148 404.245C131.148 409.624 135.512 413.984 140.888 413.984Z" fill="#E67E1D" fill-opacity="0.67"/>
<path d="M140.658 479.091C147.053 479.091 152.237 473.906 152.237 467.511C152.237 461.116 147.053 455.932 140.658 455.932C134.262 455.932 129.078 461.116 129.078 467.511C129.078 473.906 134.262 479.091 140.658 479.091Z" fill="#E67E1D" fill-opacity="0.67"/>
<path d="M202.617 461.759C210.792 461.759 217.417 455.133 217.417 446.959C217.417 438.785 210.792 432.158 202.617 432.158C194.442 432.158 187.816 438.785 187.816 446.959C187.816 455.133 194.442 461.759 202.617 461.759Z" fill="#E67E1D" fill-opacity="0.67"/>
<path d="M190.582 502.941H152.316C151.242 502.941 150.398 503.785 150.398 504.859C150.398 505.932 151.242 506.776 152.316 506.776H190.582C191.656 506.776 192.499 505.932 192.499 504.859C192.499 503.785 191.656 502.941 190.582 502.941Z" fill="#61616D"/>
<path d="M153.082 381.853C153.082 369.199 163.358 359 175.935 359V404.782C163.281 404.705 153.082 394.506 153.082 381.853Z" fill="#E67E1D" fill-opacity="0.67"/>
<path d="M157.837 450.794C149.018 452.098 140.812 446.116 139.279 437.297C137.822 428.632 143.497 420.35 152.085 418.586L157.837 450.794Z" fill="#E67E1D" fill-opacity="0.67"/>
<path opacity="0.3" d="M133.985 411.148C130.15 407.39 130.074 401.179 133.908 397.344C133.908 397.344 133.985 397.268 134.061 397.268L147.712 411.224C143.954 414.905 137.819 414.905 133.985 411.148Z" fill="black"/>
<path opacity="0.3" d="M148.863 475.64C144.338 480.241 136.976 480.241 132.452 475.716C127.927 471.269 127.851 463.983 132.222 459.459L149.093 475.333C149.093 475.486 149.016 475.563 148.863 475.64Z" fill="black"/>
<path d="M189.737 506.852H156.302C155.228 506.852 154.385 506.008 154.385 504.935C154.385 503.861 155.228 503.018 156.302 503.018H152.237C151.164 503.018 150.32 503.861 150.32 504.935C150.32 506.008 151.164 506.852 152.237 506.852H153.004V507.465V535.763C153.004 539.827 156.302 543.201 160.443 543.201H172.099C172.253 543.201 172.329 543.201 172.329 543.201C167.115 543.201 162.667 539.52 161.67 534.459L156.379 507.465H189.66V506.852H189.737Z" fill="#3F4249"/>
<path opacity="0.3" d="M212.666 436.069C212.589 435.993 212.513 435.993 212.513 435.916L192.574 457.772L192.651 457.848C198.632 463.37 208.065 462.986 213.586 457.005C219.031 450.947 218.648 441.591 212.666 436.069Z" fill="black"/>
</g>
</g>
<defs>
<linearGradient id="paint0_linear" x1="407" y1="49" x2="147" y2="467.5" gradientUnits="userSpaceOnUse">
<stop stop-color="#E100FF"/>
<stop offset="0.807292" stop-color="#E100FF" stop-opacity="0"/>
</linearGradient>
<clipPath id="clip0">
<rect width="600" height="600" fill="white"/>
</clipPath>
</defs>
</svg>
