<svg width="600" height="600" viewBox="0 0 600 600" fill="none" xmlns="http://www.w3.org/2000/svg">
<g clip-path="url(#clip0)">
<path d="M484.41 60.1461C530.147 74.9474 562.433 125.07 568.15 175.866C573.531 226.997 552.343 278.802 533.51 322.87C514.677 367.274 498.534 403.604 473.648 433.207C448.761 462.809 415.13 485.684 375.11 506.877C335.09 528.07 288.679 547.581 240.587 545.899C192.159 544.217 142.05 521.678 103.038 484.675C64.0266 447.672 36.4495 396.203 31.7412 343.726C27.0329 290.912 45.1934 236.753 73.7795 193.358C102.702 149.627 142.05 116.66 185.097 100.85C227.808 84.7029 274.218 85.7121 327.018 75.9566C379.482 66.2012 438.672 45.3448 484.41 60.1461Z" fill="#FF416C"/>
<path d="M484.41 60.1461C530.147 74.9474 562.433 125.07 568.15 175.866C573.531 226.997 552.343 278.802 533.51 322.87C514.677 367.274 498.534 403.604 473.648 433.207C448.761 462.809 415.13 485.684 375.11 506.877C335.09 528.07 288.679 547.581 240.587 545.899C192.159 544.217 142.05 521.678 103.038 484.675C64.0266 447.672 36.4495 396.203 31.7412 343.726C27.0329 290.912 45.1934 236.753 73.7795 193.358C102.702 149.627 142.05 116.66 185.097 100.85C227.808 84.7029 274.218 85.7121 327.018 75.9566C379.482 66.2012 438.672 45.3448 484.41 60.1461Z" fill="url(#paint0_linear)"/>
<g opacity="0.4">
<path opacity="0.7" d="M587.89 311.145C583.088 347.434 558.009 379.467 524.802 387.186C491.708 394.957 450.324 378.476 432.767 347.818C415.21 317.161 421.367 272.276 446.805 244.201C472.355 216.178 517.023 205.026 547.15 219.749C577.278 234.472 592.641 274.967 587.89 311.145Z" fill="#B75ED6"/>
</g>
<path fill-rule="evenodd" clip-rule="evenodd" d="M390.559 361.59L362.026 455.356L348.264 525.857L335.37 525.69L350.375 361.07L390.559 361.59Z" fill="#997659"/>
<path fill-rule="evenodd" clip-rule="evenodd" d="M402.831 361.749C400.292 410.619 400.699 437.298 401.068 441.745C401.437 446.193 403.473 475.976 419.3 528.268L405.889 528.095C384.682 477.851 377.439 448.001 375.018 441.408C372.596 434.815 365.539 408.051 355.337 361.134L402.831 361.749Z" fill="#B28B67"/>
<path fill-rule="evenodd" clip-rule="evenodd" d="M391.145 361.598C383.621 393.893 370.663 445.431 352.272 516.214L333.413 515.97C332.963 443.068 339.51 395.175 350.216 361.068L391.145 361.598Z" fill="#69A1AC"/>
<path fill-rule="evenodd" clip-rule="evenodd" d="M402.928 361.75C400.429 410.621 404.642 458.854 418.865 517.837L398.743 517.577C377.487 468.078 362.416 419.942 352.452 361.096L402.928 361.75Z" fill="#89C5CC"/>
<path fill-rule="evenodd" clip-rule="evenodd" d="M421.088 537.988L420.564 527.298C420.532 526.658 419.913 526.211 419.282 526.322C412.833 527.45 404.242 524.346 404.242 524.346C395.539 530.343 383.216 533.115 378.22 534.044C377.037 534.264 376.264 535.447 376.577 536.609L377.399 539.66L404.039 540.004L419.579 540.206L421.088 537.988Z" fill="#191847"/>
<path fill-rule="evenodd" clip-rule="evenodd" d="M350.998 537.08L350.474 526.39C350.442 525.749 349.824 525.303 349.192 525.414C342.743 526.542 334.152 523.438 334.152 523.438C325.449 529.435 313.126 532.207 308.13 533.136C306.948 533.356 306.174 534.539 306.487 535.701L307.31 538.751L333.949 539.096L349.489 539.297L350.998 537.08Z" fill="#191847"/>
<path fill-rule="evenodd" clip-rule="evenodd" d="M373.951 255.844C369.218 258.908 364.521 260.466 362.276 259.963C356.648 258.703 355.481 238.299 359.543 230.11C363.604 221.922 385.695 217.702 387.325 233.617C387.89 239.14 385.724 244.155 382.419 248.296L389.496 276.801L371.608 277.374L373.951 255.844Z" fill="#B28B67"/>
<path fill-rule="evenodd" clip-rule="evenodd" d="M360.612 226.952C360.738 225.974 360.412 225.506 364.236 222.641C368.059 219.775 374.27 216.341 380.675 217.544C388.987 219.105 392.44 224.445 395.708 226.99C398.653 229.284 401.541 229.47 403.342 232.376C405.143 235.282 406.323 243.772 404.948 247.206C403.051 251.943 399.056 253.33 396.153 254.77C391.174 257.24 383.955 255.031 383.769 254.633C382.331 251.552 374.845 242.97 370.394 239.407C367.121 236.787 360.023 231.541 360.612 226.952Z" fill="#9C9FBA"/>
<mask id="mask0" mask-type="alpha" maskUnits="userSpaceOnUse" x="360" y="217" width="46" height="39">
<path fill-rule="evenodd" clip-rule="evenodd" d="M360.612 226.952C360.738 225.974 360.412 225.506 364.236 222.641C368.059 219.775 374.27 216.341 380.675 217.544C388.987 219.105 392.44 224.445 395.708 226.99C398.653 229.284 401.541 229.47 403.342 232.376C405.143 235.282 406.323 243.772 404.948 247.206C403.051 251.943 399.056 253.33 396.153 254.77C391.174 257.24 383.955 255.031 383.769 254.633C382.331 251.552 374.845 242.97 370.394 239.407C367.121 236.787 360.023 231.541 360.612 226.952Z" fill="white"/>
</mask>
<g mask="url(#mask0)">
<path fill-rule="evenodd" clip-rule="evenodd" d="M385.887 248.731C394.103 237.908 395.708 225.122 395.708 225.122L398.337 226.669C398.337 226.669 395.613 240.673 385.887 248.731ZM382.819 254.632C396.272 242.026 399.135 228.252 399.135 228.252L402.143 229.035C402.143 229.035 398.526 244.451 382.819 254.632Z" fill="black" fill-opacity="0.2"/>
</g>
<path fill-rule="evenodd" clip-rule="evenodd" d="M301.293 271.452L329.784 279.147L322.905 291.365L300.577 279.049C290.305 278.724 285.431 277.847 285.956 276.42C286.399 275.216 287.526 274.981 288.563 274.765C289.372 274.597 290.126 274.44 290.462 273.845C291.227 272.485 288.316 269.083 285.416 265.972C282.516 262.861 284.762 262.65 286.128 262.868C290.853 264.635 295.908 267.496 301.293 271.452ZM310.377 347.014L333.668 328.891L339.286 341.738L316.012 352.158C309.571 360.166 305.938 363.531 305.114 362.252C304.419 361.174 304.91 360.133 305.362 359.174C305.714 358.428 306.043 357.73 305.769 357.105C305.144 355.675 300.675 355.952 296.445 356.396C292.216 356.84 293.398 354.92 294.394 353.96C298.649 351.249 303.977 348.934 310.377 347.014Z" fill="#B28B67"/>
<path fill-rule="evenodd" clip-rule="evenodd" d="M369.289 280.84C357.013 305.345 338.805 324.374 312.196 344.37L322.797 355.673C352.791 343.565 368.598 336.324 375.818 313.294C377.63 307.514 378.499 289.225 379.413 279.59L369.289 280.84Z" fill="#5920A2"/>
<path fill-rule="evenodd" clip-rule="evenodd" d="M407.731 360.272L350.334 361.871C350.334 361.871 368.179 301.85 367.984 279.672C367.977 278.918 369.332 277.552 369.952 277.709C376.758 279.428 384.364 275.88 384.364 275.88C398.58 297.385 404.037 324.198 407.731 360.272Z" fill="#F2F2F2"/>
<path fill-rule="evenodd" clip-rule="evenodd" d="M370.893 309.669C363 348.372 364.291 379.838 384.082 379.287L414.686 378.434C418.636 345.633 404.6 300.697 392.12 278.183C391.644 277.323 390.635 275.705 388.367 275.768L379.474 276.016C379.471 276.028 379.467 276.04 379.463 276.052C376.788 276.148 373.844 276.328 370.656 276.523C354.241 277.526 331.354 278.925 305.346 271.368L302.729 286.639C326.413 300.955 350.295 311.89 370.893 309.669Z" fill="#8C1FCF"/>
<path d="M554.809 539H141.191C141.076 539 141 539.4 141 540C141 540.6 141.076 541 141.191 541H554.809C554.924 541 555 540.6 555 540C555 539.4 554.924 539 554.809 539Z" fill="#413A51"/>
<path opacity="0.7" d="M213.042 309.789L183.199 540H177L206.932 308.908L213.042 309.789Z" fill="#413A51"/>
<path d="M217.962 240.055L194.938 237L240.057 425.579L262.948 415.882L217.962 240.055Z" fill="#CCE9FF"/>
<path d="M194.937 237L190.332 241.871L234.743 425.579H240.056L194.937 237Z" fill="#B1DFFC"/>
<path opacity="0.85" d="M240.628 430.625H232.613V424.47H239.476L265.246 414.375L264.67 421.194L240.628 430.625Z" fill="#413A51"/>
<path opacity="0.85" d="M267.631 539.156H262.239L236 427.177L241.164 426L267.631 539.156Z" fill="#413A51"/>
<path opacity="0.85" d="M293.5 540H288.996L260 419.562L264 418L293.5 540Z" fill="#413A51"/>
<path opacity="0.2" d="M220.973 333.038C219.954 330.692 213.047 270.828 213.047 270.828L232.662 320.685L220.973 333.038Z" fill="#B75ED6"/>
<path opacity="0.2" d="M242.46 364.728C245.634 363.913 246.02 354.746 243.324 344.255C240.628 333.763 235.869 325.919 232.696 326.734C229.522 327.55 229.135 336.716 231.831 347.208C234.528 357.7 239.286 365.544 242.46 364.728Z" fill="#B75ED6"/>
<rect opacity="0.45" x="194.361" y="44.6856" width="88.7897" height="88.7897" rx="8" transform="rotate(45.8177 194.361 44.6856)" stroke="#B75ED6" stroke-width="8"/>
</g>
<defs>
<linearGradient id="paint0_linear" x1="441.827" y1="182.73" x2="215.669" y2="470.064" gradientUnits="userSpaceOnUse">
<stop stop-color="#FF4B2B"/>
<stop offset="1" stop-color="#FF4B2B" stop-opacity="0"/>
</linearGradient>
<clipPath id="clip0">
<rect width="600" height="600" fill="white"/>
</clipPath>
</defs>
</svg>
