<svg width="600" height="600" viewBox="0 0 600 600" fill="none" xmlns="http://www.w3.org/2000/svg">
<g clip-path="url(#clip0)">
<path d="M417.825 60.8103C454.221 92.4641 471.328 145.948 489.89 199.432C508.088 252.916 527.378 306.764 525.922 366.797C524.467 426.83 501.537 492.684 455.313 535.253C409.09 577.822 339.208 596.378 282.794 577.822C226.379 559.266 183.795 502.872 152.858 455.573C121.557 408.274 102.267 369.708 90.2561 329.322C77.8813 288.936 72.7858 246.731 74.2417 195.794C75.6975 145.22 83.3408 85.1873 117.19 52.442C150.674 19.6967 210.001 14.2392 267.507 16.4222C325.378 18.6052 381.428 29.1565 417.825 60.8103Z" fill="#0072FF"/>
<path d="M417.825 60.8103C454.221 92.4641 471.328 145.948 489.89 199.432C508.088 252.916 527.378 306.764 525.922 366.797C524.467 426.83 501.537 492.684 455.313 535.253C409.09 577.822 339.208 596.378 282.794 577.822C226.379 559.266 183.795 502.872 152.858 455.573C121.557 408.274 102.267 369.708 90.2561 329.322C77.8813 288.936 72.7858 246.731 74.2417 195.794C75.6975 145.22 83.3408 85.1873 117.19 52.442C150.674 19.6967 210.001 14.2392 267.507 16.4222C325.378 18.6052 381.428 29.1565 417.825 60.8103Z" fill="url(#paint0_linear)"/>
<g opacity="0.75">
<path d="M250.6 100.3C250.6 81.6292 236.497 66.2437 218.307 64.2404V64H214.3C194.267 64 178 80.2669 178 100.3C178 120.333 194.267 136.6 214.3 136.6H218.307V136.36C236.497 134.356 250.6 118.971 250.6 100.3Z" fill="#69A1AC"/>
<path d="M218.308 136.6C238.355 136.6 254.608 120.348 254.608 100.3C254.608 80.2525 238.355 64 218.308 64C198.259 64 182.008 80.2525 182.008 100.3C182.008 120.348 198.259 136.6 218.308 136.6Z" fill="#7B7C8E"/>
<path d="M218.305 132.593C236.14 132.593 250.598 118.134 250.598 100.299C250.598 82.4642 236.14 68.0059 218.305 68.0059C200.47 68.0059 186.012 82.4642 186.012 100.299C186.012 118.134 200.47 132.593 218.305 132.593Z" fill="white"/>
<path d="M218.305 132.593C236.14 132.593 250.598 118.134 250.598 100.299C250.598 82.4642 236.14 68.0059 218.305 68.0059C200.47 68.0059 186.012 82.4642 186.012 100.299C186.012 118.134 200.47 132.593 218.305 132.593Z" fill="#7B7C8E"/>
<path opacity="0.9" d="M218.305 132.593C236.14 132.593 250.598 118.134 250.598 100.299C250.598 82.4642 236.14 68.0059 218.305 68.0059C200.47 68.0059 186.012 82.4642 186.012 100.299C186.012 118.134 200.47 132.593 218.305 132.593Z" fill="white"/>
<path d="M218.31 68.0059C217.749 68.0059 217.188 68.0059 216.547 68.086C233.535 68.9675 247.077 83.0708 247.077 100.299C247.077 117.528 233.535 131.631 216.547 132.512C217.108 132.512 217.669 132.593 218.31 132.593C236.179 132.593 250.603 118.169 250.603 100.299C250.603 82.4297 236.179 68.0059 218.31 68.0059Z" fill="#69A1AC"/>
<path d="M218.629 102.784L207.891 81.4689C207.491 80.6676 207.811 79.6259 208.612 79.2252C209.414 78.8246 210.455 79.1451 210.856 79.9464L220.071 98.2968L232.332 92.2868C233.133 91.8862 234.175 92.2067 234.575 93.0882C234.976 93.8895 234.655 94.9312 233.774 95.3319L218.629 102.784Z" fill="#7B7C8E"/>
<path opacity="0.5" d="M245.954 116.889C248.919 112.001 250.602 106.311 250.602 100.221C250.602 82.3516 236.178 67.9277 218.308 67.9277C217.427 67.9277 216.546 68.0079 215.664 68.0079L245.954 116.889Z" fill="white"/>
<path opacity="0.5" d="M210.778 68.8887C209.176 69.2893 207.653 69.7701 206.211 70.331L239.626 124.501C240.908 123.379 242.11 122.097 243.232 120.735L210.778 68.8887Z" fill="white"/>
</g>
<path fill-rule="evenodd" clip-rule="evenodd" d="M159.426 393.084L188.068 483.121L201.943 559.693H212.822L198.161 393.084H159.426Z" fill="#997659"/>
<path fill-rule="evenodd" clip-rule="evenodd" d="M149.179 393.084C151.124 442.519 148.835 468.019 148.399 472.511C147.964 477.002 142.002 506.125 127.887 561.2L139.479 557.372C161.787 506.859 169.388 480.607 171.947 473.974C174.505 467.341 181.3 440.378 192.332 393.084H149.179Z" fill="#B28B67"/>
<path fill-rule="evenodd" clip-rule="evenodd" d="M130.518 556.679C129.455 556.247 128.212 556.711 127.819 557.79C127.296 559.227 126.699 561.111 126.699 562.224C126.699 564.204 127.385 568.002 127.385 568.002C129.774 568.002 170.315 568.002 170.315 568.002C170.315 568.002 171.988 562.683 168.383 562.259C164.778 561.834 162.393 561.493 162.393 561.493L142.644 553.027C142.136 552.809 141.548 553.044 141.33 553.552L140.143 556.32C140.143 556.32 136.806 557.818 134.719 557.818C133.577 557.818 131.849 557.22 130.518 556.679Z" fill="#FAF1FC"/>
<path fill-rule="evenodd" clip-rule="evenodd" d="M202.065 556.679C201.002 556.247 199.758 556.711 199.366 557.79C198.843 559.227 198.246 561.111 198.246 562.224C198.246 564.204 198.932 568.002 198.932 568.002C201.32 568.002 241.862 568.002 241.862 568.002C241.862 568.002 243.535 562.683 239.93 562.259C236.325 561.834 233.94 561.493 233.94 561.493L214.19 553.027C213.683 552.809 213.095 553.044 212.877 553.552L211.69 556.32C211.69 556.32 208.353 557.818 206.266 557.818C205.124 557.818 203.395 557.22 202.065 556.679Z" fill="#FAF1FC"/>
<path fill-rule="evenodd" clip-rule="evenodd" d="M155.621 393.084L167.799 438.957H204.997L199.45 393.084H155.621Z" fill="#69A1AC"/>
<path fill-rule="evenodd" clip-rule="evenodd" d="M148.769 393.084C142.758 410.408 146.485 438.957 146.485 438.957H184.444L194.881 393.084H148.769Z" fill="#89C5CC"/>
<path fill-rule="evenodd" clip-rule="evenodd" d="M175.44 282.357C183.804 282.357 186.846 272.343 191.599 266.847C194.999 262.916 200.801 264.088 202.519 258.584C206.838 244.742 195.278 235 180.197 235C165.116 235 154.948 243.544 152.752 256.388C150.556 269.232 160.359 282.357 175.44 282.357Z" fill="#191847"/>
<path fill-rule="evenodd" clip-rule="evenodd" d="M184.906 280.555C189.646 283.411 194.302 284.792 196.488 284.228C201.969 282.815 202.473 262.764 198.232 254.859C193.991 246.954 172.189 243.508 171.09 259.17C170.708 264.606 172.991 269.458 176.363 273.416L170.316 301.6H187.881L184.906 280.555Z" fill="#B28B67"/>
<path fill-rule="evenodd" clip-rule="evenodd" d="M172.233 248.173C158.779 261.347 172.285 275.349 175.985 275.349C176.224 273.448 176.953 271.599 178.02 269.839C177.454 269.105 177.118 268.192 177.118 267.202C177.118 264.777 179.135 262.811 181.624 262.811C182.401 262.811 183.132 263.003 183.77 263.34C189.164 258.74 195.929 255.533 199.288 254.903C205.13 253.806 185.687 235 172.233 248.173Z" fill="#191847"/>
<path fill-rule="evenodd" clip-rule="evenodd" d="M254.656 343.834L228.137 355.48L236.605 366.328L256.466 351.1C266.386 349.278 270.987 347.713 270.268 346.404C269.662 345.301 268.534 345.239 267.495 345.181C266.686 345.137 265.931 345.095 265.518 344.566C264.576 343.359 266.902 339.631 269.26 336.186C271.618 332.742 269.408 332.867 268.114 333.279C263.788 335.686 259.302 339.205 254.656 343.834ZM138.117 361.663L123.12 358.688C112.949 385.496 106.885 400.186 104.929 402.759C103.494 404.646 94.6464 409.507 88.6577 412.102C86.2539 413.144 86.77 415.175 87.4751 415.825C91.9221 419.924 96.0564 418.488 100.557 416.924C101.86 416.471 103.193 416.007 104.574 415.664C108.148 414.777 109.235 416.615 110.263 418.351C111.173 419.889 112.036 421.348 114.536 420.766C114.422 420.275 114.283 419.725 114.132 419.132C113.157 415.297 111.72 409.641 113.852 406.354C114.947 404.668 123.035 389.771 138.117 361.663Z" fill="#B28B67"/>
<path fill-rule="evenodd" clip-rule="evenodd" d="M176.682 302.576L183.01 301.49C196.795 314.862 202.42 346.986 211.606 351.238C220.291 355.258 232.603 351.368 247.238 346.115L251.719 356.129C238.422 370.514 210.095 382.668 198.612 375.73C180.254 364.637 176.016 325.016 176.682 302.576Z" fill="#191847"/>
<path fill-rule="evenodd" clip-rule="evenodd" d="M153.484 397.476H205.447C205.447 397.476 187.389 341.087 187.389 301.673L171.715 298.674C159.396 324.118 155.917 355.446 153.484 397.476Z" fill="#DDE3E9"/>
<path fill-rule="evenodd" clip-rule="evenodd" d="M171.052 298.674H170.867C134.639 320.999 112.744 355.606 105.184 402.496L116.921 404.795C124.696 395.737 134.291 380.912 145.706 360.321C142.204 372.725 139.647 385.447 138.85 397.476H189.255C199.013 372.816 177.263 298.674 177.263 298.674H173.783H171.052Z" fill="#2F3676"/>
<path fill-rule="evenodd" clip-rule="evenodd" d="M154.949 375.937L173.165 367.469V375.937H154.949Z" fill="white" fill-opacity="0.2"/>
<path fill-rule="evenodd" clip-rule="evenodd" d="M401.93 277.785C397.054 280.879 392.229 282.429 389.936 281.891C384.187 280.542 383.195 259.607 387.435 251.25C391.674 242.894 414.333 238.789 415.843 255.125C416.367 260.795 414.1 265.915 410.674 270.129L417.636 299.432L399.317 299.839L401.93 277.785Z" fill="#B28B67"/>
<path fill-rule="evenodd" clip-rule="evenodd" d="M412.163 273.781C414.235 263.484 420.63 256.354 419.527 251.797C418.425 247.239 414.068 246.22 414.068 246.22C414.068 246.22 411.626 237.19 399.444 238.818C387.262 240.445 379.921 245.691 383.389 256.797C386.347 256.731 389.896 255.58 394.876 257.307C397.246 258.128 398.359 262.653 398.359 262.653L400.591 262.603C400.591 262.603 403.721 257.135 406.911 258.495C410.101 259.855 408.501 265.411 408.501 265.411L409.789 273.834L412.163 273.781Z" fill="#191847"/>
<path fill-rule="evenodd" clip-rule="evenodd" d="M428.527 390.994L401.828 484.687L382.349 553.744H368.141L388.841 390.994H428.527Z" fill="#191847"/>
<path fill-rule="evenodd" clip-rule="evenodd" d="M440.821 390.994C441.439 439.284 443.545 465.623 444.193 470.011C444.842 474.398 454.646 502.309 473.605 553.744H458.887C434.75 504.401 421.276 476.49 418.465 470.011C415.654 463.531 406.98 437.193 393.914 390.994H440.821Z" fill="#2F3676"/>
<path fill-rule="evenodd" clip-rule="evenodd" d="M473.922 567.465L473.185 552L457.721 552C446.721 559.732 429 564.519 429 564.519V567.465H456.984L466.558 565.992V567.465H473.922Z" fill="#191847"/>
<path fill-rule="evenodd" clip-rule="evenodd" d="M384.34 567L383.603 551.535L368.139 551.535C357.139 559.268 339.418 564.054 339.418 564.054V567H367.402L376.976 565.527V567H384.34Z" fill="#191847"/>
<path fill-rule="evenodd" clip-rule="evenodd" d="M361.483 312.697L385.945 326.097L376.912 335.795L359.136 319.517C349.773 316.936 345.49 315.048 346.29 313.852C346.964 312.845 348.051 312.88 349.052 312.912C349.833 312.937 350.561 312.96 351.001 312.488C352.006 311.409 350.088 307.636 348.115 304.133C346.142 300.63 348.252 300.935 349.458 301.439C353.406 304.112 357.415 307.865 361.483 312.697ZM336.886 331.5L347.632 337.404L347.02 348.189C347.02 348.189 340.06 343.165 334.073 341.496C326.439 339.367 323.35 337.741 319.619 332.986C317.623 330.443 315.929 325.329 317.829 323.663C318.558 323.025 321.273 324.534 324.044 326.074C326.156 327.247 328.299 328.439 329.62 328.711C331.398 329.077 331.19 326.772 331.023 324.93C330.904 323.609 330.806 322.525 331.479 322.838C334.625 322.892 336.886 331.5 336.886 331.5Z" fill="#B28B67"/>
<path fill-rule="evenodd" clip-rule="evenodd" d="M397.857 323.111C389.289 323.021 377.863 321.21 365.671 313.47L360.883 324.15C369.292 332.497 381.117 339.355 391.456 339.065C399.604 338.836 403.768 328.979 397.857 323.111Z" fill="#69A1AC"/>
<path fill-rule="evenodd" clip-rule="evenodd" d="M420.964 396.277C429.11 395.214 436.595 394.238 441.031 395.112C446.007 378.946 441.875 368.768 438.06 359.371C435.761 353.708 433.577 348.33 433.572 342.095C433.558 323.941 418.984 295.996 416.84 295.996H416.223H399.229H397.284C396.41 307.231 392.678 319.394 388.923 331.636C388.046 334.495 387.168 337.358 386.324 340.215C372.113 343.442 340.554 332.21 340.554 332.21C340.554 332.21 332.587 348.695 333.189 355.715C351.557 365.312 367.301 369.59 380.271 369.873C379.859 377.57 380.796 384.895 383.943 391.587C388.159 400.555 405.719 398.265 420.964 396.277Z" fill="#89C5CC"/>
<path d="M304.731 204H232.637C224.039 204 217 211.777 217 221.289C217 229.974 222.873 237.212 230.441 238.403L230.65 246L238.194 238.577H304.726C313.324 238.577 320.363 230.8 320.363 221.289C320.368 211.777 313.329 204 304.731 204Z" fill="#7F00FF"/>
<path d="M250.12 227.299C253.136 227.299 255.58 224.855 255.58 221.839C255.58 218.823 253.136 216.379 250.12 216.379C247.105 216.379 244.66 218.823 244.66 221.839C244.66 224.855 247.105 227.299 250.12 227.299Z" fill="white"/>
<path d="M268.683 227.299C271.698 227.299 274.143 224.855 274.143 221.839C274.143 218.823 271.698 216.379 268.683 216.379C265.667 216.379 263.223 218.823 263.223 221.839C263.223 224.855 265.667 227.299 268.683 227.299Z" fill="white"/>
<path d="M287.249 227.299C290.265 227.299 292.709 224.855 292.709 221.839C292.709 218.823 290.265 216.379 287.249 216.379C284.234 216.379 281.789 218.823 281.789 221.839C281.789 224.855 284.234 227.299 287.249 227.299Z" fill="white"/>
<path d="M537.402 567.357V569.357H96.0221L94.1484 567.357H537.402Z" fill="#413A51"/>
<path d="M569.26 433.825C569.257 433.998 569.244 434.172 569.225 434.339L559.081 448.026L556.888 450.991L561.827 448.023L563.592 446.965C563.103 450.438 560.675 453.38 558.473 456.148C552.557 463.588 547.477 471.72 543.368 480.327C540.638 486.041 538.262 492.085 534.034 496.76C530.761 500.381 526.725 502.609 523.134 502.85C522.542 502.889 521.96 502.876 521.394 502.802C519.973 502.622 518.661 502.078 517.546 501.13C515.99 499.805 514.826 497.677 514.298 494.641C514.282 494.551 514.263 494.455 514.25 494.362V494.349C514.224 494.188 514.199 494.021 514.176 493.857C514.134 493.539 514.096 493.22 514.064 492.902C512.996 483.021 515.443 472.372 519.304 463.084C519.52 462.559 519.739 462.045 519.964 461.531C520.031 461.379 520.095 461.228 520.166 461.077C520.218 460.958 520.272 460.836 520.324 460.72C520.748 459.778 521.185 458.855 521.636 457.952C522.992 455.216 524.497 452.56 526.131 449.997C526.275 449.763 526.43 449.528 526.581 449.29L528.053 452.071L529.034 453.92L533.387 439.995C538.567 433.677 544.445 427.905 550.631 422.6C555.695 418.263 561.389 414.038 567.919 413.279C568.218 413.244 568.524 413.218 568.826 413.195C570.209 416.546 571.054 420.134 571.324 423.761C571.582 427.249 571.238 430.966 569.26 433.825Z" fill="#FF8FBC"/>
<path d="M499.692 525.24C498.727 518.459 496.837 511.855 494.078 505.605L494.859 505.248C497.65 511.572 499.563 518.257 500.538 525.115L499.692 525.24Z" fill="#B1B4B9"/>
<path d="M507.999 526.702L507.434 491.81L508.289 491.797L508.774 521.728C510.446 517.776 513.163 514.008 515.806 510.346C518.886 506.076 522.073 501.661 523.513 497.047L524.33 497.311C522.848 502.06 519.619 506.532 516.497 510.86C513.417 515.13 510.231 519.544 508.79 524.158L507.999 526.702Z" fill="#B1B4B9"/>
<path d="M531.977 517.113V552.619C531.977 560.551 525.652 566.979 517.862 566.979H503.76C499.795 566.979 496.217 565.32 493.654 562.641C491.175 560.056 489.645 556.519 489.645 552.619V517.113H531.977Z" fill="#3F424A"/>
<g opacity="0.51">
<path opacity="0.51" d="M567.975 432.955C567.972 433.129 567.959 433.303 567.94 433.47L555.6 450.122L559.079 448.029L556.886 450.993L561.825 448.025C560.899 450.684 558.966 453.038 557.185 455.276C551.269 462.716 546.189 470.847 542.08 479.455C539.35 485.168 536.974 491.213 532.746 495.888C529.473 499.508 525.441 501.737 521.852 501.978H521.849C520.303 502.084 518.833 501.817 517.547 501.129C515.602 500.103 514.068 498.123 513.284 495.026C513.181 494.624 513.091 494.206 513.014 493.766C512.997 493.669 512.978 493.57 512.965 493.473C512.94 493.313 512.914 493.145 512.891 492.981C511.483 482.287 514.319 470.59 518.679 460.658C518.798 460.388 518.92 460.118 519.039 459.848C519.319 459.234 519.602 458.623 519.891 458.022C520.042 457.703 520.196 457.388 520.351 457.08C521.833 454.089 523.492 451.205 525.296 448.421L526.132 450L527.752 453.051L528.058 452.073L532.106 439.126C537.286 432.807 543.163 427.036 549.349 421.731C554.645 417.194 560.635 412.78 567.545 412.326C567.676 412.644 567.802 412.963 567.921 413.281C569.082 416.355 569.799 419.609 570.043 422.892C570.297 426.38 569.953 430.097 567.975 432.955Z" fill="white"/>
</g>
<path d="M514.867 492.103C514.6 492.386 514.336 492.653 514.066 492.901C513.719 493.219 513.368 493.505 513.011 493.769C511.5 494.888 509.931 495.489 508.356 495.672C508.214 495.695 508.07 495.708 507.928 495.717C507.787 495.73 507.645 495.734 507.5 495.74C507.336 495.743 507.176 495.743 507.012 495.74C504.992 495.692 502.983 495.007 501.083 493.904C500.957 493.833 500.838 493.766 500.719 493.692C500.115 493.328 499.53 492.92 498.951 492.48H498.948C494.498 489.062 490.897 483.599 489.575 479.188C487.871 473.526 487.964 467.491 488.067 461.571L488.132 458.054V458.044C488.132 458.044 488.132 458.044 488.132 458.041C488.148 457.06 488.167 456.076 488.183 455.096C488.263 450.765 488.341 446.427 488.418 442.096L489.064 443.247L489.479 443.984C489.482 443.739 489.488 443.492 489.492 443.247L490.816 445.601L491.469 446.762L491.109 444.9L488.598 431.997C488.611 431.47 488.62 430.946 488.627 430.418C488.833 419.052 489.064 407.493 492.475 396.671C494.199 391.215 498.382 385.196 503.536 385.009H503.603C504.324 384.987 505.07 385.083 505.828 385.314C506.742 385.588 507.539 386.022 508.237 386.578C511.59 389.218 512.671 394.655 513.124 399.272C513.545 403.542 513.963 407.818 514.384 412.088L508.34 431.708L507.867 433.241L509.709 430.107L510.61 428.573L509.426 432.412L508.95 433.949L515.072 423.515L515.442 422.891C516.381 432.422 517.32 441.955 518.252 451.485C518.526 454.269 518.802 457.06 519.046 459.848C519.14 460.925 519.227 462.002 519.313 463.082V463.086C519.574 466.568 519.763 470.053 519.828 473.548C519.931 480.13 519.326 487.335 514.867 492.103Z" fill="#FF8FBC"/>
<path d="M514.439 492.103C514.3 492.248 514.169 492.386 514.03 492.528C513.899 492.653 513.77 492.782 513.635 492.904C513.413 493.11 513.188 493.3 512.963 493.48C512.834 493.579 512.709 493.676 512.58 493.772C511.204 494.791 509.783 495.38 508.349 495.615C508.066 495.666 507.78 495.698 507.497 495.721C507.333 495.733 507.172 495.743 507.008 495.743C505.529 495.772 504.047 495.457 502.61 494.872C502.121 494.676 501.632 494.451 501.156 494.193C500.864 494.036 500.574 493.872 500.288 493.695C499.874 493.447 499.465 493.177 499.067 492.885C498.883 492.759 498.697 492.624 498.517 492.483C494.067 489.071 490.462 483.602 489.138 479.191C487.434 473.529 487.527 467.494 487.63 461.574L487.694 458.057V458.054C487.694 458.05 487.694 458.05 487.694 458.044C487.697 457.787 487.704 457.533 487.707 457.276C487.707 457.272 487.707 457.272 487.707 457.272C487.723 456.327 487.742 455.382 487.758 454.436C487.839 450.08 487.916 445.717 487.993 441.357L488.408 442.096L489.054 443.247L489.469 443.984L491.028 446.758L490.806 445.598L490.668 444.897L490.44 443.733L488.157 431.991C488.17 431.463 488.18 430.939 488.186 430.412C488.392 419.046 488.623 407.487 492.035 396.664C493.803 391.057 498.173 384.855 503.526 385.003H503.594C504.182 385.025 504.777 385.125 505.388 385.308C506.008 385.495 506.577 385.758 507.098 386.083C507.343 386.228 507.574 386.392 507.796 386.572C511.15 389.211 512.23 394.648 512.683 399.266C513.104 403.535 513.522 407.812 513.944 412.082L507.426 433.235L508.327 431.701L510.169 428.566L509.696 430.1L508.51 433.942L509.413 432.405L508.937 433.942L515.059 423.509C515.979 432.83 516.898 442.157 517.808 451.478C518.082 454.263 518.358 457.054 518.603 459.841C518.628 460.111 518.651 460.382 518.67 460.652C518.738 461.459 518.802 462.266 518.866 463.076V463.079C518.889 463.375 518.908 463.677 518.93 463.973C519.159 467.159 519.32 470.349 519.381 473.545C519.503 480.13 518.898 487.335 514.439 492.103Z" fill="#FF8FBC"/>
<path d="M514.439 492.103C514.3 492.248 514.169 492.386 514.03 492.528C513.899 492.653 513.77 492.782 513.635 492.904C513.413 493.11 513.188 493.3 512.963 493.48C512.834 493.579 512.709 493.676 512.58 493.772C511.204 494.791 509.783 495.38 508.349 495.615C508.066 495.666 507.78 495.698 507.497 495.721C507.333 495.733 507.172 495.743 507.008 495.743C505.529 495.772 504.047 495.457 502.61 494.872C502.121 494.676 501.632 494.451 501.156 494.193C500.864 494.036 500.574 493.872 500.288 493.695C499.874 493.447 499.465 493.177 499.067 492.885C498.883 492.759 498.697 492.624 498.517 492.483C494.067 489.071 490.462 483.602 489.138 479.191C487.434 473.529 487.527 467.494 487.63 461.574L487.694 458.057V458.054C487.694 458.05 487.694 458.05 487.694 458.044C487.697 457.787 487.704 457.533 487.707 457.276C487.707 457.272 487.707 457.272 487.707 457.272C487.723 456.327 487.742 455.382 487.758 454.436C487.839 450.08 487.916 445.717 487.993 441.357L488.408 442.096L489.054 443.247L489.469 443.984L491.028 446.758L490.806 445.598L490.668 444.897L490.44 443.733L488.157 431.991C488.17 431.463 488.18 430.939 488.186 430.412C488.392 419.046 488.623 407.487 492.035 396.664C493.803 391.057 498.173 384.855 503.526 385.003H503.594C504.182 385.025 504.777 385.125 505.388 385.308C506.008 385.495 506.577 385.758 507.098 386.083C507.343 386.228 507.574 386.392 507.796 386.572C511.15 389.211 512.23 394.648 512.683 399.266C513.104 403.535 513.522 407.812 513.944 412.082L507.426 433.235L508.327 431.701L510.169 428.566L509.696 430.1L508.51 433.942L509.413 432.405L508.937 433.942L515.059 423.509C515.979 432.83 516.898 442.157 517.808 451.478C518.082 454.263 518.358 457.054 518.603 459.841C518.628 460.111 518.651 460.382 518.67 460.652C518.738 461.459 518.802 462.266 518.866 463.076V463.079C518.889 463.375 518.908 463.677 518.93 463.973C519.159 467.159 519.32 470.349 519.381 473.545C519.503 480.13 518.898 487.335 514.439 492.103Z" fill="#FF8FBC"/>
<path d="M515.951 492.813C515.398 493.411 514.829 493.926 514.25 494.36C514.199 494.405 514.147 494.437 514.096 494.479C513.826 494.678 513.553 494.861 513.282 495.029C511.887 495.884 510.45 496.327 509.013 496.427C508.797 496.443 508.585 496.453 508.37 496.453C508.225 496.453 508.083 496.45 507.942 496.443C507.797 496.44 507.656 496.43 507.508 496.418C505.846 496.279 504.196 495.723 502.611 494.865C502.097 494.591 501.592 494.286 501.093 493.948C500.965 493.861 500.839 493.775 500.717 493.688C500.486 493.53 500.257 493.36 500.032 493.186C499.637 492.884 499.251 492.569 498.875 492.241C494.962 488.82 491.862 483.917 490.653 479.894C488.949 474.232 489.043 468.197 489.145 462.278L489.184 460.091V460.088L489.21 458.763V458.76C489.223 458.149 489.232 457.548 489.245 456.937V456.934C489.322 452.616 489.399 448.301 489.477 443.983C489.48 443.738 489.486 443.491 489.489 443.247C489.499 442.854 489.502 442.459 489.512 442.066L490.451 443.735L491.107 444.899L492.55 447.471L489.676 432.704C489.689 432.176 489.698 431.652 489.705 431.125C489.911 419.759 490.142 408.2 493.554 397.377C495.524 391.127 500.727 384.147 506.907 386.021C506.974 386.044 507.038 386.066 507.103 386.085C507.501 386.217 507.878 386.378 508.228 386.574C512.443 388.822 513.7 394.895 514.199 399.979C514.62 404.248 515.038 408.525 515.459 412.795L510.601 428.572L509.418 432.411L508.942 433.948L515.064 423.514L515.433 422.891L516.302 421.408C517.311 431.672 518.321 441.931 519.327 452.195C519.52 454.133 519.71 456.079 519.89 458.021C519.97 458.866 520.047 459.712 520.121 460.558C520.134 460.731 520.15 460.902 520.163 461.075C520.536 465.464 520.822 469.856 520.899 474.258C521.015 480.84 520.411 488.045 515.951 492.813Z" fill="#FF8FBC"/>
<path d="M473.072 466.49C474.924 466.705 476.776 466.921 478.628 467.136C475.152 464.409 473.348 459.934 472.869 455.493C472.39 451.056 473.088 446.584 473.782 442.176C475.737 443.603 477.692 445.028 479.65 446.455C481.608 447.883 483.579 449.323 485.229 451.105C487.56 453.622 489.167 456.731 490.746 459.795C495.37 468.779 496.842 476.965 498.948 486.688C500.061 491.82 504.257 499.867 500.668 504.777C486.656 523.937 473.557 474.039 473.072 466.49Z" fill="#FF8FBC"/>
<g opacity="0.51">
<path opacity="0.51" d="M471.361 466.49C473.213 466.705 475.065 466.921 476.917 467.136C473.441 464.409 471.637 459.934 471.158 455.493C470.679 451.053 471.377 446.584 472.071 442.176C474.026 443.603 475.981 445.028 477.939 446.455C479.897 447.883 481.868 449.323 483.518 451.105C485.849 453.622 487.456 456.731 489.035 459.795C493.659 468.779 495.131 476.965 497.237 486.688C498.35 491.82 502.546 499.867 498.957 504.777C484.945 523.937 471.846 474.039 471.361 466.49Z" fill="white"/>
</g>
<path d="M531.394 551.223C531.358 551.258 531.329 551.293 531.291 551.329C530.625 552.036 529.908 552.595 529.149 553.017C529.069 553.062 528.992 553.103 528.908 553.142C527.86 553.669 526.677 553.894 525.555 553.792C525.902 552.309 526.015 550.821 525.889 549.351C525.815 548.551 525.645 547.535 524.973 546.853C524.587 546.461 524.008 546.252 523.462 546.297C523.034 546.335 522.674 546.522 522.442 546.837C521.658 547.474 521.217 548.454 521.192 549.605C521.163 550.92 521.719 552.239 522.638 553.039C523.291 553.611 524.108 553.994 525.024 554.158C524.333 556.689 522.954 559 521.137 560.759C520.729 561.155 520.301 561.521 519.851 561.852C519.404 562.193 518.938 562.499 518.455 562.769C517.259 563.444 516.227 563.733 515.301 563.65C514.369 563.566 513.424 563.109 512.327 562.219C510.24 560.518 508.684 558.139 507.829 555.332C508.552 553.017 508.318 550.856 507.17 549.229C507.286 547.779 507.594 546.393 508.077 545.101C508.247 544.651 508.437 544.216 508.652 543.792C509.054 542.985 509.53 542.226 510.083 541.532C510.273 541.291 510.472 541.056 510.671 540.821C511.305 540.062 511.961 539.284 512.346 538.342C512.845 537.114 512.742 535.371 511.572 534.564C511.035 534.188 510.321 534.047 509.385 534.121C506.54 534.362 503.938 536.342 502.916 539.059C502.35 540.57 502.295 542.245 502.697 543.795C502.81 544.245 502.964 544.686 503.157 545.104C503.492 545.843 503.942 546.535 504.498 547.126C504.794 547.448 505.118 547.74 505.437 548.023C505.874 548.419 506.286 548.795 506.636 549.236C506.671 549.281 506.7 549.319 506.729 549.358C506.588 551.345 506.81 553.406 507.382 555.328C506.909 556.766 506.077 558.139 505.025 559.212C504.096 560.155 503.006 560.929 501.832 561.515C500.878 561.997 499.865 562.357 498.833 562.572C497.058 562.962 495.222 562.952 493.515 562.499C493.434 562.476 493.357 562.453 493.28 562.434L493.164 562.852C493.47 562.939 493.772 563.016 494.084 563.074C495.627 563.379 497.251 563.354 498.829 563.023C499.858 562.804 500.868 562.463 501.829 561.997C503.119 561.38 504.308 560.547 505.324 559.518C506.289 558.537 507.08 557.303 507.591 556C508.504 558.659 510.038 560.917 512.06 562.56C513.224 563.505 514.24 563.994 515.259 564.084C515.375 564.093 515.491 564.097 515.607 564.097C516.526 564.097 517.529 563.788 518.658 563.151C519.066 562.926 519.465 562.672 519.848 562.399C520.295 562.077 520.725 561.727 521.134 561.354C523.169 559.492 524.706 556.978 525.442 554.219C526.664 554.351 527.953 554.11 529.092 553.534C529.108 553.525 529.127 553.518 529.143 553.509C529.899 553.12 530.616 552.599 531.284 551.943C531.426 551.808 531.564 551.669 531.699 551.522L531.394 551.223ZM505.716 547.702C505.408 547.422 505.09 547.136 504.81 546.83C504.331 546.316 503.935 545.731 503.633 545.104C503.427 544.686 503.26 544.245 503.141 543.795C502.73 542.3 502.768 540.68 503.318 539.213C504.286 536.651 506.736 534.783 509.424 534.555C509.575 534.542 509.71 534.538 509.848 534.538C510.475 534.538 510.961 534.664 511.334 534.921C512.314 535.6 512.382 537.104 511.951 538.178C511.591 539.053 510.961 539.808 510.35 540.541C510.147 540.783 509.948 541.02 509.755 541.265C509.141 542.046 508.617 542.892 508.179 543.798C507.977 544.22 507.794 544.657 507.63 545.107C507.208 546.252 506.925 547.474 506.79 548.747C506.45 548.364 506.083 548.027 505.716 547.702ZM507.604 554.521C507.241 553.039 507.077 551.493 507.128 549.972C507.829 551.248 507.996 552.824 507.604 554.521ZM525.13 553.73C524.278 553.583 523.516 553.229 522.915 552.702C522.089 551.981 521.59 550.798 521.616 549.608C521.639 548.58 522.031 547.711 522.725 547.155L522.767 547.11C522.97 546.827 523.272 546.744 523.491 546.728C523.529 546.724 523.564 546.724 523.603 546.724C523.992 546.724 524.4 546.888 524.664 547.155C525.243 547.744 525.394 548.66 525.458 549.387C525.584 550.821 525.471 552.28 525.13 553.73Z" fill="#DADCDD"/>
<path d="M531.296 523.333C530.618 522.79 529.901 522.35 529.155 522.031C529.132 522.018 529.113 522.009 529.091 522.002C528.367 521.694 527.596 521.497 526.798 521.414C526.666 520.986 526.486 520.594 526.258 520.247C526.168 520.108 526.075 519.973 525.975 519.842C525.586 519.33 525.126 518.896 524.618 518.533C523.609 517.813 522.393 517.382 521.142 517.212C520.715 517.151 520.287 517.125 519.856 517.125C518.59 517.125 517.32 517.373 516.213 517.838C515.734 518.038 515.271 518.269 514.824 518.533C514.165 518.916 513.538 519.356 512.953 519.842C511.268 521.227 509.87 522.954 508.651 524.636C508.648 524.636 508.648 524.639 508.648 524.639C508.648 524.639 508.648 524.642 508.645 524.642L508.641 524.645C508.49 524.857 508.342 525.076 508.191 525.285C508.124 525.382 508.053 525.478 507.989 525.578C507.989 525.581 507.986 525.581 507.986 525.587C507.674 526.028 507.371 526.471 507.069 526.915C505.507 529.208 503.896 531.574 501.838 533.429C501.693 533.564 501.542 533.696 501.388 533.822C500.5 534.568 499.658 535.095 498.838 535.413C498.465 535.561 498.102 535.667 497.738 535.728C496.771 535.892 495.716 535.728 494.758 535.265C496.124 532.085 496.356 528.423 495.391 525.189L495.327 524.976L495.121 525.047C492.427 525.944 490.723 529.069 491.401 531.867C491.758 533.339 492.797 534.674 494.198 535.468C493.748 536.445 493.192 537.365 492.536 538.194C491.723 539.236 490.748 540.146 489.646 540.918C489.469 541.043 489.289 541.162 489.105 541.281L489.334 541.651C489.44 541.586 489.543 541.516 489.646 541.442C490.887 540.619 491.973 539.616 492.871 538.464C493.543 537.609 494.118 536.67 494.581 535.667C495.616 536.159 496.758 536.333 497.812 536.156C498.156 536.095 498.494 536.005 498.841 535.876C499.754 535.548 500.684 534.982 501.661 534.162C501.722 534.111 501.78 534.056 501.841 534.005C504.079 532.079 505.78 529.581 507.423 527.163C507.616 526.883 507.806 526.632 508.002 526.353C508.002 526.349 508.005 526.349 508.005 526.343V526.314C508.082 526.205 508.156 526.102 508.223 525.996C508.227 525.996 508.227 525.992 508.227 525.992C508.227 525.989 508.23 525.989 508.23 525.983C508.233 525.983 508.233 525.98 508.233 525.98C508.333 525.832 508.436 525.684 508.539 525.539C509.94 523.539 511.596 521.407 513.664 519.838C514.316 519.337 515.005 518.896 515.747 518.53C515.953 518.424 516.168 518.33 516.381 518.237C517.438 517.793 518.651 517.553 519.86 517.553C520.294 517.553 520.721 517.578 521.146 517.642C522.091 517.774 523.004 518.064 523.814 518.527C524.419 518.867 524.962 519.298 525.422 519.835C525.599 520.035 525.756 520.25 525.901 520.475C526.078 520.748 526.223 521.051 526.338 521.372C524.612 521.298 523.014 521.8 521.802 522.796L521.737 522.848L521.724 522.935C521.454 524.771 521.567 526.69 522.046 528.491L522.085 528.642L522.242 528.651C523.57 528.729 524.805 528.121 525.731 526.944C526.84 525.533 527.293 523.571 526.92 521.858C527.618 521.944 528.29 522.124 528.927 522.395C529.004 522.43 529.081 522.459 529.158 522.501C529.904 522.841 530.624 523.308 531.3 523.886C531.341 523.922 531.38 523.957 531.419 523.993L531.698 523.661C531.56 523.552 531.428 523.439 531.296 523.333ZM494.375 535.066C493.089 534.33 492.144 533.108 491.819 531.764C491.218 529.298 492.719 526.446 495.044 525.536C495.899 528.606 495.658 532.056 494.375 535.066ZM525.393 526.68C524.596 527.697 523.535 528.237 522.416 528.227C521.995 526.558 521.898 524.79 522.133 523.089C523.29 522.16 524.824 521.716 526.467 521.822C526.866 523.439 526.451 525.33 525.393 526.68Z" fill="#DADCDD"/>
<path d="M517.519 497.855L517.152 497.63C530.28 475.705 542.678 452.957 553.999 430.016L554.382 430.212C543.058 453.162 530.653 475.92 517.519 497.855Z" fill="#F2F2F2"/>
<path d="M505.092 480.647C500.574 455.014 499.712 428.897 502.529 403.014L503.381 403.11C500.574 428.91 501.433 454.944 505.934 480.492L505.092 480.647Z" fill="#B1B4B9"/>
<path d="M493.537 497.463C493.447 497.463 493.354 497.441 493.27 497.392C492.943 497.2 492.859 496.791 492.807 496.55C489.949 482.631 484.888 469.368 477.77 457.134L478.139 456.912C485.284 469.188 490.361 482.496 493.229 496.46C493.277 496.692 493.335 496.926 493.486 497.016C493.515 497.032 493.563 497.032 493.611 497.013C493.663 496.994 493.688 496.962 493.692 496.952L494.081 496.778C494.161 496.958 494.116 497.158 493.962 497.299C493.856 497.396 493.698 497.463 493.537 497.463Z" fill="#F2F2F2"/>
</g>
<defs>
<linearGradient id="paint0_linear" x1="252.5" y1="130" x2="437.5" y2="508.5" gradientUnits="userSpaceOnUse">
<stop stop-color="#00C6FF"/>
<stop offset="1" stop-color="#00C6FF" stop-opacity="0"/>
</linearGradient>
<clipPath id="clip0">
<rect width="600" height="600" fill="white"/>
</clipPath>
</defs>
</svg>
