<svg width="600" height="600" viewBox="0 0 600 600" fill="none" xmlns="http://www.w3.org/2000/svg">
<path d="M508 336.937C508 473.576 391.425 573 285.953 573C179.925 573 85 473.576 85 336.937C85 200.298 179.925 27 285.953 27C391.425 27 508 200.298 508 336.937Z" fill="#0072FF"/>
<path d="M508 336.937C508 473.576 391.425 573 285.953 573C179.925 573 85 473.576 85 336.937C85 200.298 179.925 27 285.953 27C391.425 27 508 200.298 508 336.937Z" fill="url(#paint0_linear)"/>
<g opacity="0.9">
<path d="M276.931 512.386C275.36 512.386 274.082 511.152 274.082 509.625V209.71C274.082 208.188 275.356 206.949 276.931 206.949C278.502 206.949 279.78 208.184 279.78 209.71V509.625C279.776 511.152 278.502 512.386 276.931 512.386Z" fill="#D3D3D3"/>
<path d="M279.622 523.704H273.002C272.34 523.704 271.797 523.164 271.797 522.5V483.959C271.797 483.297 272.337 482.754 273.002 482.754H279.622C280.283 482.754 280.826 483.294 280.826 483.959V522.5C280.823 523.161 280.283 523.704 279.622 523.704Z" fill="#0E538C"/>
<path d="M255.848 528.19V521.57C255.848 520.909 256.388 520.365 257.052 520.365H295.593C296.255 520.365 296.798 520.905 296.798 521.57V528.19C296.798 528.851 296.258 529.395 295.593 529.395H257.052C256.391 529.395 255.848 528.855 255.848 528.19Z" fill="#0E538C"/>
<path d="M325.929 224.695H227.54C226.185 224.695 225.078 223.651 225.078 222.374C225.078 221.097 226.185 220.053 227.54 220.053H325.929C327.284 220.053 328.391 221.097 328.391 222.374C328.391 223.651 327.284 224.695 325.929 224.695Z" fill="#FFBE55"/>
<path d="M325.929 345.228H227.54C226.185 345.228 225.078 344.184 225.078 342.907C225.078 341.63 226.185 340.586 227.54 340.586H325.929C327.284 340.586 328.391 341.63 328.391 342.907C328.391 344.184 327.284 345.228 325.929 345.228Z" fill="#FFBE55"/>
<path d="M325.932 224.693H227.543V340.581H325.932V224.693Z" fill="#FFF5D4"/>
<path d="M276.732 251.299C259.423 251.299 245.391 265.331 245.391 282.64C245.391 299.95 259.423 313.982 276.732 313.982C294.041 313.982 308.074 299.95 308.074 282.64H276.732V251.299Z" fill="#4D61FC"/>
<path d="M279.262 249.01V280.351H310.603C310.606 263.042 296.574 249.01 279.262 249.01Z" fill="#FFBE55"/>
</g>
<path d="M431.853 530H113.147C113.059 530 113 530.6 113 531.5C113 532.4 113.059 533 113.147 533H431.853C431.941 533 432 532.4 432 531.5C432 530.6 431.941 530 431.853 530Z" fill="#413A51"/>
<path fill-rule="evenodd" clip-rule="evenodd" d="M442.137 334.049L412.152 439.271L390.275 516.825H374.319L397.567 334.049H442.137Z" fill="#191847"/>
<path fill-rule="evenodd" clip-rule="evenodd" d="M456.775 334.049C457.469 388.282 459.834 417.862 460.562 422.789C461.29 427.716 472.301 459.062 493.594 516.825H477.064C449.957 461.411 434.825 430.065 431.668 422.789C428.511 415.512 418.769 385.932 404.096 334.049H456.775Z" fill="#2F3676"/>
<path fill-rule="evenodd" clip-rule="evenodd" d="M495.07 531.712L494.243 514.344L476.875 514.344C464.522 523.028 444.621 528.403 444.621 528.403V531.712H476.048L486.8 530.058V531.712H495.07Z" fill="#191847"/>
<path fill-rule="evenodd" clip-rule="evenodd" d="M392.516 531.712L391.689 514.344L374.321 514.344C361.968 523.028 342.066 528.403 342.066 528.403V531.712H373.494L384.245 530.058V531.712H392.516Z" fill="#191847"/>
<path fill-rule="evenodd" clip-rule="evenodd" d="M417.915 226.995C412.796 230.587 407.654 232.508 405.146 232.044C398.856 230.881 396.716 208.316 400.878 199.072C405.039 189.828 429.347 184.235 431.814 201.805C432.67 207.903 430.477 213.551 426.986 218.278L436.012 249.577L416.21 250.953L417.915 226.995Z" fill="#B28B67"/>
<path fill-rule="evenodd" clip-rule="evenodd" d="M424.96 197.323C413.54 198.199 405.556 198.27 400.919 197.336C400.857 193.449 404.579 188.791 415.197 188.053C427.01 187.232 433.826 193.676 434.38 201.642C434.886 208.919 430.818 218.108 427.277 218.717C426.339 218.579 425.473 217.52 424.582 216.041C426 215.224 426.911 213.469 426.759 211.292C426.614 209.198 424.625 207.295 422.347 207.454C421.517 207.511 420.762 207.835 420.146 208.324C418.481 206.018 416.48 204.348 413.869 204.726L415.175 199.661L425.018 198.148L424.96 197.323Z" fill="#191847"/>
<path fill-rule="evenodd" clip-rule="evenodd" d="M338.567 289.97L368.534 303.13L358.966 315.389L336.522 298.181C325.311 296.122 320.112 294.353 320.925 292.874C321.609 291.627 322.884 291.557 324.058 291.492C324.972 291.442 325.826 291.395 326.292 290.798C327.357 289.434 324.729 285.22 322.064 281.328C319.4 277.436 321.897 277.576 323.359 278.042C328.248 280.762 333.317 284.738 338.567 289.97ZM466.674 313.184L483.843 311.242C492.778 342.387 498.227 359.5 500.188 362.582C501.627 364.841 511.134 371.146 517.634 374.631C520.244 376.03 519.472 378.269 518.617 378.935C513.223 383.133 508.703 381.127 503.782 378.943C502.357 378.311 500.899 377.664 499.376 377.148C495.435 375.813 494.038 377.78 492.717 379.639C491.548 381.285 490.439 382.847 487.678 381.956C487.852 381.415 488.061 380.809 488.287 380.155C489.745 375.927 491.895 369.693 489.802 365.792C488.728 363.79 481.019 346.254 466.674 313.184Z" fill="#B28B67"/>
<path fill-rule="evenodd" clip-rule="evenodd" d="M426.676 243.348L419.525 242.121C403.948 257.232 397.592 293.533 387.211 298.339C377.396 302.882 363.483 298.485 346.945 292.549L341.881 303.865C356.907 320.121 388.918 333.855 401.894 326.015C422.639 313.479 427.428 268.707 426.676 243.348Z" fill="#7A82D1"/>
<path fill-rule="evenodd" clip-rule="evenodd" d="M457.855 333.22C457.855 333.22 414.843 333.22 394.577 333.22C391.686 333.22 392.23 329.045 392.648 326.938C397.473 302.623 416.304 276.412 416.304 241.8L434.556 238.938C449.653 263.218 454.874 293.113 457.855 333.22Z" fill="#E9EEF1"/>
<path fill-rule="evenodd" clip-rule="evenodd" d="M432.423 238.902L435.706 239.176C474.407 267.721 495.812 308.75 499.922 362.264L486.488 363.75C480.275 355.159 473.131 342.451 465.055 325.626C466.817 334.063 468.065 342.465 468.604 350.588H411.644C400.617 322.721 425.195 238.937 425.195 238.937H432.214C432.259 239.017 432.304 239.097 432.349 239.177L432.423 238.902Z" fill="#8991DC"/>
<path d="M129.227 301.689H71.0304C67.788 301.689 64.6795 302.977 62.3894 305.269C60.0993 307.561 58.8086 310.67 58.8086 313.911V372.108C58.8086 375.35 60.0993 378.458 62.3894 380.75C64.6795 383.042 67.788 384.33 71.0304 384.33H129.227C132.47 384.33 135.578 383.042 137.868 380.75C140.159 378.458 141.449 375.35 141.449 372.108V313.911C141.449 310.67 140.159 307.561 137.868 305.269C135.578 302.977 132.47 301.689 129.227 301.689Z" fill="#4D61FC"/>
<path opacity="0.3" d="M129.227 301.689H71.0304C67.788 301.689 64.6795 302.977 62.3894 305.269C60.0993 307.561 58.8086 310.67 58.8086 313.911V372.108C58.8086 375.35 60.0993 378.458 62.3894 380.75C64.6795 383.042 67.788 384.33 71.0304 384.33H129.227C132.47 384.33 135.578 383.042 137.868 380.75C140.159 378.458 141.449 375.35 141.449 372.108V313.911C141.449 310.67 140.159 307.561 137.868 305.269C135.578 302.977 132.47 301.689 129.227 301.689Z" fill="black"/>
<path d="M122.458 301.689H64.2218C60.9794 301.689 57.8709 302.977 55.5808 305.269C53.2907 307.561 52 310.67 52 313.911V372.108C52 375.35 53.2907 378.458 55.5808 380.75C57.8709 383.042 60.9794 384.33 64.2218 384.33H122.458C125.7 384.33 128.809 383.042 131.099 380.75C133.389 378.458 134.68 375.35 134.68 372.108V313.911C134.68 310.67 133.389 307.561 131.099 305.269C128.809 302.977 125.7 301.689 122.458 301.689Z" fill="#4D61FC"/>
<g opacity="0.7">
<path opacity="0.7" d="M77.2971 328.52H74.3696L62.2344 343.574L74.3696 358.637H77.2971L81.8223 354.112L71.2925 343.574L81.8223 333.068L77.2971 328.52Z" fill="white"/>
<path opacity="0.7" d="M112.572 328.52H109.652L108.078 333.045L118.608 343.574L108.078 354.112L109.652 358.637H112.572L127.635 343.574L112.572 328.52Z" fill="white"/>
<path opacity="0.7" d="M82.4375 362.64L85.3729 365.222H88.3004L106.07 323.386L100.215 320.805H97.2878L82.4375 362.64Z" fill="white"/>
</g>
<path d="M74.3675 328.518L59.3047 343.572L74.3675 358.635L78.9005 354.11L68.3707 343.572L78.9005 333.066L74.3675 328.518Z" fill="#F0F0F0"/>
<path d="M109.646 328.518L105.113 333.043L115.651 343.572L105.113 354.11L109.646 358.635L124.709 343.572L109.646 328.518Z" fill="#F0F0F0"/>
<path d="M79.5039 362.64L85.3669 365.222L103.145 323.386L97.2817 320.805L79.5039 362.64Z" fill="#F0F0F0"/>
<path d="M235.861 112.982H189.846C187.281 112.982 184.822 114.001 183.007 115.814C181.194 117.629 180.176 120.087 180.176 122.652V168.668C180.176 171.233 181.194 173.692 183.007 175.506C184.822 177.319 187.281 178.338 189.846 178.338H235.861C238.429 178.338 240.886 177.319 242.695 175.506C244.515 173.692 245.531 171.233 245.531 168.668V122.652C245.531 120.087 244.515 117.629 242.695 115.814C240.886 114.001 238.429 112.982 235.861 112.982Z" fill="#4D61FC"/>
<path opacity="0.6" d="M235.861 112.982H189.846C187.281 112.982 184.822 114.001 183.007 115.814C181.194 117.629 180.176 120.087 180.176 122.652V168.668C180.176 171.233 181.194 173.692 183.007 175.506C184.822 177.319 187.281 178.338 189.846 178.338H235.861C238.429 178.338 240.886 177.319 242.695 175.506C244.515 173.692 245.531 171.233 245.531 168.668V122.652C245.531 120.087 244.515 117.629 242.695 115.814C240.886 114.001 238.429 112.982 235.861 112.982Z" fill="white"/>
<path d="M230.514 112.982H184.498C181.933 112.982 179.474 114.001 177.66 115.814C175.846 117.629 174.828 120.087 174.828 122.652V168.668C174.828 171.233 175.846 173.692 177.66 175.506C179.474 177.319 181.933 178.338 184.498 178.338H230.514C233.078 178.338 235.538 177.319 237.347 175.506C239.167 173.692 240.184 171.233 240.184 168.668V122.652C240.184 120.087 239.167 117.629 237.347 115.814C235.538 114.001 233.078 112.982 230.514 112.982Z" fill="white"/>
<path d="M220.763 137.929L217.894 140.799C219.704 144.116 220.258 147.974 219.455 151.667C218.651 155.359 216.543 158.639 213.517 160.903C210.492 163.168 206.751 164.265 202.981 163.995C199.212 163.726 195.666 162.106 192.994 159.434C190.321 156.762 188.702 153.216 188.433 149.447C188.163 145.677 189.26 141.936 191.525 138.911C193.789 135.885 197.069 133.777 200.762 132.973C204.454 132.169 208.312 132.724 211.63 134.534L214.499 131.665C210.395 129.099 205.488 128.133 200.717 128.952C195.947 129.771 191.643 132.318 188.63 136.105C185.616 139.894 184.102 144.659 184.375 149.493C184.65 154.325 186.693 158.889 190.116 162.312C193.539 165.735 198.103 167.778 202.936 168.053C207.769 168.326 212.534 166.812 216.323 163.799C220.11 160.785 222.657 156.481 223.476 151.71C224.295 146.94 223.329 142.034 220.763 137.929Z" fill="#4D61FC"/>
<path d="M215.707 143.008L212.637 146.079C212.852 146.804 212.957 147.556 212.949 148.312C212.954 150.513 212.137 152.637 210.661 154.268C209.185 155.901 207.154 156.925 204.964 157.141C202.774 157.357 200.582 156.749 198.815 155.437C197.047 154.125 195.833 152.202 195.407 150.043C195.062 148.325 195.236 146.544 195.906 144.925C196.576 143.307 197.712 141.925 199.17 140.954C200.626 139.975 202.34 139.455 204.094 139.457C204.849 139.461 205.601 139.566 206.328 139.77L209.398 136.699C207.721 135.913 205.891 135.509 204.039 135.516C201.507 135.516 199.034 136.266 196.929 137.672C194.825 139.079 193.185 141.076 192.216 143.415C191.248 145.754 190.994 148.327 191.488 150.809C191.981 153.291 193.201 155.571 194.991 157.36C196.78 159.15 199.06 160.369 201.542 160.863C204.024 161.356 206.598 161.103 208.936 160.135C211.274 159.166 213.272 157.525 214.679 155.422C216.085 153.317 216.835 150.843 216.835 148.312C216.858 146.483 216.477 144.672 215.718 143.008H215.707Z" fill="#4D61FC"/>
<path d="M204.095 154.265C202.729 154.265 201.404 153.791 200.348 152.925C199.292 152.058 198.568 150.851 198.301 149.511C198.034 148.172 198.24 146.78 198.884 145.574C199.529 144.369 200.57 143.425 201.832 142.901C203.095 142.379 204.5 142.308 205.808 142.706C207.116 143.102 208.246 143.94 209.005 145.075C209.764 146.212 210.106 147.576 209.972 148.936C209.839 150.296 209.237 151.567 208.272 152.534C207.164 153.642 205.662 154.265 204.095 154.265ZM204.095 146.393C203.698 146.386 203.307 146.503 202.979 146.728C202.656 146.945 202.405 147.251 202.253 147.61C202.112 147.964 202.073 148.351 202.141 148.726C202.223 149.107 202.413 149.457 202.689 149.731C202.963 150.007 203.313 150.197 203.694 150.279C204.069 150.347 204.456 150.308 204.81 150.167C205.171 150.018 205.478 149.766 205.692 149.441C205.917 149.113 206.034 148.722 206.027 148.324C206.028 148.068 205.979 147.813 205.881 147.575C205.784 147.337 205.64 147.122 205.458 146.94C205.086 146.571 204.586 146.363 204.062 146.359L204.095 146.393Z" fill="#4D61FC"/>
<path d="M231.04 127.118C230.93 126.848 230.739 126.618 230.493 126.46C230.251 126.3 229.968 126.215 229.678 126.214H226.227V122.741C226.231 122.448 226.145 122.159 225.982 121.915C225.823 121.669 225.593 121.478 225.323 121.368C225.054 121.258 224.759 121.232 224.474 121.29C224.184 121.345 223.919 121.49 223.715 121.703L217.808 127.61C217.669 127.746 217.559 127.91 217.484 128.09C217.408 128.266 217.37 128.456 217.373 128.648V132.981H217.317L203.058 147.307C202.922 147.445 202.811 147.608 202.734 147.787C202.589 148.145 202.589 148.545 202.734 148.903C202.811 149.082 202.922 149.245 203.058 149.384C203.337 149.654 203.709 149.806 204.096 149.808C204.292 149.81 204.486 149.772 204.666 149.696C204.845 149.627 205.01 149.521 205.146 149.384L219.405 135.102H223.737C223.929 135.106 224.119 135.068 224.296 134.99C224.475 134.916 224.64 134.806 224.776 134.667L230.683 128.76C230.908 128.555 231.065 128.286 231.129 127.989C231.195 127.693 231.163 127.384 231.04 127.107V127.118Z" fill="#4D61FC"/>
<path opacity="0.5" d="M231.04 127.118C230.93 126.848 230.739 126.618 230.493 126.46C230.251 126.3 229.968 126.215 229.678 126.214H226.227V122.741C226.231 122.448 226.145 122.159 225.982 121.915C225.823 121.669 225.593 121.478 225.323 121.368C225.054 121.258 224.759 121.232 224.474 121.29C224.184 121.345 223.919 121.49 223.715 121.703L217.808 127.61C217.669 127.746 217.559 127.91 217.484 128.09C217.408 128.266 217.37 128.456 217.373 128.648V132.981H217.317L203.058 147.307C202.922 147.445 202.811 147.608 202.734 147.787C202.589 148.145 202.589 148.545 202.734 148.903C202.811 149.082 202.922 149.245 203.058 149.384C203.337 149.654 203.709 149.806 204.096 149.808C204.292 149.81 204.486 149.772 204.666 149.696C204.845 149.627 205.01 149.521 205.146 149.384L219.405 135.102H223.737C223.929 135.106 224.119 135.068 224.296 134.99C224.475 134.916 224.64 134.806 224.776 134.667L230.683 128.76C230.908 128.555 231.065 128.286 231.129 127.989C231.195 127.693 231.163 127.384 231.04 127.107V127.118Z" fill="black"/>
<path d="M410.798 71.668H359.155C356.274 71.668 353.516 72.8103 351.484 74.8436C349.452 76.877 348.312 79.635 348.312 82.5103V134.154C348.312 137.029 349.452 139.787 351.484 141.82C353.516 143.854 356.274 144.996 359.155 144.996H410.798C413.679 144.996 416.437 143.854 418.469 141.82C420.502 139.787 421.641 137.029 421.641 134.154V82.5103C421.641 79.635 420.502 76.877 418.469 74.8436C416.437 72.8103 413.679 71.668 410.798 71.668Z" fill="#4D61FC"/>
<path opacity="0.3" d="M410.798 71.668H359.155C356.274 71.668 353.516 72.8103 351.484 74.8436C349.452 76.877 348.312 79.635 348.312 82.5103V134.154C348.312 137.029 349.452 139.787 351.484 141.82C353.516 143.854 356.274 144.996 359.155 144.996H410.798C413.679 144.996 416.437 143.854 418.469 141.82C420.502 139.787 421.641 137.029 421.641 134.154V82.5103C421.641 79.635 420.502 76.877 418.469 74.8436C416.437 72.8103 413.679 71.668 410.798 71.668Z" fill="black"/>
<path d="M404.802 71.668H353.159C350.278 71.668 347.52 72.8103 345.488 74.8436C343.455 76.877 342.316 79.635 342.316 82.5103V134.154C342.316 137.029 343.455 139.787 345.488 141.82C347.52 143.854 350.278 144.996 353.159 144.996H404.802C407.683 144.996 410.441 143.854 412.473 141.82C414.506 139.787 415.644 137.029 415.644 134.154V82.5103C415.644 79.635 414.506 76.877 412.473 74.8436C410.441 72.8103 407.683 71.668 404.802 71.668Z" fill="#4D61FC"/>
<path d="M385.362 129.867H372.086V133.318C372.086 133.478 372.119 133.637 372.175 133.786C372.242 133.932 372.332 134.063 372.443 134.177C372.555 134.29 372.689 134.377 372.834 134.434C372.979 134.491 373.147 134.521 373.303 134.523H374.129C374.23 134.527 374.319 134.568 374.386 134.638C374.464 134.71 374.498 134.805 374.498 134.903C374.498 135.157 374.543 135.407 374.643 135.641C374.744 135.875 374.889 136.087 375.067 136.265C375.246 136.444 375.458 136.585 375.693 136.681C375.927 136.777 376.173 136.825 376.43 136.824H381.019C381.276 136.826 381.521 136.777 381.756 136.679C381.99 136.586 382.202 136.445 382.381 136.265C382.56 136.086 382.705 135.873 382.805 135.64C382.906 135.407 382.951 135.157 382.951 134.903C382.951 134.805 382.984 134.71 383.062 134.638C383.129 134.568 383.219 134.527 383.319 134.523H384.145C384.302 134.521 384.469 134.491 384.614 134.434C384.759 134.377 384.893 134.29 385.005 134.177C385.117 134.063 385.206 133.932 385.273 133.786C385.329 133.637 385.362 133.478 385.362 133.318V129.867Z" fill="#4D61FC"/>
<path opacity="0.5" d="M385.362 129.867V133.318C385.362 133.638 385.228 133.945 385.005 134.171C384.771 134.397 384.469 134.523 384.145 134.523H383.319C383.219 134.527 383.129 134.568 383.062 134.638C382.984 134.71 382.951 134.805 382.951 134.903C382.951 135.157 382.906 135.407 382.805 135.64C382.705 135.873 382.56 136.086 382.381 136.265C382.202 136.445 381.99 136.586 381.756 136.679C381.521 136.777 381.276 136.826 381.019 136.824H376.362C375.983 136.826 375.603 136.711 375.279 136.493C374.967 136.275 374.721 135.966 374.587 135.607C374.487 135.385 374.442 135.145 374.442 134.903C374.442 134.803 374.397 134.705 374.33 134.635C374.263 134.564 374.163 134.523 374.062 134.523H373.203C372.879 134.52 372.577 134.392 372.354 134.166C372.242 134.054 372.153 133.922 372.097 133.776C372.041 133.631 372.008 133.475 372.008 133.318V129.867H385.362Z" fill="black"/>
<path d="M388.489 96.4139C386.881 95.1052 385.039 94.1293 383.051 93.5442C380.058 92.6632 376.876 92.7012 373.906 93.6525C370.936 94.605 368.323 96.4273 366.414 98.8827C364.493 101.339 363.354 104.315 363.142 107.425C362.941 110.536 363.678 113.635 365.252 116.323C366.302 118.105 367.698 119.662 369.35 120.901C370.701 121.941 371.617 123.458 371.885 125.144C371.885 125.144 371.985 128.092 372.03 128.092H385.362C385.362 128.092 385.429 125.122 385.474 125.144C385.831 123.356 386.848 121.764 388.31 120.678C390.142 119.235 391.627 117.398 392.654 115.304C393.681 113.209 394.228 110.911 394.239 108.577C394.262 106.245 393.748 103.939 392.754 101.829C391.761 99.7191 390.298 97.861 388.489 96.3916V96.4139Z" fill="white"/>
<path opacity="0.2" d="M390.006 97.8206C390.364 99.2856 390.587 100.781 390.665 102.287C391.246 107.87 389.013 117.596 376.239 121.526C375.758 121.674 375.345 121.972 375.044 122.375C374.742 122.775 374.586 123.26 374.586 123.76V128.103H385.484V125.133C385.841 123.344 386.858 121.753 388.32 120.667C390.018 119.332 391.413 117.659 392.429 115.755C393.446 113.848 394.049 111.753 394.205 109.601C394.372 107.449 394.082 105.286 393.356 103.252C392.642 101.217 391.503 99.356 390.018 97.7871L390.006 97.8206Z" fill="#4D61FC"/>
<g opacity="0.6">
<path opacity="0.6" d="M382.025 128.114H380.517V113.14H376.888V128.114H375.37V113.14H373.527C372.869 113.139 372.21 112.941 371.663 112.57C371.116 112.203 370.691 111.683 370.434 111.074C370.122 110.307 370.099 109.451 370.379 108.671C370.658 107.891 371.216 107.242 371.953 106.851C372.679 106.459 373.527 106.352 374.331 106.551C375.135 106.749 375.839 107.239 376.308 107.925C376.676 108.477 376.877 109.126 376.877 109.79V111.632H380.506V109.79C380.506 109.126 380.707 108.477 381.076 107.925C381.545 107.239 382.248 106.749 383.052 106.551C383.856 106.352 384.705 106.459 385.43 106.851C386.167 107.242 386.726 107.891 387.005 108.671C387.284 109.451 387.262 110.307 386.949 111.074C386.692 111.683 386.268 112.203 385.721 112.57C385.174 112.941 384.515 113.139 383.856 113.14H382.014L382.025 128.114ZM382.025 111.632H383.867C384.236 111.631 384.593 111.523 384.895 111.32C385.196 111.119 385.43 110.831 385.564 110.493C385.71 110.158 385.743 109.79 385.676 109.433C385.62 109.166 385.509 108.913 385.352 108.696C385.185 108.477 384.973 108.296 384.738 108.168C384.493 108.038 384.236 107.963 383.957 107.949C383.689 107.934 383.421 107.979 383.164 108.082C382.829 108.224 382.539 108.461 382.338 108.763C382.137 109.066 382.025 109.424 382.025 109.79V111.632ZM373.527 107.948C373.036 107.948 372.567 108.142 372.221 108.487C371.875 108.833 371.685 109.301 371.685 109.79C371.685 110.279 371.875 110.747 372.221 111.093C372.567 111.438 373.036 111.632 373.527 111.632H375.37V109.79C375.37 109.548 375.325 109.308 375.225 109.087C375.135 108.863 375.001 108.659 374.834 108.484C374.655 108.317 374.454 108.182 374.231 108.082C374.008 107.992 373.773 107.946 373.527 107.948Z" fill="#4D61FC"/>
</g>
<path d="M407.149 110.694V109.902H406.926C406.803 109.712 406.646 109.554 406.445 109.444C406.256 109.325 406.032 109.261 405.809 109.254H400.594C400.349 109.255 400.103 109.32 399.891 109.444C399.679 109.572 399.5 109.752 399.377 109.969L399.188 109.879V110.65C399.188 110.834 399.221 111.017 399.299 111.186C399.366 111.356 399.467 111.513 399.601 111.643C399.735 111.766 399.891 111.868 400.058 111.945C400.226 112.012 400.416 112.045 400.594 112.045H405.809C406.166 112.031 406.501 111.885 406.747 111.633C406.993 111.383 407.138 111.047 407.149 110.694Z" fill="#4D61FC"/>
<path opacity="0.2" d="M407.149 110.695V109.925H406.926C406.803 109.735 406.646 109.578 406.445 109.467C406.256 109.354 406.032 109.289 405.809 109.277H400.594C400.349 109.278 400.103 109.343 399.891 109.467C399.679 109.598 399.5 109.779 399.377 109.992L399.188 109.903V110.673C399.188 110.857 399.221 111.04 399.299 111.209C399.366 111.381 399.467 111.536 399.601 111.667C399.735 111.794 399.891 111.896 400.058 111.968C400.226 112.035 400.416 112.069 400.594 112.069H405.809C406.166 112.055 406.501 111.907 406.747 111.656C407.004 111.401 407.149 111.056 407.149 110.695Z" fill="black"/>
<path d="M405.751 111.307C406.12 111.307 406.477 111.16 406.734 110.898C407.002 110.637 407.147 110.282 407.147 109.911C407.147 109.542 407.002 109.187 406.734 108.924C406.477 108.663 406.12 108.516 405.751 108.516H400.536C400.168 108.516 399.811 108.663 399.554 108.924C399.286 109.187 399.141 109.542 399.141 109.911C399.141 110.282 399.286 110.637 399.554 110.898C399.811 111.16 400.168 111.307 400.536 111.307H405.751Z" fill="white"/>
<path d="M379.132 79.832H378.351V80.0554C378.161 80.1748 378.005 80.3401 377.893 80.5355C377.781 80.7298 377.714 80.9475 377.703 81.172V86.3865C377.703 86.6333 377.77 86.8756 377.893 87.09C378.027 87.3066 378.206 87.4842 378.429 87.6036L378.328 87.7823H379.099C379.467 87.779 379.825 87.6316 380.082 87.3703C380.338 87.109 380.495 86.7561 380.495 86.3865V81.172C380.483 80.818 380.338 80.483 380.082 80.234C379.825 79.9872 379.49 79.8443 379.132 79.832Z" fill="#4D61FC"/>
<path opacity="0.2" d="M379.129 79.832H378.359V80.0554C378.169 80.1748 378.012 80.3401 377.901 80.5355C377.789 80.7298 377.722 80.9475 377.711 81.172V86.3865C377.711 86.6333 377.778 86.8756 377.901 87.09C378.035 87.3066 378.213 87.4842 378.437 87.6036L378.336 87.7823H379.107C379.475 87.779 379.833 87.6316 380.089 87.3703C380.346 87.109 380.502 86.7561 380.502 86.3865V81.172C380.491 80.8158 380.335 80.4786 380.078 80.234C379.955 80.1067 379.81 80.0051 379.643 79.9359C379.486 79.8677 379.308 79.832 379.129 79.832Z" fill="black"/>
<path d="M379.76 81.2278C379.76 80.8571 379.615 80.5031 379.347 80.2407C379.09 79.9794 378.733 79.832 378.365 79.832C377.996 79.832 377.639 79.9794 377.382 80.2407C377.114 80.5031 376.969 80.8571 376.969 81.2278V86.4424C376.969 86.812 377.114 87.1671 377.382 87.4295C377.639 87.6908 377.996 87.8381 378.365 87.8381C378.733 87.8381 379.09 87.6908 379.347 87.4295C379.615 87.1671 379.76 86.812 379.76 86.4424V81.2278Z" fill="white"/>
<path d="M358.252 110.694V109.902H358.04C357.917 109.701 357.739 109.535 357.526 109.421C357.325 109.31 357.091 109.253 356.856 109.254H351.642C351.396 109.255 351.151 109.32 350.939 109.444C350.726 109.574 350.548 109.755 350.425 109.969L350.246 109.879V110.65C350.246 111.019 350.403 111.372 350.659 111.633C350.916 111.895 351.273 112.042 351.642 112.045H356.856C357.214 112.045 357.571 111.905 357.828 111.652C358.085 111.4 358.241 111.057 358.252 110.694Z" fill="#4D61FC"/>
<path opacity="0.2" d="M358.252 110.695V109.925H358.04C357.917 109.724 357.739 109.559 357.526 109.445C357.325 109.333 357.091 109.276 356.856 109.277H351.642C351.396 109.278 351.151 109.343 350.939 109.467C350.726 109.598 350.548 109.779 350.425 109.992L350.246 109.903V110.673C350.246 111.043 350.403 111.396 350.659 111.657C350.916 111.918 351.273 112.066 351.642 112.069H356.856C357.225 112.069 357.571 111.925 357.839 111.668C358.096 111.411 358.241 111.062 358.252 110.695Z" fill="black"/>
<path d="M356.856 111.321C357.225 111.321 357.582 111.173 357.839 110.912C358.107 110.651 358.252 110.296 358.252 109.925C358.252 109.555 358.107 109.2 357.839 108.938C357.582 108.677 357.225 108.529 356.856 108.529H351.642C351.273 108.529 350.916 108.677 350.659 108.938C350.391 109.2 350.246 109.555 350.246 109.925C350.246 110.296 350.391 110.651 350.659 110.912C350.916 111.173 351.273 111.321 351.642 111.321H356.856Z" fill="white"/>
<path d="M400.326 89.611L399.767 89.0527L399.644 89.2314C399.421 89.17 399.175 89.17 398.952 89.2314C398.729 89.2973 398.517 89.4201 398.349 89.5887L394.91 93.039C394.731 93.211 394.597 93.4299 394.541 93.6699C394.474 93.91 394.486 94.1635 394.553 94.4013L394.352 94.4683L394.91 95.0154C395.178 95.2723 395.524 95.4152 395.892 95.4152C396.261 95.4152 396.607 95.2723 396.875 95.0154L400.326 91.5651C400.46 91.4367 400.56 91.2804 400.627 91.1073C400.694 90.9376 400.739 90.7556 400.739 90.5713C400.739 90.3871 400.694 90.2062 400.627 90.0354C400.56 89.8668 400.46 89.7149 400.326 89.5887V89.611Z" fill="#4D61FC"/>
<path opacity="0.2" d="M400.326 89.6116L399.778 89.0645L399.644 89.232C399.421 89.1705 399.175 89.1705 398.952 89.232C398.729 89.2978 398.517 89.4207 398.349 89.5893L394.91 93.0396C394.731 93.2116 394.597 93.4304 394.541 93.6705C394.474 93.9106 394.486 94.164 394.553 94.4019L394.352 94.4689L394.91 95.016C395.178 95.2728 395.524 95.4158 395.892 95.4158C396.261 95.4158 396.607 95.2728 396.875 95.016L400.326 91.5657C400.46 91.4373 400.56 91.2809 400.627 91.1079C400.694 90.9381 400.739 90.7561 400.739 90.5719C400.739 90.3876 400.694 90.2068 400.627 90.0359C400.56 89.8673 400.46 89.7154 400.326 89.5893V89.6116Z" fill="black"/>
<path d="M397.767 89.0643L394.417 92.5594C394.16 92.8218 394.004 93.1768 394.004 93.5475C394.004 93.9183 394.16 94.2734 394.417 94.5358C394.674 94.7982 395.031 94.9455 395.411 94.9455C395.779 94.9455 396.137 94.7982 396.393 94.5358L399.844 91.0854C400.101 90.823 400.257 90.4679 400.257 90.0972C400.257 89.7265 400.101 89.3714 399.844 89.109C399.587 88.8466 399.23 88.6992 398.85 88.6992C398.481 88.6992 398.124 88.8466 397.867 89.109L397.767 89.0643Z" fill="white"/>
<path d="M356.78 89.611L357.339 89.0527L357.461 89.2314C357.685 89.17 357.93 89.17 358.154 89.2314C358.377 89.2973 358.589 89.4201 358.757 89.5887L362.196 93.039C362.375 93.211 362.508 93.4299 362.564 93.6699C362.631 93.91 362.62 94.1635 362.553 94.4013L362.754 94.4683L362.196 95.0154C361.928 95.2723 361.582 95.4152 361.213 95.4152C360.845 95.4152 360.499 95.2723 360.231 95.0154L356.78 91.5651C356.646 91.4367 356.546 91.2804 356.479 91.1073C356.412 90.9376 356.367 90.7556 356.367 90.5713C356.367 90.3871 356.412 90.2062 356.479 90.0354C356.546 89.8757 356.658 89.7305 356.78 89.611Z" fill="#4D61FC"/>
<path opacity="0.2" d="M356.78 89.6116L357.327 89.0645L357.461 89.232C357.685 89.1705 357.93 89.1705 358.154 89.232C358.377 89.2978 358.589 89.4207 358.757 89.5893L362.196 93.0396C362.375 93.2116 362.508 93.4304 362.564 93.6705C362.631 93.9106 362.62 94.164 362.553 94.4019L362.754 94.4689L362.196 95.016C361.928 95.2728 361.582 95.4158 361.213 95.4158C360.845 95.4158 360.499 95.2728 360.231 95.016L356.78 91.5657C356.646 91.4373 356.546 91.2809 356.479 91.1079C356.412 90.9381 356.367 90.7561 356.367 90.5719C356.367 90.3876 356.412 90.2068 356.479 90.0359C356.546 89.8762 356.658 89.7311 356.78 89.6116Z" fill="black"/>
<path d="M359.289 89.0543C359.155 88.9248 359.009 88.821 358.831 88.7506C358.663 88.6803 358.485 88.6445 358.306 88.6445C358.116 88.6445 357.937 88.6803 357.77 88.7506C357.591 88.821 357.446 88.9248 357.312 89.0543C357.055 89.319 356.91 89.674 356.91 90.0425C356.91 90.4121 357.055 90.7661 357.312 91.0307L360.774 94.4811C361.042 94.7178 361.388 94.844 361.745 94.8328C362.102 94.8216 362.437 94.6754 362.694 94.4219C362.94 94.1695 363.085 93.8301 363.096 93.4728C363.107 93.1166 362.973 92.7704 362.739 92.5047L359.289 89.0543Z" fill="white"/>
<path opacity="0.5" d="M382.134 129.867V133.318C382.134 133.637 382 133.942 381.777 134.167C381.553 134.393 381.252 134.52 380.928 134.523H374.027C374.128 134.523 374.228 134.564 374.295 134.635C374.362 134.705 374.407 134.803 374.407 134.903C374.396 134.996 374.396 135.09 374.407 135.182H379.7L379.555 135.607C379.409 135.964 379.164 136.27 378.851 136.489C378.527 136.716 378.137 136.834 377.735 136.824H381.017C381.274 136.826 381.52 136.777 381.754 136.679C381.989 136.586 382.201 136.445 382.38 136.265C382.558 136.086 382.703 135.873 382.804 135.64C382.904 135.407 382.949 135.157 382.949 134.903C382.949 134.805 382.983 134.71 383.061 134.638C383.128 134.568 383.217 134.527 383.318 134.523H384.144C384.3 134.521 384.468 134.491 384.613 134.434C384.758 134.377 384.892 134.29 385.004 134.177C385.115 134.063 385.205 133.932 385.272 133.786C385.328 133.637 385.361 133.478 385.361 133.318V129.867H382.134Z" fill="black"/>
<defs>
<linearGradient id="paint0_linear" x1="341.262" y1="116.883" x2="240.969" y2="531.789" gradientUnits="userSpaceOnUse">
<stop stop-color="#00C6FF"/>
<stop offset="1" stop-color="#00C6FF" stop-opacity="0"/>
</linearGradient>
</defs>
</svg>
