<svg width="600" height="600" viewBox="0 0 600 600" fill="none" xmlns="http://www.w3.org/2000/svg">
<g clip-path="url(#clip0)">
<path d="M408.9 146.409C462.317 171.113 524.346 203.896 556.026 257.867C587.742 311.436 588.671 386.56 550.572 430.575C512.876 474.625 435.311 487.896 374.45 505.111C313.15 522.691 268.553 544.214 212.267 555.758C156.384 567.337 89.2127 568.973 56.9232 535.228C25.0367 501.519 28.4344 432.464 26.8939 373.104C25.7563 313.781 19.6806 264.151 32.7627 218.282C45.8448 172.412 78.1574 129.497 120.263 108.56C162.406 87.2198 214.745 87.894 262.73 96.2871C311.118 104.717 355.886 121.743 408.9 146.409Z" fill="#0072FF"/>
<path d="M408.9 146.409C462.317 171.113 524.346 203.896 556.026 257.867C587.742 311.436 588.671 386.56 550.572 430.575C512.876 474.625 435.311 487.896 374.45 505.111C313.15 522.691 268.553 544.214 212.267 555.758C156.384 567.337 89.2127 568.973 56.9232 535.228C25.0367 501.519 28.4344 432.464 26.8939 373.104C25.7563 313.781 19.6806 264.151 32.7627 218.282C45.8448 172.412 78.1574 129.497 120.263 108.56C162.406 87.2198 214.745 87.894 262.73 96.2871C311.118 104.717 355.886 121.743 408.9 146.409Z" fill="url(#paint0_linear)"/>
<circle opacity="0.35" r="74" transform="matrix(-1 0 0 1 370 131)" fill="#FFD48F"/>
<path fill-rule="evenodd" clip-rule="evenodd" d="M73.3475 299.682C84.2205 282.052 92.4401 266.54 96.0048 258.255C102.108 244.071 106.978 231.525 108.41 226.79C111.826 215.498 95.1569 212.665 92.2024 218.115C87.7306 226.363 78.2001 254.129 65.6122 296.301L73.3475 299.682Z" fill="#B28B67"/>
<path fill-rule="evenodd" clip-rule="evenodd" d="M83.9642 284.933C92.6852 263.817 113.526 251.011 116.404 224.745C120.089 212.942 97.5257 207.723 92.2079 213.353C82.7319 223.383 70.9423 276.801 68.8384 280.643L83.9642 284.933Z" fill="#DB2721"/>
<path d="M270.943 451.498H291.202H310.529H330.788C330.788 451.498 325.96 536.422 355.703 536.422H310.529H291.202H246.027C275.779 536.422 270.943 451.498 270.943 451.498Z" fill="#255175"/>
<path d="M110.683 234.098H491.062C497.099 234.098 502 238.982 502 245.027V469.176V471.43V488.813C502 494.075 497.728 498.355 492.459 498.355H109.262C104.017 498.355 99.7363 494.075 99.7363 488.813V471.43V469.176V245.027C99.737 238.982 104.622 234.098 110.683 234.098Z" fill="#9DB4C3"/>
<path d="M112.774 246.729H488.945V448.689H112.774V246.729Z" fill="#F2F2F2"/>
<path d="M112.644 447.023H489.094V458.786H112.644V447.023Z" fill="#D3D3D3"/>
<path d="M290.981 478.098C290.981 483.555 295.4 487.966 300.865 487.966C306.323 487.966 310.75 483.554 310.75 478.098C310.75 472.608 306.323 468.197 300.865 468.197C295.4 468.197 290.981 472.608 290.981 478.098Z" fill="#255175"/>
<path d="M244.901 534.756H356.84V538.547H244.901V534.756Z" fill="#9DB4C3"/>
<path d="M189.989 291.223H402.586V423.331H189.989V291.223Z" fill="white"/>
<path d="M189.989 280.734H402.586V291.224H189.989V280.734Z" fill="#0072FF"/>
<path d="M360.531 329.325H337.626L349.07 322.332L360.531 315.373L371.993 322.332L383.445 329.325H360.531Z" fill="#FFD48F"/>
<path d="M309.246 329.322H274.798L292.026 317.33L309.246 305.338L326.475 317.33L343.703 329.322H309.246Z" fill="#FFD48F"/>
<path d="M253.412 329.322H205.46L229.444 323.997L253.412 318.703L277.411 323.997L301.371 329.322H253.412Z" fill="#FFD48F"/>
<path d="M382.098 375.787H387.562V404.346H382.098V375.787Z" fill="#01C6FF"/>
<path d="M372.238 390.068H377.695V404.348H372.238V390.068Z" fill="#01C6FF"/>
<path d="M362.371 368.209H367.836V404.348H362.371V368.209Z" fill="#01C6FF"/>
<path d="M235.703 374.973H243.953V403.531H235.703V374.973Z" fill="#01C6FF"/>
<path d="M220.804 389.25H229.055V403.53H220.804V389.25Z" fill="#01C6FF"/>
<path d="M205.902 367.391H214.152V403.531H205.902V367.391Z" fill="#01C6FF"/>
<path d="M352.5 362.523H357.965V404.349H352.5V362.523Z" fill="#01C6FF"/>
<path d="M259.505 362.523H325.902V404.349H259.505V362.523Z" fill="#0072FF"/>
<path d="M325.902 404.348L311.329 388.238L298.364 397.224L278.13 373.045L259.505 404.348H325.902Z" fill="white"/>
<path fill-rule="evenodd" clip-rule="evenodd" d="M179.04 253.586C171.675 249.518 145.735 236.412 132.978 232.006C129.312 230.74 125.755 229.544 122.407 228.446C112.456 225.183 104.797 242.906 114.44 245.587C138.456 252.265 172.678 260.376 175.594 261.167C179.681 262.276 183.669 256.143 179.04 253.586Z" fill="#B28B67"/>
<path fill-rule="evenodd" clip-rule="evenodd" d="M157.141 201.321C157.141 201.321 94.2208 208.987 92.3167 213.187C90.4126 217.388 109.082 225.324 109.082 225.324L161.533 206.617L162.133 201.965L157.141 201.321Z" fill="#DB2721"/>
<path fill-rule="evenodd" clip-rule="evenodd" d="M153.652 240.228C157.592 239.955 161.217 239.724 164.312 239.584C184.304 238.676 191.355 228.947 190.929 205.679L154.909 201.034C148.807 201.965 116.575 210.845 99.8297 215.619C88.747 218.779 89.9582 235.479 95.3584 240.481C95.3572 240.745 95.4414 240.935 95.6218 241.039C116.962 253.291 136.277 255.073 148.681 256.218C153.876 256.697 157.858 257.064 160.269 258.042L165.77 246.212L153.652 240.228Z" fill="#FF4133"/>
<path fill-rule="evenodd" clip-rule="evenodd" d="M178.499 254.169C178.725 253.02 179.822 252.214 180.956 252.507C182.255 252.842 183.815 253.319 184.607 253.841C186.111 254.83 188.667 257.23 188.667 257.23C187.519 258.975 168.028 288.591 168.028 288.591C168.028 288.591 163.183 287.154 164.594 284.308C166.005 281.463 166.891 279.55 166.891 279.55L169.93 261.036C170.021 260.48 170.554 260.109 171.107 260.216L173.659 260.71C173.659 260.71 176.401 259.02 177.404 257.496C177.908 256.73 178.267 255.351 178.499 254.169Z" fill="#191847"/>
<path fill-rule="evenodd" clip-rule="evenodd" d="M75.2081 295.931C76.3397 295.631 77.545 296.263 77.7793 297.41C78.0475 298.724 78.3024 300.336 78.181 301.277C77.9507 303.063 76.9139 306.412 76.9139 306.412C74.8424 306.145 39.6794 301.61 39.6794 301.61C39.6794 301.61 38.8469 296.624 42.0233 296.645C45.1996 296.666 47.3077 296.624 47.3077 296.624L65.2795 291.24C65.8192 291.078 66.3858 291.394 66.5322 291.938L67.2072 294.447C67.2072 294.447 69.9279 296.171 71.7377 296.405C72.6471 296.522 74.0436 296.24 75.2081 295.931Z" fill="#E4E4E4"/>
<path fill-rule="evenodd" clip-rule="evenodd" d="M75.2081 295.933C76.3397 295.632 77.545 296.265 77.7793 297.412C78.0475 298.726 78.3024 300.338 78.181 301.279C77.9507 303.065 76.9139 306.414 76.9139 306.414C74.8424 306.147 39.6794 301.611 39.6794 301.611C39.6794 301.611 38.8469 296.626 42.0232 296.647C45.1996 296.667 47.3077 296.626 47.3077 296.626L65.2795 291.241C65.8192 291.08 66.3858 291.396 66.5322 291.94L67.2072 294.449C67.2072 294.449 69.9279 296.173 71.7377 296.407C72.6471 296.524 74.0436 296.242 75.2081 295.933Z" fill="#191847"/>
<path fill-rule="evenodd" clip-rule="evenodd" d="M164.073 110.921C159.788 113.51 155.577 114.762 153.601 114.251C148.645 112.97 148.189 94.7925 152.024 87.6264C155.859 80.4603 175.573 77.3368 176.567 91.5352C176.911 96.4631 174.847 100.861 171.798 104.45L177.266 129.999H161.383L164.073 110.921Z" fill="#B28B67"/>
<path fill-rule="evenodd" clip-rule="evenodd" d="M183.491 86.809C184.004 86.2994 184.284 85.5719 184.526 84.8812C184.778 84.1636 185.022 83.4387 185.189 82.6918C185.522 81.1995 185.525 79.4834 184.463 78.3246C183.612 77.3954 182.334 76.9787 181.155 76.8881C180.369 76.8277 179.562 76.938 178.809 77.1862C178.062 77.4325 177.418 77.9232 176.693 78.2279C176.666 76.6197 176.391 74.937 175.577 73.5639C174.794 72.2428 173.546 71.5014 172.124 71.3053C170.664 71.104 169.223 71.4463 167.917 72.1546C167.59 72.332 167.266 72.5179 166.956 72.7282C166.696 72.9043 166.426 73.1165 166.121 73.1881C165.782 73.268 165.613 73.0714 165.393 72.8229C165.134 72.5317 164.842 72.2751 164.534 72.0477C163.169 71.0422 161.379 70.6288 159.798 71.2315C159.07 71.5092 158.362 71.9808 157.868 72.6306C157.427 73.2098 157.113 74.1287 156.505 74.5322C156.247 74.7035 156.065 74.4766 155.83 74.3088C155.478 74.0568 155.141 73.7786 154.784 73.5334C154.282 73.189 153.739 72.9313 153.158 72.7964C152.307 72.5989 151.13 72.6452 150.887 73.763C150.796 74.1829 150.866 74.632 150.895 75.055C150.936 75.6359 150.978 76.2166 151.028 76.7966C151.066 77.2371 151.115 77.6624 151.198 78.0949C151.242 78.3254 151.38 78.7552 151.282 78.9861C151.158 79.2746 150.59 79.1106 150.347 79.1206C149.867 79.1405 149.385 79.2249 148.941 79.4304C148.597 79.5898 148.236 79.8242 148.09 80.2194C148.001 80.4621 148.025 80.7115 148.067 80.9612C148.117 81.2609 148.06 81.4199 148.022 81.7223C147.377 81.4041 145.144 80.6971 144.863 81.8552C144.769 82.2408 144.982 82.6766 145.145 83.0018C145.43 83.5722 145.804 84.0935 146.186 84.5907C146.983 85.6279 147.935 86.5225 148.959 87.2876C147.759 87.8223 147.446 89.3994 148.484 90.339C148.943 90.7539 149.56 90.8462 150.138 90.8197C150.35 90.81 150.655 90.7284 150.822 90.7654C150.911 90.7852 151.007 90.8614 151.131 90.8699C151.948 90.926 152.869 90.7288 153.667 90.5472C155.089 90.2236 156.436 89.5481 157.535 88.5194C157.817 88.2556 158.05 88.1036 158.43 88.1075C158.762 88.1109 159.089 88.2023 159.421 88.2108C160.3 88.2333 161.093 87.8023 161.91 87.5155C161.96 88.6214 162.274 89.8393 162.725 90.8342C163.093 91.6455 163.861 91.7634 164.616 91.8346C167.031 92.0624 169.454 91.8082 171.871 91.8116C169.531 92.3419 167.113 92.5605 164.793 93.1845C163.745 93.4666 164.546 94.175 164.994 94.6661C165.732 95.4748 166.281 96.4769 166.662 97.5325C167.806 96.0364 169.83 95.0506 171.623 95.5102C173.603 96.018 174.998 98.7035 173.732 100.634C172.996 101.755 171.668 102.188 170.563 102.669C171.425 103.568 171.634 104.895 172.153 106.013C172.408 106.564 172.768 107.187 173.34 107.379C173.552 107.45 173.8 107.456 173.967 107.629C174.174 107.844 174.223 108.083 174.487 108.267C175.542 109.002 177.189 108.946 178.123 107.987C178.968 107.119 178.748 105.747 178.043 104.867C179.166 104.398 181.213 103.794 180.767 102.039C183.201 101.877 189.112 97.9184 185.845 95.0257C187.638 94.0096 189.285 91.5264 188.133 89.3375C187.247 87.6519 185.184 86.8984 183.491 86.809Z" fill="#191847"/>
<path fill-rule="evenodd" clip-rule="evenodd" d="M223.18 224.405C221.234 220.463 211.511 169.727 211.511 169.727L196.97 169.781C196.97 169.781 213.582 223.526 214.607 226.061C215.937 229.354 213.677 234.139 212.144 237.383C211.907 237.885 211.687 238.35 211.501 238.767C213.628 239.717 214.65 238.569 215.727 237.358C216.943 235.99 218.23 234.543 221.261 235.95C222.431 236.494 223.539 237.137 224.622 237.766C228.36 239.936 231.795 241.929 236.467 239.05C237.208 238.594 238.019 236.876 236.058 235.533C231.172 232.187 224.131 226.332 223.18 224.405ZM100.711 204.636L119.523 186.311L125.771 197.106L106.209 208.623C101.304 216.338 98.4237 219.672 97.5672 218.624C96.8449 217.74 97.1759 216.771 97.4809 215.879C97.7184 215.184 97.94 214.536 97.6356 214.01C96.9404 212.808 93.013 213.496 89.314 214.308C85.615 215.12 86.4709 213.306 87.2571 212.359C90.7531 209.542 95.2378 206.967 100.711 204.636Z" fill="#B28B67"/>
<path fill-rule="evenodd" clip-rule="evenodd" d="M167.203 128.536L161.461 127.553C152.415 159.482 105.939 181.247 103.085 193.183C102.039 197.56 105.194 199.773 103.564 201.106L111.028 206.562C112.292 205.09 114.989 207.783 120.622 205.899C126.254 204.015 167.203 166.344 167.203 128.536Z" fill="#7A82D1"/>
<path fill-rule="evenodd" clip-rule="evenodd" d="M176.075 121.963C178.279 121.809 180.191 123.471 180.345 125.675L180.523 128.214C191.329 136.518 218.114 161.333 225.093 207.527C225.826 212.38 224.501 214.979 223.441 217.056C222.716 218.476 222.116 219.652 222.386 221.138L212.617 223.831C212.617 222.733 211.386 221.899 209.798 220.822C207.489 219.257 204.424 217.179 203.291 213.038C202.217 209.113 200.644 204.21 198.765 198.756C198.587 205.979 197.215 212.622 194.227 218.124C186.771 231.851 143.686 216.797 139.185 202.794C136.783 195.321 140.191 189.048 144.699 180.75C150.42 170.219 157.913 156.426 157.544 132.783L157.159 127.294C157.005 125.09 158.666 123.179 160.87 123.025L176.075 121.963Z" fill="#8991DC"/>
</g>
<defs>
<linearGradient id="paint0_linear" x1="299.246" y1="180" x2="197.746" y2="461" gradientUnits="userSpaceOnUse">
<stop stop-color="#00C6FF"/>
<stop offset="0.882283" stop-color="#00C6FF" stop-opacity="0"/>
</linearGradient>
<clipPath id="clip0">
<rect width="600" height="600" fill="white" transform="matrix(-1 0 0 1 600 0)"/>
</clipPath>
</defs>
</svg>
