<svg width="600" height="600" viewBox="0 0 600 600" fill="none" xmlns="http://www.w3.org/2000/svg">
<path d="M460.047 100.621C507.687 157.494 514.492 248.812 497.678 339.729C480.464 430.245 439.23 519.961 375.978 542.79C312.325 565.62 226.254 521.563 160.999 474.703C96.1457 427.842 51.7089 377.778 41.3002 323.308C31.2919 268.437 54.9115 208.76 93.3434 154.29C131.775 99.4191 184.619 49.7551 255.077 36.1376C325.135 22.1195 412.808 43.7474 460.047 100.621Z" fill="#FF416C"/>
<path d="M460.047 100.621C507.687 157.494 514.492 248.812 497.678 339.729C480.464 430.245 439.23 519.961 375.978 542.79C312.325 565.62 226.254 521.563 160.999 474.703C96.1457 427.842 51.7089 377.778 41.3002 323.308C31.2919 268.437 54.9115 208.76 93.3434 154.29C131.775 99.4191 184.619 49.7551 255.077 36.1376C325.135 22.1195 412.808 43.7474 460.047 100.621Z" fill="url(#paint0_linear)"/>
<path d="M481.254 493V495H39.8737L38 493H481.254Z" fill="#413A51"/>
<path fill-rule="evenodd" clip-rule="evenodd" d="M435.336 284.323C430.243 288.016 425.089 290.047 422.541 289.643C416.153 288.631 413.459 266.22 417.45 256.923C421.442 247.626 445.895 241.497 448.802 258.929C449.811 264.979 447.726 270.651 444.306 275.437L454.169 306.381L434.175 308.208L435.336 284.323Z" fill="#B28B67"/>
<path fill-rule="evenodd" clip-rule="evenodd" d="M415.935 261.072C416.025 259.906 416.388 258.587 416.676 257.465C417.048 256.019 417.691 254.687 418.417 253.421C419.784 251.037 421.487 248.841 423.42 246.972C426.95 243.556 431.645 241.343 436.48 241.48C438.922 241.55 441.351 242.242 443.488 243.568C445.418 244.766 447.341 246.613 449.688 246.544C452.242 246.469 454.361 244.05 456.269 242.502C458.42 240.757 460.757 239.414 463.399 238.734C467.825 237.595 472.189 238.703 475.63 242.05C479.291 245.611 482.222 251.056 480.541 256.372C480.228 257.36 479.786 258.209 479.106 258.942C478.482 259.614 477.502 260.358 477.318 261.357C477.122 262.419 478.125 263.674 478.553 264.577C479.166 265.871 479.699 267.24 479.694 268.707C479.686 271.118 478.376 273.538 476.913 275.255C475.425 277.003 473.493 278.104 471.378 278.723C469.966 279.137 468.51 279.427 467.038 279.455C466.307 279.469 465.648 279.329 464.929 279.235C464.231 279.144 463.865 279.358 463.32 279.78C460.786 281.742 457.95 282.671 454.813 282.7C452.165 282.725 449.078 282.375 446.768 280.8C444.202 279.05 443.993 276.332 444.28 273.382C443.714 273.726 442.089 274.055 442.961 272.812C443.307 272.319 444.023 272.066 444.497 271.752C445.048 271.386 445.599 270.928 446.002 270.376C447.627 268.149 445.393 264.123 443.04 263.641C439.543 262.925 439.229 267.726 436.918 269.172C435.589 270.003 434.039 269.175 432.901 268.288C431.376 267.101 430.257 265.445 429.266 263.747C428.449 262.348 427.678 260.925 426.849 259.535C426.462 258.885 425.162 257.069 425.652 256.25C423.172 255.995 420.554 257.239 418.58 258.736C417.764 259.355 417.16 260.011 416.787 261.006C416.708 261.22 416.549 261.846 416.281 261.896C415.781 261.988 415.912 261.365 415.935 261.072Z" fill="#191847"/>
<path fill-rule="evenodd" clip-rule="evenodd" d="M486.382 433H425.922L418 528H508L486.382 433Z" fill="#873264"/>
<path fill-rule="evenodd" clip-rule="evenodd" d="M486.526 433H468.055L457 528H508L486.526 433Z" fill="black" fill-opacity="0.1"/>
<path fill-rule="evenodd" clip-rule="evenodd" d="M391.356 453.018C398.619 468.178 409.969 504.979 409.969 504.979L400.333 509.312C400.333 509.312 375.885 470.627 360.943 444.182C361.64 450.135 362.349 456.838 363.006 463.883C364.563 480.574 363.007 516.635 362.169 527.051C361.643 533.598 352.604 532.226 351.76 527.034C351.617 526.155 351.035 523.067 350.166 518.461C345.905 495.873 334.752 436.756 334.733 422.281C334.725 416.457 346.287 411.224 353.179 415.297C357.912 410.326 366.871 407.461 372.018 415.672C375.29 420.892 383.064 435.712 391.356 453.018Z" fill="#B28B67"/>
<path fill-rule="evenodd" clip-rule="evenodd" d="M409.281 491.354L376.21 414.251C368.287 401.709 346.074 416.803 348.776 424.078C354.91 440.594 386.106 494.062 387.933 498.982L409.281 491.354Z" fill="#69A1AC"/>
<path fill-rule="evenodd" clip-rule="evenodd" d="M408.428 500.742C409.13 499.818 410.472 499.6 411.369 500.353C412.713 501.481 414.472 503.077 415.135 504.207C416.266 506.136 417.784 510.207 417.784 510.207C415.511 511.499 376.917 533.428 376.917 533.428C376.917 533.428 372.283 529.15 375.473 526.787C378.663 524.424 380.738 522.801 380.738 522.801L394.745 503.807C395.076 503.358 395.719 503.269 396.168 503.609L398.962 505.726C398.962 505.726 402.995 505.38 404.981 504.251C406.106 503.612 407.462 502.011 408.428 500.742Z" fill="#FAF1FC"/>
<path fill-rule="evenodd" clip-rule="evenodd" d="M361.661 522.082C362.73 521.631 363.992 522.102 364.386 523.194C364.977 524.833 365.691 527.085 365.691 528.391C365.691 530.618 364.937 534.891 364.937 534.891C362.312 534.891 317.748 534.891 317.748 534.891C317.748 534.891 315.908 528.906 319.872 528.429C323.835 527.952 326.456 527.568 326.456 527.568L348.244 518.008C348.756 517.784 349.352 518.022 349.568 518.538L350.913 521.749C350.913 521.749 354.582 523.433 356.876 523.433C358.179 523.433 360.178 522.708 361.661 522.082Z" fill="#FAF1FC"/>
<path fill-rule="evenodd" clip-rule="evenodd" d="M332.415 428.204C332.415 450.08 342.971 501.107 342.978 505.924L365.69 505.941C365.69 505.941 360.703 437.645 362.153 436.909C363.603 436.173 421.599 442.608 438.993 442.608C464.075 442.608 474.451 427.041 475.293 398.205H425.606C415.49 399.27 362.72 409.745 343.123 413.346C334.733 414.888 332.415 422.178 332.415 428.204Z" fill="#89C5CC"/>
<path fill-rule="evenodd" clip-rule="evenodd" d="M359.413 375.604L387.209 357.898L392.239 372.568L365.211 381.802C357.232 389.994 352.844 393.348 352.047 391.862C351.375 390.61 352.025 389.512 352.624 388.5C353.09 387.712 353.525 386.977 353.28 386.262C352.721 384.63 347.698 384.507 342.927 384.59C338.157 384.674 339.665 382.674 340.872 381.714C345.891 379.139 352.072 377.103 359.413 375.604ZM383.393 389.626L408.778 368.704L415.595 382.657L389.919 395.079C383.02 404.171 379.082 408.028 378.106 406.65C377.284 405.488 377.792 404.32 378.26 403.244C378.625 402.406 378.966 401.624 378.633 400.944C377.875 399.391 372.875 399.874 368.15 400.532C363.426 401.19 364.674 399.024 365.753 397.925C370.414 394.765 376.294 391.999 383.393 389.626Z" fill="#B28B67"/>
<path fill-rule="evenodd" clip-rule="evenodd" d="M431.698 308.451C415.593 334.231 393.389 353.421 361.702 372.87L372.452 386.319C407.156 375.871 425.528 369.419 435.838 344.776C438.426 338.592 441.177 318.556 443.137 308.045L431.698 308.451Z" fill="#7A82D1"/>
<path fill-rule="evenodd" clip-rule="evenodd" d="M466.938 399.508L402.627 395.772C402.627 395.772 428.412 331.454 430.352 307.039C430.418 306.209 432.065 304.836 432.743 305.068C440.182 307.61 449.029 304.436 449.029 304.436C462.828 329.454 466.318 359.471 466.938 399.508Z" fill="#F2F2F2"/>
<path fill-rule="evenodd" clip-rule="evenodd" d="M438.657 418.161L472.948 420.153C480.555 384.449 469.237 333.674 457.478 307.711C457.029 306.72 456.059 304.844 453.518 304.696L443.554 304.117C440.668 311.236 437.978 318.363 435.538 325.383C434.605 326.863 433.638 328.42 432.629 330.045C423.003 345.537 409.583 367.139 385.919 385.901L398.284 397.927C406.389 394.391 414.25 390.666 421.607 386.682C420.828 405.138 425.648 417.405 438.657 418.161Z" fill="#8991DC"/>
<path d="M415.146 404.349L375.968 407.908C375.65 407.937 375.398 408.239 375.428 408.556L375.522 409.544C375.552 409.861 375.857 410.112 376.175 410.083L415.353 406.524C415.671 406.495 415.923 406.193 415.892 405.877L415.799 404.888C415.768 404.572 415.504 404.317 415.146 404.349Z" fill="#687588"/>
<path opacity="0.6" d="M415.146 404.349L375.968 407.908C375.65 407.937 375.398 408.239 375.428 408.556L375.522 409.544C375.552 409.861 375.857 410.112 376.175 410.083L415.353 406.524C415.671 406.495 415.923 406.193 415.892 405.877L415.799 404.888C415.768 404.572 415.504 404.317 415.146 404.349Z" fill="#383838"/>
<path d="M388.716 406.765L320.408 412.984C320.091 413.013 319.839 413.316 319.869 413.632L319.963 414.622C319.993 414.939 320.297 415.191 320.615 415.162L388.923 408.943C389.241 408.914 389.493 408.612 389.463 408.295L389.369 407.305C389.299 406.992 389.034 406.736 388.716 406.765Z" fill="#687588"/>
<g opacity="0.6">
<path opacity="0.6" d="M321.321 413.322L390.866 406.97C390.985 406.959 391.057 406.872 391.046 406.753C391.035 406.634 390.948 406.562 390.829 406.573L321.283 412.925C321.164 412.936 321.092 413.023 321.104 413.142C321.115 413.261 321.241 413.329 321.321 413.322Z" fill="#383838"/>
</g>
<path d="M388.885 406.795L378.633 407.716C377.841 407.787 377.116 407.3 376.882 406.531L364.004 362.636C363.708 361.636 364.414 360.664 365.443 360.572L375.696 359.65C376.487 359.579 377.213 360.067 377.446 360.836L390.324 404.73C390.58 405.734 389.915 406.702 388.885 406.795Z" fill="#687588"/>
<path opacity="0.6" d="M388.885 406.795L378.633 407.716C377.841 407.787 377.116 407.3 376.882 406.531L364.004 362.636C363.708 361.636 364.414 360.664 365.443 360.572L375.696 359.65C376.487 359.579 377.213 360.067 377.446 360.836L390.324 404.73C390.58 405.734 389.915 406.702 388.885 406.795Z" fill="#383838"/>
<path d="M387.404 407.024L321.409 412.952C320.615 413.023 319.888 412.534 319.654 411.764L306.742 367.781C306.446 366.779 307.153 365.806 308.185 365.713L374.14 359.79C374.934 359.718 375.661 360.207 375.895 360.977L388.807 404.96C389.103 405.962 388.436 406.932 387.404 407.024Z" fill="#687588"/>
<path opacity="0.6" d="M349.993 385.732C349.52 386.971 350.15 388.005 351.364 387.956C351.417 387.953 351.523 387.949 351.576 387.947C350.223 389.593 348.109 390.792 346.205 390.817C343.615 390.87 342.303 388.803 343.346 386.162C344.336 383.524 347.307 381.389 349.897 381.336C351.536 381.322 352.684 382.123 353.009 383.435C351.797 383.538 350.465 384.493 349.993 385.732Z" fill="#383838"/>
<g opacity="0.7">
<path opacity="0.4" d="M168.343 249.99H162.68V273.787V491.065H164.291V252.409H168.343V249.99Z" fill="#21252B"/>
<path d="M154.206 249.989H176.769C178.841 249.989 180.544 248.163 180.544 245.941V233.352H150.477V245.941C150.477 248.163 152.134 249.989 154.206 249.989Z" fill="#61656D"/>
<path d="M162.656 491.033H168.32V249.957H162.656V491.033Z" fill="#61656D"/>
<path d="M168.343 249.99H162.68V485.437H164.245V252.261H168.343V249.99Z" fill="#21252B"/>
<path d="M154.252 245.941V242.732H150.477V245.941C150.477 248.163 152.18 249.99 154.252 249.99H158.028C155.91 249.99 154.252 248.163 154.252 245.941Z" fill="#21252B"/>
<path d="M135.189 493.977C134.13 493.977 133.762 492.397 134.729 491.903C143.661 487.262 154.206 484.547 165.487 484.547C176.768 484.547 187.313 487.213 196.245 491.903C197.212 492.397 196.89 493.977 195.785 493.977H135.189Z" fill="#61656D"/>
<path d="M168.985 484.646C167.834 484.596 166.683 484.547 165.532 484.547C154.251 484.547 143.706 487.213 134.773 491.903C133.806 492.397 134.129 493.977 135.234 493.977H145.502C148.219 490.027 158.257 485.386 168.985 484.646Z" fill="#21252B"/>
<path d="M189.386 327.206C189.248 327.206 189.156 327.107 189.156 326.959V243.03C189.156 242.882 189.248 242.783 189.386 242.783C189.525 242.783 189.617 242.882 189.617 243.03V326.959C189.617 327.107 189.479 327.206 189.386 327.206Z" fill="#21252B"/>
<path d="M146.194 174.996H185.24L206.974 241.498H124L146.194 174.996Z" fill="#7A82D1"/>
<path d="M146.194 174.996H158.534L150.016 241.498H124L146.194 174.996Z" fill="#7A82D1"/>
<path d="M146.164 175.012H185.257V172H146.164V175.012Z" fill="#7A82D1"/>
<path d="M124.027 244.476H207.001V241.465H124.027V244.476Z" fill="#7A82D1"/>
<path opacity="0.4" d="M146.194 174.996H185.24L206.974 241.498H124L146.194 174.996Z" fill="white"/>
<path opacity="0.4" d="M155.863 174.996H185.24L206.973 241.498H146.516L155.863 174.996Z" fill="white"/>
</g>
<g opacity="0.95">
<path d="M421.397 218.336H283.527C280.571 218.336 278.152 215.918 278.152 212.961V166.647C278.152 163.69 280.571 161.271 283.527 161.271H421.441C424.398 161.271 426.816 163.69 426.816 166.647V212.961C426.772 215.918 424.353 218.336 421.397 218.336Z" stroke="#DCF2FF" stroke-miterlimit="10"/>
<path d="M427.625 212.065H289.711C286.755 212.065 284.336 209.646 284.336 206.69V160.375C284.336 157.419 286.755 155 289.711 155H427.625C430.581 155 433 157.419 433 160.375V206.69C433 209.646 430.581 212.065 427.625 212.065Z" fill="#DCF2FF"/>
<path d="M419.7 173.544H316.365C315.201 173.544 314.305 172.604 314.305 171.484V171.394C314.305 170.23 315.245 169.334 316.365 169.334H419.655C420.82 169.334 421.716 170.275 421.716 171.394V171.484C421.76 172.649 420.82 173.544 419.7 173.544Z" fill="#8991DC"/>
<path d="M419.7 183.8H316.365C315.201 183.8 314.305 182.86 314.305 181.74V181.65C314.305 180.486 315.245 179.59 316.365 179.59H419.655C420.82 179.59 421.716 180.53 421.716 181.65V181.74C421.76 182.86 420.82 183.8 419.7 183.8Z" fill="#8991DC"/>
<path d="M370.292 194.06H317.035C316.228 194.06 315.512 193.388 315.512 192.537V191.283C315.512 190.476 316.184 189.76 317.035 189.76H370.292C371.098 189.76 371.815 190.432 371.815 191.283V192.537C371.77 193.388 371.098 194.06 370.292 194.06Z" fill="#8991DC"/>
<path d="M286.889 206.42C299.53 206.42 309.777 196.172 309.777 183.531C309.777 170.89 299.53 160.643 286.889 160.643C274.248 160.643 264 170.89 264 183.531C264 196.172 274.248 206.42 286.889 206.42Z" fill="#FFBE55"/>
<path d="M278.913 194.685L272.195 188.235C271.299 187.384 271.254 185.951 272.15 185.055C273.001 184.159 274.434 184.114 275.33 185.01L279.227 188.728L298.667 172.916C299.607 172.155 301.041 172.289 301.802 173.23C302.564 174.171 302.429 175.604 301.489 176.365L278.913 194.685Z" fill="white"/>
</g>
<g opacity="0.9">
<path d="M321.864 322.171H227.738C226.239 322.171 225 320.933 225 319.434V276.738C225 275.239 226.239 274 227.738 274H321.864C323.363 274 324.602 275.239 324.602 276.738V319.466C324.602 320.965 323.363 322.171 321.864 322.171Z" fill="#8991DC"/>
<path d="M280.602 284.984H232.039C231.355 284.984 230.801 284.43 230.801 283.745V283.158C230.801 282.474 231.355 281.92 232.039 281.92H280.602C281.286 281.92 281.84 282.474 281.84 283.158V283.745C281.873 284.43 281.286 284.984 280.602 284.984Z" fill="#DCF2FF"/>
<path d="M304.003 294.011H232.039C231.355 294.011 230.801 293.457 230.801 292.772V292.186C230.801 291.501 231.355 290.947 232.039 290.947H304.003C304.687 290.947 305.241 291.501 305.241 292.186V292.772C305.241 293.424 304.687 294.011 304.003 294.011Z" fill="#DCF2FF"/>
<path d="M309.674 302.974H232.039C231.355 302.974 230.801 302.42 230.801 301.735V301.149C230.801 300.464 231.355 299.91 232.039 299.91H309.674C310.358 299.91 310.913 300.464 310.913 301.149V301.735C310.913 302.42 310.358 302.974 309.674 302.974Z" fill="#DCF2FF"/>
<path d="M276.821 311.939H232.039C231.355 311.939 230.801 311.385 230.801 310.7V310.114C230.801 309.429 231.355 308.875 232.039 308.875H276.821C277.505 308.875 278.06 309.429 278.06 310.114V310.7C278.092 311.385 277.538 311.939 276.821 311.939Z" fill="#DCF2FF"/>
<path d="M289.272 311.939H282.852C282.167 311.939 281.613 311.385 281.613 310.7V310.114C281.613 309.429 282.167 308.875 282.852 308.875H289.272C289.957 308.875 290.511 309.429 290.511 310.114V310.7C290.511 311.385 289.957 311.939 289.272 311.939Z" fill="#DCF2FF"/>
<path d="M303.514 285.015H286.86C286.175 285.015 285.621 284.461 285.621 283.776V283.19C285.621 282.505 286.175 281.951 286.86 281.951H303.514C304.199 281.951 304.753 282.505 304.753 283.19V283.776C304.753 284.461 304.199 285.015 303.514 285.015Z" fill="#DCF2FF"/>
</g>
<defs>
<linearGradient id="paint0_linear" x1="183.461" y1="89.2657" x2="299.399" y2="450.554" gradientUnits="userSpaceOnUse">
<stop stop-color="#FF4B2B"/>
<stop offset="1" stop-color="#FF4B2B" stop-opacity="0"/>
</linearGradient>
</defs>
</svg>
