<svg width="600" height="600" viewBox="0 0 600 600" fill="none" xmlns="http://www.w3.org/2000/svg">
<g clip-path="url(#clip0)">
<path d="M454.799 118.486C526.73 158.549 585.131 227.791 583.551 292.589C582.296 357.268 521.178 417.827 463.452 456.593C405.726 495.36 351.834 512.538 285.252 517.119C218.67 521.7 139.279 513.36 87.8725 463.206C36.5845 413.377 13.1621 321.41 38.6522 246.75C64.1423 172.09 138.545 114.736 218.418 91.3409C298.29 67.9454 383.31 78.6267 454.799 118.486Z" fill="#FF416C"/>
<path d="M454.799 118.486C526.73 158.549 585.131 227.791 583.551 292.589C582.296 357.268 521.178 417.827 463.452 456.593C405.726 495.36 351.834 512.538 285.252 517.119C218.67 521.7 139.279 513.36 87.8725 463.206C36.5845 413.377 13.1621 321.41 38.6522 246.75C64.1423 172.09 138.545 114.736 218.418 91.3409C298.29 67.9454 383.31 78.6267 454.799 118.486Z" fill="url(#paint0_linear)"/>
<g opacity="0.9">
<g opacity="0.98">
<path fill-rule="evenodd" clip-rule="evenodd" d="M113.645 104.586C97.2447 107.417 80.8435 110.249 64.5112 113.492C55.6598 115.249 46.9062 117.233 38.1902 119.576C34.3246 120.615 30.4594 121.645 26.579 122.626C25.9102 122.795 24.9674 122.943 23.9267 123.107C21.4789 123.493 18.4895 123.963 17.251 124.989C10.3212 130.73 26.2804 127.878 28.2025 127.444C32.5061 126.473 36.776 125.361 41.046 124.25C44.778 123.278 48.5102 122.306 52.2651 121.428C76.3555 115.792 100.943 111.808 125.423 107.841C131.035 106.932 136.641 106.023 142.235 105.096C148.173 104.112 154.092 103.043 160.011 101.974C168.472 100.445 176.933 98.9171 185.445 97.6378C188.696 97.1495 191.948 96.6719 195.199 96.1943L195.2 96.1942L195.2 96.1942C199.859 95.5099 204.518 94.8257 209.173 94.1098C212.816 93.5496 216.46 92.9832 220.088 92.3226C220.741 92.2038 221.607 92.1179 222.551 92.0241C224.839 91.797 227.591 91.5238 228.921 90.6264C230.522 89.5465 231.728 88.2516 230.325 86.3316C229.138 84.7086 226.227 85.539 224.104 86.1445L224.104 86.1445C223.524 86.3098 223.004 86.4583 222.593 86.5356C215.676 87.8361 208.722 88.8806 201.758 89.8911C199.21 90.2609 196.662 90.6263 194.115 90.9917C180.853 92.8937 167.603 94.794 154.432 97.3027C140.864 99.887 127.255 102.236 113.645 104.586ZM50.9122 229.466L50.8019 229.487C49.2737 229.786 47.7457 230.085 46.2179 230.384C43.8443 231.098 43.2913 233.86 45.2491 235.487C46.7489 236.734 51.3364 235.849 54.3272 235.273C55.1558 235.113 55.8619 234.977 56.3457 234.916C64.259 233.921 72.0856 232.585 79.9075 231.035C96.3796 227.768 112.904 225.063 129.511 222.582C146.511 220.042 163.401 216.902 180.291 213.761L180.292 213.761C192.718 211.45 205.145 209.14 217.616 207.068C224.758 205.881 231.886 204.622 239.01 203.333C239.775 203.194 240.811 203.093 241.982 202.978C246.558 202.529 253.208 201.878 253.941 198.017C254.592 194.589 252.471 193.516 249.673 193.409C249.704 191.455 249.08 188.846 248.723 187.352C248.615 186.902 248.532 186.554 248.498 186.354C248.172 184.455 247.826 182.56 247.48 180.664C247.088 178.516 246.696 176.369 246.333 174.216C246.004 172.262 245.67 170.308 245.335 168.352C244.015 160.638 242.692 152.906 241.694 145.158C241.233 141.581 240.94 138.013 240.648 134.451C240.181 128.764 239.716 123.091 238.569 117.424C238.362 116.405 238.148 115.121 237.907 113.673C236.671 106.262 234.717 94.548 229.419 91.9599C220.399 88.9409 224.809 102.157 226.777 108.055C227.102 109.029 227.361 109.803 227.481 110.272C230.036 120.229 231.41 129.97 232.478 140.17C233.2 147.059 234.999 153.7 236.801 160.352C237.444 162.728 238.088 165.105 238.683 167.495C238.978 168.678 239.267 169.861 239.556 171.044C240.446 174.684 241.336 178.321 242.374 181.926C242.487 182.316 242.655 183.074 242.87 184.043C243.476 186.774 244.454 191.179 245.598 193.738C244.34 193.945 243.133 194.21 242.136 194.429C241.499 194.569 240.948 194.69 240.524 194.765C238.592 195.106 236.661 195.45 234.73 195.793C229.023 196.808 223.316 197.823 217.601 198.79C204.109 201.074 190.684 203.693 177.258 206.313L177.258 206.313L177.258 206.313L177.258 206.313C161.401 209.407 145.544 212.501 129.579 215.042C103.268 219.228 77.0591 224.353 50.9127 229.466L50.9122 229.466ZM25.6157 132.19C29.2141 149.409 31.37 166.434 33.3853 183.91C34.6316 194.72 36.0773 205.531 37.6777 216.295C37.7517 216.793 37.9272 217.614 38.1471 218.643C39.4026 224.517 42.1083 237.177 35.6649 235.355C30.7993 233.98 29.7225 220.356 29.1268 212.817C28.9961 211.163 28.8885 209.802 28.7692 208.928C28.5145 207.064 28.258 205.201 28.0015 203.338L28.0013 203.337C26.8107 194.689 25.621 186.049 24.617 177.373C24.5659 176.932 24.5149 176.491 24.464 176.05L24.4055 175.544C23.2479 165.522 22.0911 155.507 20.1914 145.592C20.0343 144.772 19.7186 143.65 19.3622 142.383L19.3621 142.382C18.3306 138.715 16.957 133.833 18.0909 131.535C19.6863 128.302 24.7594 128.103 25.6157 132.19Z" fill="#2B1D18"/>
<path fill-rule="evenodd" clip-rule="evenodd" d="M123.542 155.847C100.783 150.767 77.759 145.628 54.7192 143.353C53.0538 143.189 52.401 145.007 53.0377 146.286C53.6935 147.604 57.3247 148.088 59.7326 148.41C60.4531 148.506 61.0641 148.588 61.4531 148.673C64.7552 149.393 68.0615 150.095 71.3679 150.797C74.7537 151.516 78.1396 152.235 81.5212 152.973C88.5525 154.508 95.587 156.029 102.621 157.55C110.155 159.179 117.688 160.807 125.217 162.453C125.502 162.516 125.788 162.578 126.074 162.641C117.401 167.919 108.812 173.336 100.285 178.849C97.3716 180.732 94.4742 182.639 91.5768 184.546C89.9373 185.625 88.2977 186.704 86.6552 187.778C86.1206 188.128 85.1711 188.649 84.03 189.275C80.3118 191.314 74.5595 194.468 74.5 196.457C74.404 199.697 82.2625 194.946 85.2276 193.154C85.6208 192.916 85.928 192.73 86.1191 192.622C90.5263 190.13 94.8412 187.478 99.1538 184.826L99.7503 184.46C103.168 182.359 106.578 180.246 109.988 178.132C116.648 174.003 123.308 169.874 130.029 165.844C130.981 165.274 131.933 164.705 132.885 164.136C145.602 166.939 158.305 169.796 170.989 172.745C177.789 174.326 184.571 175.981 191.344 177.679C192.822 178.05 194.694 178.709 196.728 179.425C201.603 181.14 207.405 183.182 210.935 182.366C212.827 181.928 214.023 181.254 213.742 178.908C213.451 176.488 210.141 175.876 207.76 175.436C207.19 175.331 206.674 175.235 206.265 175.127C199.005 173.208 191.72 171.38 184.426 169.596C169.938 166.054 155.38 162.788 140.799 159.653C140.715 159.635 140.632 159.617 140.548 159.599C147.429 155.552 154.344 151.561 161.285 147.618C161.978 147.224 163.414 146.485 165.3 145.514C174.214 140.925 193.202 131.149 191.626 128.076C189.821 124.561 172.349 135.31 164.614 140.068C163.164 140.96 162.056 141.641 161.458 141.979C152.123 147.247 142.835 152.599 133.629 158.09C130.273 157.35 126.91 156.599 123.542 155.847Z" fill="#3D261F"/>
<path fill-rule="evenodd" clip-rule="evenodd" d="M229.717 219.192C223.851 221.527 220.772 228.261 222.713 234.239C225.337 242.315 234.362 244.388 241.746 241.725C250.125 238.704 250.422 231.027 244.777 224.877C243.527 223.515 242.075 221.877 240.221 221.408C238.947 221.087 237.576 221.891 236.549 221.632C232.95 220.722 234.387 217.779 229.717 219.192ZM231.363 213.216C238.99 212.618 254.507 218.357 255.603 227.103C255.208 228.226 254.386 228.823 253.138 228.894C253.817 230.696 254.106 232.559 254.005 234.483C253.792 236.998 252.788 239.231 251.222 241.165C247.998 245.149 242.85 247.034 237.896 247.485C228.646 248.327 220.241 243.636 217.778 234.346C215.373 225.278 221.38 214.012 231.363 213.216Z" fill="#3D261F"/>
<path fill-rule="evenodd" clip-rule="evenodd" d="M197.707 231.905C201.408 232.978 207.247 234.594 209.9 237.542C212.703 240.656 211.372 244.978 206.672 244.207C202.941 243.596 199.863 239.825 195.897 239.236C192.396 238.718 191.213 239.6 188.024 241.506C184.738 243.47 181.89 245.301 178 245.797C173.11 246.42 168.362 244.498 163.521 244.844C159.445 245.135 156.496 247.358 152.827 248.763C148.569 250.392 145.342 249.324 141.039 249.314C138.112 249.307 133.671 252.739 131.439 252.266C126.42 251.202 130.77 247.717 133.145 246.37C137.147 244.102 140.038 244.767 144.354 245.058C149.04 245.375 150.759 244.045 154.755 242.027C162.84 237.943 170.614 242.129 178.521 239.428C185.841 236.926 188.961 229.374 197.707 231.905Z" fill="#3D261F"/>
<path fill-rule="evenodd" clip-rule="evenodd" d="M56.8094 256.947C50.1752 266.392 61.7246 275.459 69.5282 267.39C72.2739 264.55 71.5982 261.048 68.4582 258.443C65.5866 256.059 60.3521 255.987 56.8094 256.947ZM58.5668 250.065C66.5799 249.96 74.5801 251.981 77.1276 260.724C79.614 269.255 71.5571 275.134 63.9659 276.121C46.9229 278.337 42.3507 250.297 58.5668 250.065Z" fill="#3D261F"/>
</g>
<path opacity="0.75" fill-rule="evenodd" clip-rule="evenodd" d="M151.55 281.637C153.12 290.446 155.064 299.173 155.201 308.153C155.226 309.859 156.246 315.853 155.203 317.341C152.639 321.002 151.39 315.269 150.808 313.093C148.725 305.301 147.859 296.999 146.397 289.06C146.083 287.351 144.899 283.923 145.359 282.11C146.088 279.232 150.806 277.44 151.55 281.637Z" fill="#5D382C"/>
<path opacity="0.75" fill-rule="evenodd" clip-rule="evenodd" d="M156.311 273.239C172.074 284.92 189.45 280.2 207.439 277.765C216.943 276.479 226.697 275.87 235.495 280.359C239.587 282.448 243.344 285.348 246.212 288.948C247.466 290.523 253.79 299.794 246.965 298.703C244.544 298.316 240.939 292.065 239.075 290.382C235.525 287.176 231.34 284.792 226.677 283.646C217.682 281.435 207.927 283.536 198.954 284.886C189.574 286.297 179.521 287.884 170.159 285.627C165.755 284.565 161.501 282.982 157.639 280.606C156.26 279.756 153.402 278.42 152.871 276.792C152.263 274.931 153.368 271.064 156.311 273.239Z" fill="#5D382C"/>
<path opacity="0.75" fill-rule="evenodd" clip-rule="evenodd" d="M229.978 303.829C242.065 301.731 254.154 299.721 266.298 297.984C268.786 297.628 276.873 295.427 275.835 300.895C275.003 305.277 264.46 304.688 261.115 305.18C248.471 307.039 235.876 309.392 223.178 310.864C220.326 311.195 207.691 313.93 211.884 307.88C213.878 305.001 226.519 304.427 229.978 303.829Z" fill="#3D261F"/>
<path opacity="0.75" fill-rule="evenodd" clip-rule="evenodd" d="M283.34 298.759C288.159 302.94 288.935 315.379 289.892 321.412C290.821 327.258 294.149 337.609 286.779 340.079C289.113 339.265 284.988 340.604 284.309 340.784C282.792 341.186 281.256 341.533 279.724 341.87C276.183 342.648 272.622 343.34 269.059 344.007C260.988 345.52 252.881 346.964 244.76 348.191C241.347 348.706 223.074 352.674 221.619 349.319C219.76 345.033 237.84 343.912 241.011 343.401C248.736 342.159 256.415 340.638 264.095 339.143C267.901 338.403 271.709 337.649 275.489 336.785C277.05 336.428 283.392 335.779 284.126 334.535C284.754 333.475 282.415 325.423 282.172 324.168C281.378 320.075 280.522 315.985 279.528 311.936C278.858 309.21 276.285 304.294 276.958 301.462C277.613 298.709 280.865 297.139 283.34 298.759Z" fill="#3D261F"/>
<path opacity="0.75" fill-rule="evenodd" clip-rule="evenodd" d="M221.584 311.859C223.257 320.994 225.12 330.283 224.824 339.62C224.726 342.728 224.995 349.037 222.341 351.187C219.556 353.445 216.385 351.711 215.538 348.662C214.472 344.829 215.49 339.294 215.087 335.218C214.617 330.462 213.937 325.745 213.135 321.034C212.532 317.492 210.366 312.443 213.245 309.478C215.832 306.814 220.863 307.907 221.584 311.859Z" fill="#3D261F"/>
<path opacity="0.75" fill-rule="evenodd" clip-rule="evenodd" d="M197.24 314.611C201.747 317.552 202.53 329.673 203.058 334.548C203.445 338.118 203.198 356.131 195.59 348.349C192.225 344.906 193.264 333.735 192.277 329.109C191.648 326.163 189.828 322.652 189.742 319.714C189.628 315.831 193.15 311.934 197.24 314.611Z" fill="#3D261F"/>
<path opacity="0.75" fill-rule="evenodd" clip-rule="evenodd" d="M170.745 316.926C159.291 318.104 147.884 319.573 136.588 321.813C136.045 321.921 135.475 322.033 134.882 322.148C127.134 323.659 115.491 325.929 111.499 332.814C109.324 336.566 109.058 341.719 108.826 346.212C108.783 347.05 108.741 347.865 108.688 348.643C108.642 349.309 108.563 350.073 108.477 350.9C108.07 354.8 107.52 360.077 109.76 362.807C110.988 364.304 112.701 365.442 114.724 364.4C115.197 364.156 115.553 363.897 115.818 363.623C115.181 364.684 115.081 366.027 115.873 367.156C117.405 369.339 120.678 368.711 123.257 368.216C123.882 368.096 124.466 367.984 124.975 367.921C133.684 366.853 142.383 365.538 150.99 363.824C155.088 363.009 159.172 362.124 163.255 361.239C167.459 360.328 171.663 359.416 175.881 358.581C178.944 357.975 182.117 357.618 185.291 357.26C189.298 356.809 193.307 356.357 197.097 355.404C199.933 354.691 202.792 353.118 201.297 349.573C200.078 346.679 197.183 347.007 194.589 347.301C194.363 347.326 194.139 347.352 193.919 347.375C185.644 348.237 177.474 349.633 169.335 351.358C152.235 354.98 135.118 358.451 117.988 361.925C117.297 362.129 116.69 362.536 116.23 363.059C116.69 362.184 116.47 361.191 116.237 360.133C116.131 359.655 116.023 359.163 115.973 358.663C115.873 357.658 115.765 356.659 115.657 355.661C115.301 352.365 114.947 349.093 114.887 345.715C114.878 345.205 114.855 344.647 114.831 344.056C114.689 340.566 114.5 335.941 116.803 333.562C119.119 331.169 124.426 330.156 128.562 329.366C129.678 329.153 130.709 328.956 131.574 328.753C142.513 326.179 153.737 324.657 164.893 323.373C165.75 323.274 166.607 323.172 167.466 323.07C171.707 322.566 175.97 322.059 180.23 321.949C181.01 321.93 182.241 322.091 183.653 322.276C187.41 322.769 192.447 323.43 193.667 321.293C197.709 314.213 173.966 316.595 170.745 316.926Z" fill="#3D261F"/>
<path fill-rule="evenodd" clip-rule="evenodd" d="M48.626 328.144C48.2689 328.873 48.2689 328.873 48.626 328.144V328.144ZM116.792 275.306C124.435 277.891 114.276 292.26 111.444 294.745C105.07 300.337 95.2697 303.021 87.4413 305.85C77.5342 309.431 66.5336 312.28 57.4182 317.669C53.5334 319.966 51.3399 322.743 49.3141 326.733C48.2878 328.754 46.5024 336.917 43.0925 335.782C36.227 333.497 49.6192 315.122 52.9212 312.759C60.4271 307.386 69.9854 304.329 78.5284 301.072C86.4719 298.042 94.663 295.313 102.194 291.32C106.335 289.124 109.039 286.41 110.758 281.934C111.829 279.145 112.053 273.714 116.792 275.306Z" fill="#5D382C"/>
<path opacity="0.75" fill-rule="evenodd" clip-rule="evenodd" d="M21.9433 342.926C29.8309 341.466 37.7933 340.438 45.7538 339.411C50.2198 338.834 54.6851 338.258 59.1364 337.605C60.5282 337.401 61.9203 337.189 63.3131 336.976C67.2298 336.379 71.1517 335.78 75.0872 335.367C75.6851 335.304 76.3751 335.219 77.1269 335.125C80.4564 334.713 84.9957 334.15 88.0974 334.75C90.3008 332.229 94.6852 333.071 95.4822 336.583C96.9269 342.982 98.1811 349.302 98.7266 355.848C98.8534 357.367 99.4788 365.063 98.255 369.392C99.7478 372.929 96.8195 374.617 93.9523 375.509C82.8485 378.962 70.7887 380.587 58.8922 382.19C52.8412 383.005 46.8323 383.815 41.0131 384.856C39.0779 385.202 37.1249 385.586 35.1603 385.972C28.7491 387.232 22.214 388.517 15.7695 388.596C15.5103 388.6 15.2332 388.607 14.9435 388.615C12.4038 388.686 8.90089 388.784 8.08326 386.143C7.5918 384.557 8.19667 382.886 9.68168 382.361C9.29594 381.035 9.15924 379.529 9.05874 378.422C9.03536 378.165 9.01394 377.929 8.9918 377.722C8.58266 373.897 8.74111 369.98 8.89755 366.112L8.89757 366.112C8.93273 365.243 8.96778 364.376 8.99626 363.514C9.02779 362.558 9.00717 361.434 8.98494 360.222C8.90647 355.943 8.80786 350.566 10.9099 347.622C13.1144 344.536 17.5799 343.722 21.1575 343.07L21.1576 343.07C21.4249 343.022 21.6873 342.974 21.9433 342.926ZM15.571 381.554C15.9945 378.924 15.5808 375.572 15.1875 372.385C14.9407 370.385 14.7019 368.45 14.6835 366.801C14.6699 365.562 14.6004 364.268 14.5298 362.953C14.3585 359.759 14.1803 356.439 14.777 353.485C15.5767 349.528 16.9906 349.378 20.3359 349.025C20.958 348.959 21.647 348.886 22.4113 348.78C25.7979 348.312 29.1944 347.906 32.5904 347.5L32.5905 347.5L32.5909 347.5C34.2202 347.306 35.8493 347.111 37.4772 346.909C44.4442 346.046 51.3877 345.052 58.3322 344.058L58.3323 344.058C62.3893 343.477 66.4467 342.896 70.5093 342.342C73.6977 341.906 76.8893 341.865 80.0676 341.824L80.0676 341.824C82.5845 341.791 85.0931 341.759 87.5853 341.531C87.7938 342.356 88.0378 343.178 88.2702 343.96C88.5865 345.025 88.8813 346.017 89.0355 346.848C89.7194 350.533 90.1545 354.246 90.5903 357.964C90.6573 358.535 90.7243 359.107 90.7923 359.679C90.8738 360.365 90.9091 361.26 90.9482 362.253C91.0088 363.789 91.0786 365.558 91.3425 367.147C91.0458 367.206 90.7513 367.268 90.4615 367.33C90.0865 367.409 89.7192 367.487 89.3649 367.555C80.7028 369.201 72.0243 370.734 63.3305 372.199C62.2208 372.385 61.1111 372.572 60.0013 372.758C52.2438 374.061 44.4856 375.364 36.7664 376.878C33.6991 377.481 30.6192 378.222 27.5302 378.966C23.5563 379.922 19.5674 380.882 15.571 381.554Z" fill="#3D261F"/>
</g>
<path fill-rule="evenodd" clip-rule="evenodd" d="M376.706 328.538C370.212 332.41 363.84 334.265 360.857 333.481C353.377 331.515 352.819 304.114 358.665 293.341C364.511 282.568 394.324 278.002 395.723 299.409C396.209 306.839 393.059 313.452 388.425 318.839L396.504 357.388L372.504 357.274L376.706 328.538Z" fill="#B28B67"/>
<path fill-rule="evenodd" clip-rule="evenodd" d="M372.404 280.958C375.569 280.454 384.088 280.138 385.659 280.146C386.662 280.15 387.749 280.385 388.348 279.466C388.838 278.714 388.666 277.436 388.815 276.561C388.989 275.545 389.233 274.542 389.48 273.541C390.184 270.694 391.24 267.987 392.711 265.448C395.472 260.684 399.501 256.961 404.576 254.808C410.18 252.431 416.511 251.91 422.524 252.426C428.959 252.979 434.776 255.132 440.844 257.16C446.627 259.093 452.69 259.872 458.752 258.971C464.859 258.062 469.487 254.776 474.65 251.661C479.935 248.472 485.968 246.398 492.196 246.911C498.009 247.39 503.358 249.817 508.152 253.048C512.637 256.07 516.332 259.699 518.404 264.791C520.633 270.269 520.602 276.269 516.871 281.083C511.464 288.061 501.477 289.824 493.177 289.605C488.376 289.478 483.665 288.579 479.139 286.963C473.104 284.808 467.897 281.179 462.255 278.228C459.607 276.843 456.869 275.703 453.997 274.878C451.21 274.076 448.463 273.702 445.929 275.376C443.247 277.146 440.844 278.887 437.781 279.988C434.843 281.046 431.733 281.63 428.608 281.591C422.527 281.515 416.542 279.592 410.642 278.295C405.831 277.237 400.683 276.181 395.769 277.153C393.718 277.558 390.722 278.401 389.971 280.526C402.415 282.843 407.233 298.269 403.668 309.559C401.744 315.652 390.319 322.732 385.906 319.503C383.11 317.457 384.826 314.797 385.937 313.041C388.064 309.677 388.807 305.347 384.911 302.98C381.551 300.939 377.985 305.732 377.918 305.726C376.993 305.649 369.012 301.085 363.529 294.454C358.089 294.751 357.28 291.161 358.593 288.234C359.906 285.307 368.03 281.654 372.404 280.958Z" fill="#191847"/>
<path fill-rule="evenodd" clip-rule="evenodd" d="M323.5 416.961L284.326 411.604C276.489 407.234 269.28 404.276 262.698 402.729C260.846 402.675 257.899 403.35 262.289 407.019C266.678 410.687 271.132 414.745 270.35 416.703C269.568 418.661 265.486 417.932 264.809 420.943C264.359 422.951 270.984 423.277 284.685 421.922L316.471 434.555L323.5 416.961Z" fill="#997659"/>
<path fill-rule="evenodd" clip-rule="evenodd" d="M387.05 356.972L370.039 358.108C365.85 396.105 343.03 420.106 291.938 411.981L285.15 460.912C332.903 467.099 374.783 447.933 383.366 396.041C385.588 382.607 387.343 368.628 387.05 356.972Z" fill="#CDE0D8"/>
<path fill-rule="evenodd" clip-rule="evenodd" d="M471.93 498.214C460.119 435.217 435.19 386.479 397.144 352H395.512H395.456L395.443 352.016L369.669 357.933C369.669 388.97 362.781 412.161 356.159 434.457C353.299 444.085 350.489 453.547 348.305 463.401H417.913C418.894 474.691 419.496 486.296 419.809 498.214H471.93Z" fill="#DDF3EA"/>
<path fill-rule="evenodd" clip-rule="evenodd" d="M417.914 463.402C415.918 440.416 412.353 418.732 406.46 398.35C407.752 420.147 408.11 447.187 403.767 463.402H417.914Z" fill="black" fill-opacity="0.1"/>
<path d="M53.6125 463H535V476.588H53.6125V463Z" fill="#B9BCC0"/>
<path d="M88.0432 476.148H500.711V519.898H88.0432V476.148Z" fill="#8E939A"/>
<path d="M88.3603 476.879H500.16V483.479H88.3603V476.879Z" fill="#767C84"/>
<path d="M438.69 434.74C438 434.74 437.45 434.18 437.45 433.5C437.45 432.81 438.01 432.25 438.69 432.25H449.16H450.95H457.02H457.95H503.14C507.48 432.25 511 435.77 511 440.11C511 444.45 507.48 447.97 503.14 447.97H457.95H457.02H450.95H449.16H438.69C438 447.97 437.45 447.41 437.45 446.72C437.45 446.03 438.01 445.48 438.69 445.48H449.16V434.73H438.69V434.74Z" fill="#FF9B21"/>
<path d="M438.691 434.74C438.001 434.74 437.451 434.18 437.451 433.5C437.451 432.81 438.011 432.25 438.691 432.25H449.161H450.951H457.021H457.951H489.851C493.641 432.25 496.711 435.77 496.711 440.11C496.711 444.45 493.641 447.97 489.851 447.97H457.951H457.021H450.951H449.161H438.691C438.001 447.97 437.451 447.41 437.451 446.72C437.451 446.03 438.011 445.48 438.691 445.48H449.161V434.73H438.691V434.74Z" fill="#FF9B21"/>
<path d="M438.691 434.74C438.001 434.74 437.451 434.18 437.451 433.5C437.451 432.81 438.011 432.25 438.691 432.25H449.161H450.951H457.021H457.951H489.851C493.641 432.25 496.711 435.77 496.711 440.11C496.711 444.45 493.641 447.97 489.851 447.97H457.951H457.021H450.951H449.161H438.691C438.001 447.97 437.451 447.41 437.451 446.72C437.451 446.03 438.011 445.48 438.691 445.48H449.161V434.73H438.691V434.74Z" fill="#FF9B21"/>
<path d="M487.069 434.082C490.399 434.082 493.109 436.782 493.109 440.122C493.109 443.452 490.409 446.162 487.069 446.162H440.899C440.759 446.162 440.619 446.152 440.479 446.142V434.112C440.619 434.102 440.759 434.092 440.899 434.092H487.069V434.082Z" fill="white"/>
<path d="M445.019 442.609H485.129V443.339H445.019V442.609Z" fill="#FF9B21"/>
<path d="M444.578 436.82H484.688V437.55H444.578V436.82Z" fill="#FF9B21"/>
<path d="M460.679 439.891H480.359V440.501H460.679V439.891Z" fill="#FF9B21"/>
<path d="M458.75 443.41L456.6 440.85L454.59 443.41V436.82H458.75V443.41Z" fill="#FF9B21"/>
<path d="M435.69 450.49C435 450.49 434.45 449.93 434.45 449.24C434.45 448.55 435.01 448 435.69 448H446.16H447.95H454.02H454.95H500.14C504.48 448 508 451.52 508 455.86C508 460.2 504.48 463.72 500.14 463.72H454.95H454.02H447.95H446.16H435.69C435 463.72 434.45 463.16 434.45 462.47C434.45 461.78 435.01 461.23 435.69 461.23H446.16V450.48H435.69V450.49Z" fill="#5C63AB"/>
<path d="M435.691 450.49C435.001 450.49 434.451 449.93 434.451 449.24C434.451 448.55 435.011 448 435.691 448H446.161H447.951H454.021H454.951H486.851C490.641 448 493.711 451.52 493.711 455.86C493.711 460.2 490.641 463.72 486.851 463.72H454.951H454.021H447.951H446.161H435.691C435.001 463.72 434.451 463.16 434.451 462.47C434.451 461.78 435.011 461.23 435.691 461.23H446.161V450.48H435.691V450.49Z" fill="#5C63AB"/>
<path d="M435.691 450.49C435.001 450.49 434.451 449.93 434.451 449.24C434.451 448.55 435.011 448 435.691 448H446.161H447.951H454.021H454.951H486.851C490.641 448 493.711 451.52 493.711 455.86C493.711 460.2 490.641 463.72 486.851 463.72H454.951H454.021H447.951H446.161H435.691C435.001 463.72 434.451 463.16 434.451 462.47C434.451 461.78 435.011 461.23 435.691 461.23H446.161V450.48H435.691V450.49Z" fill="#5C63AB"/>
<path d="M484.081 449.832C487.411 449.832 490.121 452.532 490.121 455.872C490.121 459.202 487.421 461.902 484.081 461.902H437.911C437.771 461.902 437.631 461.892 437.491 461.882V449.852C437.631 449.842 437.771 449.832 437.911 449.832H484.081Z" fill="white"/>
<path d="M442.019 458.359H482.129V459.089H442.019V458.359Z" fill="#5C63AB"/>
<path d="M441.587 452.57H481.688V453.3H441.587V452.57Z" fill="#5C63AB"/>
<path d="M457.669 455.641H477.359V456.251H457.669V455.641Z" fill="#5C63AB"/>
<path d="M455.75 459.16L453.59 456.6L451.59 459.16V452.57H455.75V459.16Z" fill="#5C63AB"/>
<g opacity="0.8">
<path d="M172.765 462.521H155.169C152.44 462.521 150.258 460.338 150.258 457.61V428.691H177.744V457.61C177.676 460.338 175.494 462.521 172.765 462.521Z" fill="#31373F"/>
<path d="M181.973 452.63H177.676V450.516H181.973C183.064 450.516 183.951 449.629 183.951 448.538V436.739C183.951 435.647 183.064 434.761 181.973 434.761H177.676V432.646H181.973C184.223 432.646 185.997 434.488 185.997 436.671V448.47C186.065 450.789 184.223 452.63 181.973 452.63Z" fill="#31373F"/>
<path opacity="0.6" d="M179.582 434.761V432.647H177.672V428.623H171.67V457.064C171.67 459.52 169.692 461.498 167.237 461.498H152.027C152.846 462.18 153.937 462.589 155.097 462.589H172.693C175.422 462.589 177.604 460.406 177.604 457.678V452.699H179.514V450.585H177.604V434.83H179.582V434.761Z" fill="#242424"/>
<path d="M159.598 426.576C159.393 426.576 159.257 426.439 159.257 426.235C159.257 423.643 157.142 421.46 154.482 421.46H152.164C150.117 421.46 148.48 419.823 148.48 417.777C148.48 415.731 150.117 414.094 152.164 414.094H165.259C166.896 414.094 168.26 412.73 168.26 411.093C168.26 409.456 166.896 408.092 165.259 408.092H162.121C160.007 408.092 158.37 406.387 158.37 404.341C158.37 404.136 158.507 404 158.711 404C158.916 404 159.052 404.136 159.052 404.341C159.052 406.046 160.416 407.41 162.121 407.41H165.259C167.305 407.41 168.942 409.047 168.942 411.093C168.942 413.139 167.305 414.776 165.259 414.776H152.164C150.527 414.776 149.163 416.14 149.163 417.777C149.163 419.414 150.527 420.778 152.164 420.778H154.482C157.483 420.778 159.939 423.234 159.939 426.235C159.939 426.439 159.802 426.576 159.598 426.576Z" fill="white"/>
<path d="M167.167 428.689C166.962 428.689 166.826 428.553 166.826 428.348V427.53C166.826 426.916 166.348 426.438 165.734 426.438C164.711 426.438 163.961 425.62 163.961 424.665V423.233C163.961 422.21 164.779 421.459 165.734 421.459H167.917C170.85 421.459 173.305 419.072 173.305 416.071V413.411C173.305 413.207 173.441 413.07 173.646 413.07C173.851 413.07 173.987 413.207 173.987 413.411V416.003C173.987 419.345 171.259 422.073 167.917 422.073H165.734C165.12 422.073 164.643 422.551 164.643 423.165V424.597C164.643 425.211 165.12 425.688 165.734 425.688C166.757 425.688 167.508 426.507 167.508 427.461V428.28C167.508 428.485 167.371 428.689 167.167 428.689Z" fill="white"/>
</g>
</g>
<defs>
<linearGradient id="paint0_linear" x1="414.872" y1="148.51" x2="206.529" y2="498.364" gradientUnits="userSpaceOnUse">
<stop stop-color="#FF4B2B"/>
<stop offset="0.398118" stop-color="#FF4B2B" stop-opacity="0"/>
</linearGradient>
<clipPath id="clip0">
<rect width="600" height="600" fill="white" transform="matrix(-1 0 0 1 600 0)"/>
</clipPath>
</defs>
</svg>
