<svg width="600" height="600" viewBox="0 0 600 600" fill="none" xmlns="http://www.w3.org/2000/svg">
<path d="M299.24 110.371C369.693 44.8025 431.554 50.9723 497.52 106.333C563.485 161.693 546.7 299.617 487.731 396.44C418.227 510.559 294.963 552.82 173.433 531.803C51.9028 510.787 40.5861 364.642 81.0257 247.794C121.465 130.945 228.786 175.94 299.24 110.371Z" fill="#0072FF"/>
<path d="M299.24 110.371C369.693 44.8025 431.554 50.9723 497.52 106.333C563.485 161.693 546.7 299.617 487.731 396.44C418.227 510.559 294.963 552.82 173.433 531.803C51.9028 510.787 40.5861 364.642 81.0257 247.794C121.465 130.945 228.786 175.94 299.24 110.371Z" fill="url(#paint0_linear)"/>
<path d="M531.95 144.434H132.922C128.786 144.434 125.433 147.787 125.433 151.923V426.383C125.433 430.519 128.786 433.872 132.922 433.872H531.95C536.083 433.872 539.438 430.519 539.438 426.383V151.923C539.438 147.787 536.083 144.434 531.95 144.434Z" fill="white" fill-opacity="0.65"/>
<path d="M535.087 434.306H129.785C128.517 434.306 127.301 433.803 126.404 432.907C125.507 432.011 125.002 430.796 125 429.528V148.785C125.002 147.517 125.507 146.301 126.404 145.403C127.301 144.506 128.517 144.001 129.785 144H535.087C536.353 144.001 537.574 144.506 538.472 145.403C539.363 146.301 539.873 147.517 539.873 148.785V429.528C539.873 430.796 539.363 432.011 538.465 432.907C537.574 433.803 536.353 434.306 535.087 434.306ZM129.785 144.869C128.747 144.87 127.752 145.284 127.018 146.017C126.284 146.752 125.871 147.747 125.869 148.785V429.528C125.871 430.565 126.284 431.56 127.018 432.292C127.753 433.025 128.748 433.437 129.785 433.437H535.087C536.128 433.437 537.117 433.025 537.851 432.292C538.592 431.56 539.004 430.565 539.004 429.528V148.785C539.004 147.747 538.592 146.752 537.858 146.017C537.124 145.284 536.128 144.87 535.087 144.869H129.785Z" fill="#01083C"/>
<g opacity="0.5">
<path opacity="0.5" d="M535.087 434.306H129.785C128.517 434.306 127.301 433.803 126.404 432.907C125.507 432.011 125.002 430.796 125 429.528V148.785C125.002 147.517 125.507 146.301 126.404 145.403C127.301 144.506 128.517 144.001 129.785 144H535.087C536.353 144.001 537.574 144.506 538.472 145.403C539.363 146.301 539.873 147.517 539.873 148.785V429.528C539.873 430.796 539.363 432.011 538.465 432.907C537.574 433.803 536.353 434.306 535.087 434.306ZM129.785 144.869C128.747 144.87 127.752 145.284 127.018 146.017C126.284 146.752 125.871 147.747 125.869 148.785V429.528C125.871 430.565 126.284 431.56 127.018 432.292C127.753 433.025 128.748 433.437 129.785 433.437H535.087C536.128 433.437 537.117 433.025 537.851 432.292C538.592 431.56 539.004 430.565 539.004 429.528V148.785C539.004 147.747 538.592 146.752 537.858 146.017C537.124 145.284 536.128 144.87 535.087 144.869H129.785Z" fill="white" fill-opacity="0.65"/>
</g>
<path d="M129.791 144.232H535.08C536.233 144.232 537.341 144.691 538.158 145.509C538.974 146.326 539.438 147.435 539.438 148.591V167.065H125.433V148.583C125.435 147.428 125.895 146.322 126.712 145.506C127.529 144.69 128.637 144.232 129.791 144.232Z" fill="#01083C"/>
<path d="M139.865 159.329C141.9 159.329 143.549 157.68 143.549 155.645C143.549 153.609 141.9 151.96 139.865 151.96C137.83 151.96 136.181 153.609 136.181 155.645C136.181 157.68 137.83 159.329 139.865 159.329Z" fill="white" fill-opacity="0.65"/>
<path d="M151.569 159.329C153.604 159.329 155.253 157.68 155.253 155.645C155.253 153.609 153.604 151.96 151.569 151.96C149.534 151.96 147.885 153.609 147.885 155.645C147.885 157.68 149.534 159.329 151.569 159.329Z" fill="white" fill-opacity="0.65"/>
<path d="M163.281 159.329C165.316 159.329 166.966 157.68 166.966 155.645C166.966 153.609 165.316 151.96 163.281 151.96C161.247 151.96 159.597 153.609 159.597 155.645C159.597 157.68 161.247 159.329 163.281 159.329Z" fill="white" fill-opacity="0.65"/>
<path d="M407.717 226.103C407.658 226.085 407.598 226.067 407.557 225.991C407.414 225.819 407.408 225.624 407.52 225.464C408.543 224.415 409.11 223.81 409.11 223.81C409.222 223.65 409.477 223.661 409.637 223.774C409.797 223.886 409.785 224.14 409.673 224.3C409.673 224.3 409.106 224.905 408.066 226.013C407.971 226.114 407.835 226.138 407.717 226.103Z" fill="#575757"/>
<path d="M296.119 313.599C296.059 313.581 295.941 313.546 295.899 313.469C295.757 313.297 295.828 313.06 295.999 312.918C297.282 312.076 298.583 311.174 299.866 310.331C300.037 310.189 300.274 310.26 300.416 310.431C300.559 310.602 300.488 310.839 300.317 310.982C299.016 311.883 297.733 312.726 296.45 313.568C296.314 313.592 296.178 313.616 296.119 313.599ZM303.769 308.271C303.71 308.253 303.591 308.218 303.55 308.141C303.407 307.97 303.478 307.733 303.649 307.591C304.891 306.671 306.132 305.752 307.374 304.832C307.545 304.69 307.782 304.761 307.924 304.932C308.067 305.103 307.996 305.34 307.825 305.483C306.583 306.402 305.324 307.381 304.083 308.3C303.964 308.265 303.887 308.306 303.769 308.271ZM311.134 302.601C311.075 302.583 311.016 302.565 310.915 302.471C310.773 302.299 310.784 302.045 310.956 301.903C312.156 300.906 313.356 299.91 314.496 298.896C314.668 298.754 314.922 298.765 315.064 298.936C315.207 299.108 315.195 299.362 315.024 299.505C313.883 300.519 312.683 301.515 311.424 302.494C311.389 302.612 311.253 302.636 311.134 302.601ZM318.174 296.511C318.115 296.493 318.055 296.475 318.014 296.398C317.871 296.227 317.883 295.972 318.054 295.83C319.213 294.757 320.353 293.743 321.452 292.652C321.624 292.51 321.878 292.521 322.021 292.693C322.163 292.864 322.152 293.119 321.98 293.261C320.881 294.352 319.74 295.366 318.582 296.439C318.428 296.522 318.292 296.546 318.174 296.511ZM324.869 290.06C324.81 290.042 324.751 290.025 324.709 289.948C324.567 289.776 324.561 289.581 324.673 289.421C325.772 288.33 326.83 287.163 327.869 286.054C328.041 285.912 328.236 285.905 328.396 286.018C328.539 286.189 328.545 286.384 328.433 286.544C327.393 287.653 326.335 288.821 325.236 289.911C325.183 290.089 324.988 290.095 324.869 290.06ZM331.179 283.172C331.12 283.154 331.061 283.137 331.019 283.06C330.859 282.948 330.812 282.676 330.983 282.533C331.981 281.348 332.98 280.162 333.919 278.959C334.031 278.799 334.303 278.752 334.445 278.923C334.605 279.035 334.653 279.307 334.482 279.45C333.543 280.653 332.544 281.838 331.528 283.083C331.493 283.201 331.298 283.207 331.179 283.172ZM336.968 275.871C336.909 275.853 336.909 275.853 336.849 275.835C336.689 275.723 336.642 275.451 336.754 275.291C337.651 274.011 338.549 272.731 339.37 271.493C339.482 271.333 339.695 271.267 339.914 271.397C340.074 271.509 340.139 271.722 340.01 271.942C339.171 273.239 338.274 274.519 337.376 275.799C337.282 275.9 337.086 275.906 336.968 275.871ZM342.057 268.103L341.998 268.085C341.838 267.973 341.772 267.76 341.843 267.523C342.64 266.149 343.36 264.816 344.021 263.465C344.133 263.305 344.363 263.181 344.523 263.293C344.683 263.405 344.808 263.636 344.696 263.796C344.035 265.146 343.238 266.521 342.442 267.895C342.389 268.073 342.235 268.156 342.057 268.103ZM337.815 258.326C336.749 258.008 335.642 257.613 334.611 257.177C334.434 257.124 334.309 256.894 334.38 256.657C334.433 256.479 334.663 256.354 334.9 256.425C336.327 257.044 337.749 257.468 339.247 257.85C339.424 257.903 339.549 258.134 339.496 258.312C339.443 258.489 339.212 258.614 339.035 258.561C338.644 258.573 338.23 258.45 337.815 258.326ZM343.6 259.471C343.422 259.418 343.28 259.246 343.333 259.069C343.326 258.873 343.575 258.69 343.752 258.743C344.498 258.836 345.321 258.888 346.085 258.922C346.609 257.596 347.075 256.251 347.463 254.949C347.516 254.771 347.747 254.646 347.924 254.699C348.102 254.752 348.227 254.983 348.174 255.16C347.803 256.404 347.373 257.63 346.866 258.897C347.316 258.902 347.825 258.925 348.292 258.871C348.488 258.865 348.689 259.054 348.695 259.249C348.702 259.445 348.513 259.646 348.317 259.653C347.731 259.671 347.145 259.69 346.518 259.632C346.423 259.733 346.21 259.798 346.11 259.703C346.05 259.686 345.991 259.668 345.95 259.591C345.186 259.557 344.363 259.505 343.617 259.412C343.659 259.488 343.659 259.488 343.6 259.471ZM330.459 255.101C330.4 255.083 330.4 255.083 330.34 255.065C328.907 254.251 327.627 253.353 326.483 252.432C326.323 252.32 326.275 252.047 326.447 251.905C326.559 251.745 326.831 251.697 326.973 251.869C328.117 252.79 329.415 253.628 330.771 254.484C330.931 254.597 330.997 254.81 330.926 255.046C330.849 255.088 330.636 255.153 330.459 255.101ZM352.862 259.331C352.744 259.296 352.584 259.184 352.578 258.989C352.571 258.793 352.701 258.574 352.897 258.568C354.376 258.364 355.873 258.101 357.465 257.738C357.678 257.672 357.897 257.802 357.962 258.015C358.028 258.228 357.898 258.447 357.685 258.513C356.153 258.894 354.596 259.139 353.058 259.325C352.981 259.367 352.922 259.349 352.862 259.331ZM323.294 249.288C323.234 249.27 323.175 249.253 323.134 249.176C322.019 247.941 321.135 246.581 320.487 245.292C320.422 245.079 320.475 244.901 320.646 244.759C320.859 244.693 321.037 244.746 321.179 244.918C321.827 246.207 322.669 247.49 323.742 248.648C323.885 248.82 323.873 249.074 323.702 249.216C323.548 249.3 323.412 249.323 323.294 249.288ZM361.927 257.263C361.808 257.228 361.707 257.133 361.683 256.997C361.618 256.784 361.748 256.565 361.961 256.499C363.392 256.023 364.842 255.488 366.291 254.953C366.504 254.888 366.741 254.959 366.806 255.171C366.872 255.384 366.801 255.621 366.588 255.687C365.121 256.281 363.613 256.798 362.181 257.274C362.104 257.316 362.045 257.298 361.927 257.263ZM348.859 250.916C348.682 250.863 348.539 250.691 348.592 250.513C348.874 248.921 349.002 247.411 348.993 245.926C348.987 245.73 349.176 245.529 349.371 245.523C349.567 245.516 349.768 245.706 349.775 245.901C349.783 247.386 349.637 248.955 349.338 250.607C349.285 250.785 349.114 250.927 348.859 250.916ZM319.161 241.091C319.042 241.056 318.882 240.944 318.876 240.749C318.631 239.192 318.599 237.571 318.88 235.978C318.933 235.8 319.122 235.599 319.3 235.652C319.537 235.722 319.679 235.894 319.626 236.072C319.38 237.546 319.371 239.091 319.633 240.588C319.699 240.801 319.51 241.002 319.314 241.008C319.297 241.068 319.22 241.109 319.161 241.091ZM370.557 253.84C370.438 253.804 370.397 253.727 370.296 253.633C370.23 253.42 370.301 253.183 370.455 253.1C371.803 252.47 373.187 251.722 374.571 250.974C374.724 250.891 374.961 250.962 375.104 251.133C375.187 251.287 375.116 251.524 374.945 251.666C373.561 252.414 372.118 253.145 370.769 253.774C370.752 253.833 370.675 253.875 370.557 253.84ZM348.779 241.671C348.661 241.635 348.56 241.541 348.477 241.387C348.172 239.813 347.85 238.298 347.434 236.884C347.368 236.671 347.498 236.452 347.711 236.387C347.924 236.321 348.143 236.451 348.209 236.664C348.625 238.078 349.007 239.61 349.293 241.244C349.359 241.457 349.17 241.658 348.975 241.664C348.838 241.688 348.838 241.688 348.779 241.671ZM378.782 249.393C378.664 249.358 378.622 249.281 378.581 249.204C378.438 249.033 378.509 248.796 378.74 248.671C380.005 247.888 381.347 247.063 382.63 246.22C382.802 246.078 383.039 246.148 383.181 246.32C383.323 246.491 383.253 246.728 383.081 246.87C381.78 247.772 380.438 248.597 379.114 249.363C378.96 249.446 378.901 249.428 378.782 249.393ZM320.691 232.069L320.632 232.051C320.472 231.939 320.347 231.708 320.459 231.548C321.197 230.156 322.112 228.817 323.229 227.667C323.4 227.525 323.595 227.518 323.755 227.631C323.898 227.802 323.904 227.997 323.792 228.157C322.752 229.266 321.872 230.486 321.152 231.819C321.022 232.039 320.809 232.104 320.691 232.069ZM346.013 232.785C345.894 232.75 345.853 232.673 345.752 232.578C345.021 231.135 344.256 229.811 343.36 228.705C343.218 228.534 343.288 228.297 343.46 228.155C343.631 228.012 343.868 228.083 344.01 228.255C344.948 229.437 345.772 230.779 346.485 232.281C346.551 232.494 346.48 232.731 346.326 232.814C346.19 232.838 346.131 232.82 346.013 232.785ZM386.557 244.296C386.498 244.278 386.38 244.243 386.338 244.166C386.196 243.995 386.266 243.758 386.438 243.616C387.661 242.755 388.921 241.777 390.162 240.857C390.333 240.715 390.57 240.786 390.713 240.957C390.855 241.128 390.784 241.365 390.613 241.508C389.354 242.486 388.112 243.406 386.889 244.266C386.812 244.308 386.676 244.331 386.557 244.296ZM327.049 225.453C326.93 225.418 326.889 225.341 326.847 225.264C326.764 225.11 326.775 224.856 327.006 224.731C328.407 223.924 329.934 223.347 331.49 223.102C331.703 223.036 331.904 223.226 331.911 223.421C331.976 223.634 331.787 223.835 331.592 223.842C330.154 224.122 328.705 224.657 327.38 225.423C327.244 225.447 327.108 225.471 327.049 225.453ZM340.272 225.656C340.212 225.639 340.212 225.639 340.153 225.621C339.193 224.948 338.121 224.435 336.996 224.099C336.7 224.011 336.344 223.905 336.031 223.876C335.853 223.823 335.711 223.651 335.722 223.397C335.775 223.219 335.947 223.077 336.201 223.088C336.574 223.135 336.929 223.241 337.225 223.329C338.41 223.683 339.541 224.213 340.62 224.922C340.78 225.034 340.827 225.306 340.715 225.466C340.603 225.626 340.39 225.692 340.272 225.656ZM393.982 238.643C393.923 238.626 393.864 238.608 393.763 238.514C393.62 238.342 393.632 238.088 393.803 237.945C394.985 237.008 396.203 235.953 397.344 234.939C397.515 234.796 397.77 234.808 397.912 234.979C398.054 235.151 398.043 235.405 397.871 235.547C396.672 236.544 395.472 237.54 394.272 238.536C394.236 238.655 394.1 238.679 393.982 238.643ZM401.021 232.553C400.962 232.536 400.903 232.518 400.861 232.441C400.719 232.27 400.73 232.015 400.902 231.873C402.06 230.8 403.218 229.726 404.3 228.695C404.471 228.553 404.667 228.546 404.868 228.735C405.011 228.907 404.999 229.161 404.828 229.304C403.729 230.394 402.57 231.468 401.43 232.482C401.276 232.565 401.14 232.589 401.021 232.553Z" fill="#575757"/>
<path d="M400.522 220.555L383.649 211.161L451.586 200.304L400.522 220.555Z" fill="#2A94F4"/>
<path d="M400.632 220.698L397.152 236.246L406.15 227.633L451.586 200.304L400.632 220.698Z" fill="#0E538D"/>
<path d="M397.048 236.215L409.37 233.388L406.016 227.411L397.048 236.215Z" fill="#094971"/>
<path d="M405.869 227.632L414.299 248.665L451.586 200.304L405.869 227.632Z" fill="#2A94F4"/>
<path fill-rule="evenodd" clip-rule="evenodd" d="M204.968 388.151L234.729 456.519L255.105 514.483L262.358 514.234L229.892 387.296L204.968 388.151Z" fill="#997659"/>
<path fill-rule="evenodd" clip-rule="evenodd" d="M199.454 388.34C199.998 412.705 196.87 445.641 196.243 447.183C195.616 448.724 150.659 487.405 150.659 487.405L155.838 492.579C155.838 492.579 209.293 458.904 211.671 454.575C214.05 450.247 220.928 410.931 226.727 387.404L199.454 388.34Z" fill="#B28B67"/>
<path fill-rule="evenodd" clip-rule="evenodd" d="M151.748 487.284C151.333 486.189 150.131 485.552 149.059 486.024C148.101 486.445 147.052 486.971 146.521 487.449C145.398 488.459 143.58 490.77 143.58 490.77C144.752 492.073 164.634 514.182 164.634 514.182C164.634 514.182 168.472 512.381 166.944 510.199C165.417 508.016 164.441 506.541 164.441 506.541L159.646 491.73C159.473 491.194 158.891 490.907 158.36 491.095L156.463 491.77C156.463 491.77 153.977 490.713 152.953 489.575C152.498 489.069 152.076 488.148 151.748 487.284Z" fill="#E4E4E4"/>
<path fill-rule="evenodd" clip-rule="evenodd" d="M254.468 511.541C253.363 511.155 252.102 511.667 251.774 512.792C251.482 513.796 251.21 514.938 251.235 515.652C251.286 517.161 251.889 520.039 251.889 520.039C253.639 519.979 283.356 518.96 283.356 518.96C283.356 518.96 284.443 514.863 281.79 514.63C279.136 514.397 277.379 514.197 277.379 514.197L262.951 508.349C262.429 508.137 261.835 508.399 261.638 508.926L260.935 510.813C260.935 510.813 258.528 512.039 256.998 512.091C256.317 512.115 255.341 511.846 254.468 511.541Z" fill="#E4E4E4"/>
<path fill-rule="evenodd" clip-rule="evenodd" d="M227.56 509.386L261.913 504.461L232.306 387.213L201.422 388.272L227.56 509.386Z" fill="#DB2721"/>
<path fill-rule="evenodd" clip-rule="evenodd" d="M157.496 478.536L181.032 504.532C181.032 504.532 215.427 464.278 220.951 452.171C226.475 440.064 229.404 387.312 229.404 387.312L194.634 388.505C194.634 388.505 193.636 434.859 192.81 437.043C191.984 439.227 157.496 478.536 157.496 478.536Z" fill="#FF4133"/>
<path fill-rule="evenodd" clip-rule="evenodd" d="M207.767 282.485C200.834 282.723 195.406 288.536 195.644 295.469L196.008 306.069C196.224 312.357 201.026 317.407 207.091 318.114C207.095 318.165 207.1 318.217 207.105 318.269L223.284 317.714C225.943 314.931 222.208 296.804 220.062 290.827C219.758 289.982 219.472 289.376 219.196 288.968C216.983 284.964 212.653 282.317 207.767 282.485Z" fill="#191847"/>
<path fill-rule="evenodd" clip-rule="evenodd" d="M208.933 309.393C212.62 311.446 216.206 312.377 217.858 311.89C221.999 310.67 221.859 295.371 218.419 289.456C214.98 283.54 198.269 281.484 197.841 293.452C197.692 297.606 199.559 301.245 202.234 304.174L198.361 325.817L211.751 325.358L208.933 309.393Z" fill="#B28B67"/>
<path fill-rule="evenodd" clip-rule="evenodd" d="M196.072 293.583C196.447 293.185 196.811 292.8 197.172 292.455L197.14 292.022C197.14 292.022 201.047 283.274 207.508 283.052C213.962 282.831 216.107 285.762 217.93 288.253L217.934 288.26C217.134 291.405 214.441 292.759 211.397 294.29C210.086 294.949 208.71 295.641 207.391 296.523C206.849 296.112 206.167 295.879 205.434 295.904C203.739 295.962 202.413 297.383 202.471 299.078C202.529 300.772 203.95 302.099 205.645 302.041C205.691 302.039 205.738 302.037 205.784 302.033C206.628 308.639 206.641 316.215 204.864 318.074L188.684 318.629C187.943 310.576 189.951 308.202 192.004 305.777C193.935 303.494 195.905 301.166 195.66 294.017C195.799 293.872 195.936 293.726 196.072 293.583L196.072 293.583Z" fill="#191847"/>
<path fill-rule="evenodd" clip-rule="evenodd" d="M264.723 316.817L243.794 323.891L249.502 332.7L265.612 322.459C273.272 321.739 276.872 320.858 276.413 319.815C276.027 318.936 275.174 318.813 274.389 318.7C273.777 318.612 273.206 318.53 272.927 318.101C272.292 317.121 274.309 314.443 276.331 311.984C278.353 309.525 276.666 309.472 275.655 309.698C272.207 311.238 268.563 313.611 264.723 316.817ZM261.449 373.696L243.204 361.239L239.604 371.098L257.478 377.802C262.663 383.486 265.534 385.831 266.09 384.837C266.559 383.999 266.144 383.244 265.762 382.549C265.464 382.007 265.186 381.502 265.361 381.021C265.762 379.924 269.114 379.923 272.295 380.058C275.476 380.193 274.503 378.814 273.714 378.143C270.409 376.315 266.321 374.833 261.449 373.696Z" fill="#B28B67"/>
<path fill-rule="evenodd" clip-rule="evenodd" d="M214.354 326.993C224.666 344.731 239.155 358.103 259.966 371.806L252.571 380.744C229.597 373.092 217.45 368.416 210.985 351.545C209.363 347.31 207.863 333.686 206.732 326.529L214.354 326.993Z" fill="#2026A2"/>
<path fill-rule="evenodd" clip-rule="evenodd" d="M189.327 388.129L232.287 386.655C232.287 386.655 216.163 342.639 215.277 326.059C215.247 325.496 214.172 324.538 213.716 324.684C208.711 326.284 202.863 323.987 202.863 323.987C193.24 340.716 190.41 361.003 189.327 388.129Z" fill="#F2F2F2"/>
<path fill-rule="evenodd" clip-rule="evenodd" d="M214.496 348.607C222.193 377.158 222.692 400.728 207.879 401.236L184.973 402.022C180.496 377.698 188.895 343.471 197.172 326.069C197.488 325.404 198.167 324.148 199.864 324.09L206.52 323.862C206.523 323.871 206.526 323.879 206.53 323.888C208.533 323.836 210.741 323.833 213.133 323.831C225.444 323.817 242.609 323.798 261.69 316.942L264.355 328.231C247.325 340.028 229.989 349.309 214.496 348.607Z" fill="#1F28CF"/>
<defs>
<linearGradient id="paint0_linear" x1="442.5" y1="119.5" x2="242" y2="477" gradientUnits="userSpaceOnUse">
<stop stop-color="#00C8FF"/>
<stop offset="0.831805" stop-color="#00C8FF" stop-opacity="0"/>
</linearGradient>
</defs>
</svg>
