<svg width="600" height="600" viewBox="0 0 600 600" fill="none" xmlns="http://www.w3.org/2000/svg">
<path d="M522.563 293.656C541.49 363.218 547.799 394.837 503.636 470.722C459.472 546.607 358.424 533.959 289.127 533.959C163.688 533.959 62 432.034 62 306.303C62 180.572 169.997 66 295.436 66C420.875 66 503.636 224.094 522.563 293.656Z" fill="#FF416C"/>
<path d="M522.563 293.656C541.49 363.218 547.799 394.837 503.636 470.722C459.472 546.607 358.424 533.959 289.127 533.959C163.688 533.959 62 432.034 62 306.303C62 180.572 169.997 66 295.436 66C420.875 66 503.636 224.094 522.563 293.656Z" fill="url(#paint0_linear)"/>
<path d="M296.364 284.632L284.7 295.12L405.482 429.45L417.145 418.963L296.364 284.632Z" fill="#909BA0"/>
<path opacity="0.12" d="M320.981 334.643L325.454 339.891L360.76 356.471L327.481 319.196L320.981 334.643Z" fill="#272525"/>
<path d="M334.31 326.31C379.47 281.15 379.47 207.93 334.31 162.77C289.15 117.61 215.93 117.61 170.77 162.77C125.61 207.93 125.61 281.15 170.77 326.31C215.93 371.47 289.15 371.47 334.31 326.31Z" fill="#FFBE55"/>
<path d="M325.834 317.834C366.313 277.355 366.313 211.725 325.834 171.246C285.355 130.767 219.725 130.767 179.246 171.246C138.767 211.725 138.767 277.355 179.246 317.834C219.725 358.313 285.355 358.313 325.834 317.834Z" fill="#EDA640"/>
<path d="M252.514 344.006C307.455 344.006 351.993 299.468 351.993 244.527C351.993 189.586 307.455 145.048 252.514 145.048C197.574 145.048 153.035 189.586 153.035 244.527C153.035 299.468 197.574 344.006 252.514 344.006Z" fill="#B3D1E2"/>
<g opacity="0.22">
<path opacity="0.22" d="M184.764 220.79C193.054 190.195 220.846 168.308 252.693 168.308C284.481 168.308 312.691 190.494 320.563 221.268C322.77 229.915 336.368 227.172 334.161 218.465C325.096 183.039 294.381 157.215 257.942 154.59C222.038 152.026 188.64 173.973 174.804 206.775C173.492 209.936 172.418 213.216 171.524 216.556C169.198 225.204 182.378 229.498 184.764 220.79Z" fill="white"/>
</g>
<path opacity="0.31" d="M338.747 248.559C340.061 243.694 337.182 238.685 332.317 237.371C327.452 236.058 322.443 238.937 321.129 243.802C319.815 248.667 322.694 253.676 327.559 254.99C332.424 256.303 337.433 253.425 338.747 248.559Z" fill="white"/>
<path d="M429.585 468.295C423.263 467.997 417.06 465.373 412.468 460.303L340.9 382.354C331.656 372.335 332.372 356.709 342.391 347.465C352.411 338.221 368.036 338.937 377.281 348.956L448.848 426.905C458.092 436.925 457.377 452.55 447.357 461.794C442.347 466.446 435.906 468.593 429.585 468.295Z" fill="#FFBE55"/>
<path d="M440.26 437.223C439.604 437.223 438.948 436.925 438.531 436.388L423.74 420.285C422.786 419.271 422.845 417.661 423.919 416.707C424.933 415.753 426.543 415.812 427.497 416.886L442.288 432.989C443.242 434.002 443.182 435.613 442.109 436.567C441.572 437.044 440.916 437.283 440.26 437.223Z" fill="white"/>
<path d="M419.625 414.679C418.969 414.679 418.313 414.381 417.836 413.844C401.077 395.296 383.96 376.629 366.963 358.499C366.009 357.485 366.068 355.874 367.082 354.92C368.096 353.966 369.706 354.026 370.661 355.039C387.718 373.23 404.834 391.897 421.593 410.504C422.547 411.518 422.428 413.129 421.414 414.083C420.937 414.5 420.281 414.679 419.625 414.679Z" fill="white"/>
<defs>
<linearGradient id="paint0_linear" x1="342.5" y1="201.5" x2="144" y2="450" gradientUnits="userSpaceOnUse">
<stop stop-color="#FF4929"/>
<stop offset="1" stop-color="#FF4929" stop-opacity="0"/>
</linearGradient>
</defs>
</svg>
